<svg width="18" height="18" viewBox="0 0 18 18" fill="none" xmlns="http://www.w3.org/2000/svg">
<path fill-rule="evenodd" clip-rule="evenodd" d="M4.16488 3.31635C3.9398 3.31635 3.72395 3.40576 3.56479 3.56492C3.40564 3.72407 3.31623 3.93993 3.31623 4.165V11.0726C3.31623 11.2977 3.40564 11.5135 3.56479 11.6727C3.72395 11.8318 3.9398 11.9212 4.16488 11.9212H5.01353V6.92804C5.01353 5.87075 5.87063 5.01365 6.92792 5.01365H11.9211V4.165C11.9211 3.93993 11.8317 3.72407 11.6726 3.56492C11.5134 3.40576 11.2975 3.31635 11.0725 3.31635H4.16488ZM12.9869 5.01365V4.165C12.9869 3.65727 12.7852 3.17034 12.4262 2.81132C12.0671 2.4523 11.5802 2.25061 11.0725 2.25061H4.16488C3.65715 2.25061 3.17022 2.4523 2.8112 2.81132C2.45218 3.17034 2.25049 3.65727 2.25049 4.165V11.0726C2.25049 11.5803 2.45218 12.0673 2.8112 12.4263C3.17022 12.7853 3.65715 12.987 4.16488 12.987H5.01353V13.8356C5.01353 14.8929 5.87063 15.75 6.92792 15.75H13.8355C14.8928 15.75 15.7499 14.8929 15.7499 13.8356V6.92804C15.7499 5.87075 14.8928 5.01365 13.8355 5.01365H12.9869ZM12.4533 6.07939C12.4535 6.07939 12.4538 6.07939 12.454 6.07939C12.4542 6.07939 12.4544 6.07939 12.4547 6.07939H13.8355C14.3042 6.07939 14.6842 6.45934 14.6842 6.92804V13.8356C14.6842 14.3043 14.3042 14.6843 13.8355 14.6843H6.92792C6.45922 14.6843 6.07927 14.3043 6.07927 13.8356V12.4548C6.07927 12.4546 6.07927 12.4543 6.07927 12.4541C6.07927 12.4539 6.07927 12.4537 6.07927 12.4534V6.92804C6.07927 6.45934 6.45922 6.07939 6.92792 6.07939H12.4533Z" fill="#009FA9"/>
</svg>
