<svg width="24" height="24" viewBox="0 0 24 24" fill="none" xmlns="http://www.w3.org/2000/svg">
<path fill-rule="evenodd" clip-rule="evenodd" d="M12 3.75C7.44272 3.75 3.75 7.4347 3.75 12C3.75 16.5573 7.4347 20.25 12 20.25C16.5568 20.25 20.25 16.5568 20.25 12C20.25 7.44321 16.5568 3.75 12 3.75ZM2.25 12C2.25 6.6053 6.61527 2.25 12 2.25C17.3852 2.25 21.75 6.61479 21.75 12C21.75 17.3852 17.3852 21.75 12 21.75C6.6053 21.75 2.25 17.3847 2.25 12ZM12 6.75C12.4142 6.75 12.75 7.08579 12.75 7.5V12.5C12.75 12.9142 12.4142 13.25 12 13.25C11.5858 13.25 11.25 12.9142 11.25 12.5V7.5C11.25 7.08579 11.5858 6.75 12 6.75ZM11.9939 15.25C11.9956 15.25 11.9973 15.25 11.999 15.25C12.0238 15.25 12.0483 15.2512 12.0725 15.2536C12.5566 15.2947 12.999 15.6902 12.999 16.25C12.999 16.5451 12.8662 16.7909 12.7031 16.9541C12.5399 17.1172 12.2941 17.25 11.999 17.25C11.4255 17.25 10.999 16.7747 10.999 16.25C10.999 15.72 11.4067 15.2891 11.9271 15.2525C11.9475 15.2509 11.9681 15.25 11.989 15.25C11.9906 15.25 11.9923 15.25 11.9939 15.25Z" fill="#070A1B" fill-opacity="0.9"/>
</svg>
