<svg width="24" height="24" viewBox="0 0 24 24" fill="none" xmlns="http://www.w3.org/2000/svg">
<path d="M11 15.5H13.31M12.159 15.5V11.25H11.009M12.1 8.24C12.1 8.37 11.98 8.49 11.85 8.49C11.71 8.49 11.6 8.37 11.6 8.24C11.6 8.1 11.71 7.99 11.85 7.99C11.85 7.99 11.71 8 11.84 7.99C11.97 7.98 12.09 8.1 12.09 8.23M12 3C10.8181 3 9.64778 3.23279 8.55585 3.68508C7.46392 4.13738 6.47177 4.80031 5.63604 5.63604C4.80031 6.47177 4.13738 7.46392 3.68508 8.55585C3.23279 9.64778 3 10.8181 3 12C3 13.1819 3.23279 14.3522 3.68508 15.4442C4.13738 16.5361 4.80031 17.5282 5.63604 18.364C6.47177 19.1997 7.46392 19.8626 8.55585 20.3149C9.64778 20.7672 10.8181 21 12 21C13.1819 21 14.3522 20.7672 15.4442 20.3149C16.5361 19.8626 17.5282 19.1997 18.364 18.364C19.1997 17.5282 19.8626 16.5361 20.3149 15.4442C20.7672 14.3522 21 13.1819 21 12C21 10.8181 20.7672 9.64778 20.3149 8.55585C19.8626 7.46392 19.1997 6.47177 18.364 5.63604C17.5282 4.80031 16.5361 4.13738 15.4442 3.68508C14.3522 3.23279 13.1819 3 12 3Z" stroke="white" stroke-width="1.5" stroke-linecap="round" stroke-linejoin="round"/>
<path fill-rule="evenodd" clip-rule="evenodd" d="M12.4905 7.59953C12.3587 7.38391 12.1212 7.24 11.85 7.24C11.2958 7.24 10.85 7.68579 10.85 8.24C10.85 8.76471 11.2765 9.24 11.85 9.24C12.1451 9.24 12.3909 9.10725 12.5541 8.94408C12.7172 8.78091 12.85 8.53514 12.85 8.24C12.85 7.96883 12.7061 7.73127 12.4905 7.59953Z" fill="#070A1B" fill-opacity="0.9"/>
<path fill-rule="evenodd" clip-rule="evenodd" d="M10.25 15.5C10.25 15.0858 10.5858 14.75 11 14.75H13.31C13.7242 14.75 14.06 15.0858 14.06 15.5C14.06 15.9142 13.7242 16.25 13.31 16.25H11C10.5858 16.25 10.25 15.9142 10.25 15.5Z" fill="#070A1B" fill-opacity="0.9"/>
<path fill-rule="evenodd" clip-rule="evenodd" d="M8.26884 2.99217C9.45176 2.50219 10.7196 2.25 12 2.25C13.2804 2.25 14.5482 2.50219 15.7312 2.99217C16.9141 3.48216 17.9889 4.20034 18.8943 5.10571C19.7997 6.01108 20.5178 7.08591 21.0078 8.26884C21.4978 9.45176 21.75 10.7196 21.75 12C21.75 13.2804 21.4978 14.5482 21.0078 15.7312C20.5178 16.9141 19.7997 17.9889 18.8943 18.8943C17.9889 19.7997 16.9141 20.5178 15.7312 21.0078C14.5482 21.4978 13.2804 21.75 12 21.75C10.7196 21.75 9.45176 21.4978 8.26884 21.0078C7.08591 20.5178 6.01108 19.7997 5.10571 18.8943C4.20034 17.9889 3.48216 16.9141 2.99217 15.7312C2.50219 14.5482 2.25 13.2804 2.25 12C2.25 10.7196 2.50219 9.45176 2.99217 8.26884C3.48216 7.08591 4.20034 6.01108 5.10571 5.10571C6.01108 4.20034 7.08591 3.48216 8.26884 2.99217ZM12 3.75C10.9166 3.75 9.8438 3.96339 8.84286 4.37799C7.84193 4.79259 6.93245 5.40029 6.16637 6.16637C5.40029 6.93245 4.7926 7.84193 4.37799 8.84286C3.96339 9.8438 3.75 10.9166 3.75 12C3.75 13.0834 3.96339 14.1562 4.37799 15.1571C4.7926 16.1581 5.40029 17.0675 6.16637 17.8336C6.93245 18.5997 7.84193 19.2074 8.84286 19.622C9.8438 20.0366 10.9166 20.25 12 20.25C13.0834 20.25 14.1562 20.0366 15.1571 19.622C16.1581 19.2074 17.0675 18.5997 17.8336 17.8336C18.5997 17.0675 19.2074 16.1581 19.622 15.1571C20.0366 14.1562 20.25 13.0834 20.25 12C20.25 10.9166 20.0366 9.8438 19.622 8.84286C19.2074 7.84193 18.5997 6.93245 17.8336 6.16637C17.0675 5.40029 16.1581 4.79259 15.1571 4.37799C14.1562 3.96339 13.0834 3.75 12 3.75ZM11.4596 8.63648C11.5931 8.84318 11.8256 8.98 12.09 8.98C12.5042 8.98 12.84 8.64421 12.84 8.23C12.84 7.93612 12.7081 7.68661 12.5368 7.51995C12.3646 7.35248 12.0989 7.21787 11.7825 7.24221C11.3807 7.27312 11.0751 7.61606 11.0906 8.01878C11.1007 8.28297 11.2466 8.51092 11.4596 8.63648ZM10.259 11.25C10.259 10.8358 10.5948 10.5 11.009 10.5H12.159C12.5732 10.5 12.909 10.8358 12.909 11.25V15.5C12.909 15.9142 12.5732 16.25 12.159 16.25C11.7448 16.25 11.409 15.9142 11.409 15.5V12H11.009C10.5948 12 10.259 11.6642 10.259 11.25Z" fill="#070A1B" fill-opacity="0.9"/>
</svg>
