<svg width="40" height="40" viewBox="0 0 40 40" fill="none" xmlns="http://www.w3.org/2000/svg">
  <rect width="40" height="40" rx="1" fill="#61DAFB"/>
  <path fill-rule="evenodd" clip-rule="evenodd" d="M17.7271 13.4929C17.047 13.1845 16.6215 13.2181 16.3789 13.3612L16.3734 13.3644C16.1734 13.4798 15.9801 13.7272 15.8716 14.214C15.7629 14.7018 15.7578 15.3616 15.8822 16.1652C15.9395 16.5357 16.0231 16.9294 16.1326 17.3412C16.1495 17.3774 16.1634 17.4157 16.1737 17.4558C16.1824 17.4892 16.1883 17.5227 16.1916 17.556C16.3163 17.9964 16.4696 18.456 16.651 18.929C16.7402 18.7639 16.8321 18.5985 16.9264 18.4322L16.9284 18.4287C17.2547 17.8615 17.5974 17.3199 17.951 16.809C17.9791 16.7535 18.0149 16.7022 18.0572 16.6569C18.5425 15.9683 19.0469 15.3376 19.5566 14.7777C18.896 14.1725 18.2713 13.7397 17.7271 13.4929ZM20.4795 13.8459C19.7361 13.1594 18.9841 12.6239 18.2683 12.2993C17.4226 11.9158 16.495 11.7728 15.7159 12.2307C15.092 12.5917 14.7488 13.2271 14.5924 13.929C14.4359 14.6312 14.4481 15.4677 14.587 16.3656C14.627 16.6244 14.6781 16.8914 14.7398 17.1651C13.78 17.4622 12.9479 17.8416 12.313 18.2957C11.5533 18.839 10.9697 19.5722 10.9697 20.4767C10.9697 21.1962 11.3477 21.8106 11.8763 22.2968C12.4045 22.7826 13.1327 23.1904 13.9778 23.5195C14.2209 23.6142 14.4765 23.7035 14.7433 23.7869C14.5198 24.7717 14.4313 25.6871 14.507 26.4671C14.5968 27.3932 14.9368 28.2651 15.7188 28.7157L15.7196 28.7162C16.3431 29.0743 17.0641 29.0528 17.7492 28.8374C18.434 28.6221 19.1514 28.1948 19.8592 27.627C20.0623 27.4641 20.2669 27.2878 20.472 27.0989C21.2145 27.785 21.9647 28.3205 22.6796 28.6452C23.5266 29.0299 24.453 29.171 25.2352 28.7143C25.8577 28.3529 26.1997 27.717 26.3556 27.0152C26.5115 26.3135 26.4997 25.4774 26.3614 24.5795C26.3224 24.3266 26.273 24.0659 26.2133 23.7987C27.1733 23.4979 28.0084 23.1153 28.6457 22.6585C29.4035 22.1152 29.9906 21.3822 29.9906 20.4767C29.9906 19.7555 29.6125 19.1395 29.0829 18.6519C28.5539 18.1647 27.8245 17.756 26.9782 17.4263C26.7343 17.3312 26.4778 17.2416 26.21 17.158C26.4317 16.1757 26.5177 15.2632 26.4412 14.4855C26.3503 13.5604 26.0107 12.6898 25.2348 12.2389L25.2329 12.2378C24.6079 11.8774 23.8853 11.897 23.1982 12.1121C22.5118 12.3271 21.7935 12.7549 21.0856 13.3233C20.8846 13.4846 20.6823 13.6591 20.4795 13.8459ZM24.9417 16.8243C25.1341 15.9558 25.195 15.2046 25.1369 14.6137C25.0641 13.8732 24.8233 13.5161 24.5772 13.3726C24.3765 13.2572 24.065 13.214 23.5898 13.3628C23.1131 13.5121 22.5393 13.8368 21.9061 14.3452C21.2596 14.8643 20.5798 15.5518 19.9108 16.3764C20.0972 16.3723 20.2856 16.3702 20.4758 16.3702C21.1313 16.3702 21.7725 16.3972 22.3926 16.449C22.4396 16.448 22.4866 16.4521 22.5326 16.4611C23.3833 16.5375 24.1925 16.6606 24.9417 16.8243ZM22.0458 17.7365C21.5382 17.7 21.0135 17.6808 20.4758 17.6808C19.9339 17.6808 19.4109 17.6983 18.9067 17.733C18.6184 18.159 18.3367 18.6091 18.0654 19.0805C17.7938 19.5595 17.5484 20.0225 17.328 20.4853C17.5501 20.9423 17.7956 21.4055 18.0639 21.8703C18.3327 22.3371 18.6125 22.7849 18.9023 23.2079C19.4109 23.2446 19.9367 23.2639 20.4758 23.2639C21.0129 23.2639 21.5405 23.2402 22.0543 23.2024C22.3392 22.7817 22.6179 22.3375 22.8864 21.8725C23.157 21.3953 23.403 20.9253 23.6248 20.4626C23.4026 20.0048 23.157 19.5409 22.8883 19.0754C22.6136 18.6037 22.3329 18.1607 22.0458 17.7365ZM24.3016 22.0212C24.2121 22.1873 24.12 22.354 24.0252 22.5212L24.0227 22.5256C23.2176 23.9202 22.3144 25.1584 21.3952 26.1674C22.0554 26.7727 22.6784 27.2053 23.2216 27.4519C23.8988 27.7595 24.3261 27.7277 24.5748 27.5823L24.5769 27.5811C24.775 27.4662 24.9679 27.2188 25.0762 26.7311C25.1846 26.2429 25.1899 25.5828 25.0661 24.7791C24.9392 23.9557 24.6827 23.0183 24.3016 22.0212ZM21.0436 24.5665C20.8561 24.5717 20.6668 24.5745 20.4758 24.5745C19.8202 24.5745 19.1789 24.5474 18.5591 24.4957C18.5119 24.4967 18.4649 24.4926 18.4187 24.4836C17.5686 24.4071 16.76 24.2841 16.0116 24.1206C15.8169 24.9935 15.7539 25.7478 15.8114 26.3405C15.8832 27.0805 16.1239 27.4362 16.3727 27.5799C16.5705 27.6935 16.8804 27.7367 17.3561 27.5871C17.8323 27.4374 18.4058 27.1127 19.0391 26.6047C19.6881 26.0842 20.3711 25.3944 21.0436 24.5665ZM17.2185 23.0149C17.1203 22.8536 17.0237 22.6902 16.9285 22.5249C16.1242 21.1316 15.5023 19.7306 15.0865 18.4299C14.2381 18.6958 13.5576 19.0168 13.0754 19.3617C12.47 19.7947 12.2803 20.1842 12.2803 20.4767C12.2803 20.7052 12.3971 20.9951 12.7635 21.3322C13.1303 21.6696 13.6974 22.0039 14.4534 22.2983C15.2278 22.6 16.1659 22.8464 17.2185 23.0149ZM23.7297 17.9292C24.785 18.0978 25.7258 18.3448 26.5024 18.6474C27.2595 18.9424 27.8275 19.2775 28.1952 19.616C28.5622 19.954 28.68 20.2456 28.68 20.4767C28.68 20.7682 28.4894 21.158 27.8821 21.5933C27.3979 21.9404 26.7158 22.2637 25.8691 22.533C25.4541 21.227 24.831 19.8192 24.0227 18.4191L24.0215 18.4171C23.9249 18.2511 23.8276 18.0886 23.7297 17.9292Z" fill="white"/>
  <path fill-rule="evenodd" clip-rule="evenodd" d="M20.3952 19.5965C20.3962 19.5964 20.3972 19.5963 20.3982 19.5963C20.6746 19.575 20.9068 19.6926 21.0572 19.8389C21.1408 19.9203 21.2137 20.0243 21.2618 20.145C21.3222 20.2442 21.3571 20.3608 21.3571 20.4855C21.3571 20.5761 21.3387 20.6624 21.3055 20.7408C21.1919 21.0874 20.8671 21.3505 20.4659 21.3505C20.4503 21.3505 20.4347 21.3499 20.4192 21.3488C19.9804 21.3175 19.5922 20.9601 19.5922 20.468C19.5922 20.0211 19.9335 19.6289 20.3952 19.5965Z" fill="white"/>
</svg>
