<svg width="18" height="18" viewBox="0 0 18 18" fill="none" xmlns="http://www.w3.org/2000/svg">
<path fill-rule="evenodd" clip-rule="evenodd" d="M11.3754 5.51143C9.75775 3.88784 7.13759 3.88784 5.51993 5.5121L5.51839 5.51364C3.89525 7.13085 3.89408 9.75163 5.51987 11.3774C7.13719 12.9947 9.75901 12.996 11.385 11.3768C13.0022 9.75893 13.002 7.13804 11.3844 5.52041C11.383 5.51904 11.3816 5.51766 11.3803 5.51627C11.3786 5.51467 11.377 5.51306 11.3754 5.51143ZM12.1757 4.72083C12.1746 4.71968 12.1735 4.71854 12.1724 4.7174C10.1153 2.65275 6.78099 2.65249 4.72359 4.71746C2.659 6.77532 2.66043 10.109 4.72438 12.1729C6.78199 14.2305 10.115 14.2294 12.1791 12.1737L12.1799 12.1729C14.237 10.1157 14.237 6.78209 12.1799 4.72492C12.1785 4.72355 12.1771 4.72218 12.1757 4.72083Z" fill="#8B92B6"/>
<path fill-rule="evenodd" clip-rule="evenodd" d="M11.3844 11.3849C11.604 11.1652 11.9602 11.1652 12.1799 11.3849L14.6474 13.8524C14.867 14.0721 14.867 14.4282 14.6474 14.6479C14.4277 14.8676 14.0715 14.8676 13.8519 14.6479L11.3844 12.1804C11.1647 11.9607 11.1647 11.6046 11.3844 11.3849Z" fill="#8B92B6"/>
</svg>
