<svg width="24" height="24" viewBox="0 0 24 24" fill="none" xmlns="http://www.w3.org/2000/svg">
<path fill-rule="evenodd" clip-rule="evenodd" d="M9.44289 3.9424C10.5772 1.96972 13.4233 1.96972 14.5576 3.9424L22.2549 17.3289C23.3857 19.2956 21.9661 21.7494 19.6975 21.7494H4.30302C2.03442 21.7494 0.614813 19.2956 1.74564 17.3289L9.44289 3.9424ZM13.2573 4.69011C12.6997 3.72048 11.3008 3.72049 10.7432 4.69011L3.046 18.0766C2.49017 19.0433 3.18794 20.2494 4.30302 20.2494H19.6975C20.8126 20.2494 21.5103 19.0433 20.9545 18.0766L13.2573 4.69011Z" fill="#070A1B" fill-opacity="0.9"/>
<path fill-rule="evenodd" clip-rule="evenodd" d="M12.001 8.6C12.4152 8.6 12.751 8.93579 12.751 9.35V13.09C12.751 13.5042 12.4152 13.84 12.001 13.84C11.5868 13.84 11.251 13.5042 11.251 13.09V9.35C11.251 8.93579 11.5868 8.6 12.001 8.6ZM11.9949 15.345L12 15.345C12.0248 15.345 12.0493 15.3462 12.0735 15.3486C12.5576 15.3897 13 15.7852 13 16.345C13 16.6401 12.8672 16.8859 12.7041 17.0491C12.5409 17.2122 12.2951 17.345 12 17.345C11.4265 17.345 11 16.8697 11 16.345C11 15.815 11.4077 15.3841 11.9281 15.3475C11.9485 15.3459 11.9691 15.345 11.99 15.345L11.9949 15.345Z" fill="#070A1B" fill-opacity="0.9"/>
</svg>
