<svg width="21" height="20" viewBox="0 0 21 20" fill="none" xmlns="http://www.w3.org/2000/svg"><path fill-rule="evenodd" clip-rule="evenodd" d="M5.12759 3.68483C4.87751 3.68483 4.63766 3.78418 4.46083 3.96101C4.28399 4.13785 4.18465 4.37769 4.18465 4.62777V12.3029C4.18465 12.553 4.28399 12.7928 4.46083 12.9696C4.63766 13.1465 4.87751 13.2458 5.12759 13.2458H6.07053V7.69781C6.07053 6.52305 7.02286 5.57071 8.19763 5.57071H13.7456V4.62777C13.7456 4.37769 13.6463 4.13785 13.4695 3.96101C13.2926 3.78418 13.0528 3.68483 12.8027 3.68483H5.12759ZM14.9298 5.57071V4.62777C14.9298 4.06363 14.7057 3.52259 14.3068 3.12368C13.9079 2.72478 13.3668 2.50067 12.8027 2.50067H5.12759C4.56345 2.50067 4.02241 2.72478 3.6235 3.12368C3.22459 3.52259 3.00049 4.06363 3.00049 4.62777V12.3029C3.00049 12.867 3.22459 13.4081 3.6235 13.807C4.02241 14.2059 4.56345 14.43 5.12759 14.43H6.07053V15.3729C6.07053 16.5477 7.02286 17.5 8.19763 17.5H15.8727C17.0475 17.5 17.9998 16.5477 17.9998 15.3729V7.69781C17.9998 6.52305 17.0475 5.57071 15.8727 5.57071H14.9298ZM14.337 6.75487C14.3372 6.75487 14.3375 6.75487 14.3377 6.75487C14.338 6.75487 14.3382 6.75487 14.3385 6.75487H15.8727C16.3935 6.75487 16.8157 7.17704 16.8157 7.69781V15.3729C16.8157 15.8937 16.3935 16.3159 15.8727 16.3159H8.19763C7.67686 16.3159 7.25469 15.8937 7.25469 15.3729V13.8387C7.25469 13.8384 7.25469 13.8381 7.25469 13.8379C7.25469 13.8376 7.25469 13.8374 7.25469 13.8371V7.69781C7.25469 7.17704 7.67686 6.75487 8.19763 6.75487H14.337Z" fill="#1AD1DB"/></svg>