<svg width="12" height="12" viewBox="0 0 12 12" fill="none" xmlns="http://www.w3.org/2000/svg">
<path fill-rule="evenodd" clip-rule="evenodd" d="M8.3754 2.51156C6.75775 0.887963 4.13759 0.887963 2.51993 2.51223L2.51839 2.51377C0.895248 4.13097 0.89408 6.75175 2.51987 8.37754C4.13719 9.99486 6.75901 9.99609 8.38498 8.37693C10.0022 6.75906 10.002 4.13816 8.38438 2.52054C8.383 2.51916 8.38164 2.51778 8.38028 2.5164C8.37865 2.5148 8.37702 2.51318 8.3754 2.51156ZM9.17574 1.72095C9.17461 1.7198 9.17349 1.71866 9.17235 1.71752C7.11526 -0.347129 3.78099 -0.347385 1.72359 1.71758C-0.340997 3.77544 -0.339573 7.10909 1.72438 9.17304C3.78199 11.2307 7.11503 11.2295 9.17906 9.17385L9.17987 9.17304C11.237 7.11587 11.237 3.78221 9.17987 1.72504C9.1785 1.72367 9.17712 1.7223 9.17574 1.72095Z" fill="#545A78"/>
<path fill-rule="evenodd" clip-rule="evenodd" d="M8.38438 8.38504C8.60405 8.16537 8.9602 8.16537 9.17987 8.38504L11.6474 10.8525C11.867 11.0722 11.867 11.4284 11.6474 11.648C11.4277 11.8677 11.0715 11.8677 10.8519 11.648L8.38438 9.18054C8.16471 8.96087 8.16471 8.60471 8.38438 8.38504Z" fill="#545A78"/>
</svg>
