<svg width="114" height="40" viewBox="0 0 114 40" fill="none" xmlns="http://www.w3.org/2000/svg">
<path d="M88.0018 5.93837C88.4252 5.81788 88.9169 5.88843 89.2556 6.18153C89.8168 6.65264 89.8006 7.64916 89.2046 8.08554C88.5989 8.54797 87.5579 8.37212 87.2517 7.63722C86.9445 6.99241 87.293 6.12074 88.0018 5.93837Z" fill="#E5E6EC"/>
<path d="M51.7651 6.91011C52.8995 6.91336 54.0339 6.90251 55.1693 6.91554C56.1474 6.95136 57.2199 7.13915 57.9309 7.87188C58.9947 8.98889 58.7038 11.0872 57.297 11.7906C58.0406 12.024 58.7277 12.5516 58.9795 13.3115C59.3378 14.4002 59.0957 15.7289 58.2186 16.5072C57.4229 17.2194 56.3178 17.4451 55.2801 17.4712C54.1088 17.4766 52.9364 17.4723 51.7651 17.4734C51.7651 13.9519 51.764 10.4316 51.7651 6.91011ZM53.528 8.47761C53.5291 9.36882 53.5269 10.259 53.5291 11.1502C54.416 11.1219 55.3582 11.2609 56.1908 10.8799C56.7922 10.6074 56.9311 9.82692 56.7434 9.25159C56.6098 8.85537 56.1952 8.65998 55.8141 8.57856C55.063 8.4179 54.2901 8.49606 53.528 8.47761ZM53.5291 12.7177C53.528 13.7804 53.5302 14.8431 53.528 15.9059C54.5669 15.8657 55.6806 16.0611 56.6467 15.5759C57.3545 15.2318 57.5434 14.2939 57.2731 13.6089C57.0907 13.1758 56.6359 12.9478 56.2017 12.8447C55.3257 12.6395 54.4192 12.7426 53.5291 12.7177Z" fill="#E5E6EC"/>
<path d="M95.8573 9.49777C97.5572 8.9105 99.5003 9.31757 100.934 10.3673C100.634 10.7711 100.331 11.1717 100.026 11.5722C99.1529 10.9274 98.0413 10.5844 96.958 10.7385C96.6627 10.7863 96.3457 10.8731 96.1417 11.1076C95.9376 11.3367 95.9278 11.7502 96.1927 11.9391C96.5433 12.191 96.9743 12.2919 97.3857 12.4005C98.2823 12.6111 99.2061 12.7739 100.039 13.1886C100.479 13.4057 100.895 13.7357 101.087 14.2014C101.376 14.9145 101.277 15.7906 100.776 16.3854C100.269 17.0118 99.4829 17.3353 98.7068 17.4677C96.946 17.7651 95.0985 17.2549 93.6699 16.2009C93.9598 15.7851 94.2463 15.3683 94.534 14.9504C95.6564 15.8253 97.1436 16.2421 98.5526 15.9903C98.9868 15.9035 99.5111 15.6039 99.4612 15.0904C99.4558 14.6953 99.0422 14.514 98.7306 14.3902C97.5268 13.9441 96.1536 13.9354 95.0768 13.1701C94.4591 12.7674 94.115 11.9988 94.2507 11.2694C94.3614 10.415 95.0692 9.76264 95.8573 9.49777Z" fill="#E5E6EC"/>
<path d="M64.2082 10.2144C65.1537 9.35362 66.6126 9.07247 67.7871 9.60655C68.0987 9.74116 68.3755 9.93872 68.6458 10.1395C68.6751 9.9333 68.7055 9.72813 68.7359 9.52297C69.2255 9.52188 69.715 9.52188 70.2057 9.52188C70.2068 12.1727 70.2057 14.8225 70.2057 17.4734C69.702 17.4744 69.1994 17.4734 68.6957 17.4734C68.6686 17.2237 68.6414 16.9729 68.6165 16.7233C68.0802 17.1596 67.455 17.5103 66.7657 17.6232C65.6834 17.7816 64.5013 17.4028 63.7957 16.5452C63.0781 15.6909 62.8426 14.5381 62.8523 13.4482C62.8589 12.252 63.2952 11.0188 64.2082 10.2144ZM64.688 12.9565C64.5903 13.788 64.6663 14.702 65.1613 15.4054C65.564 15.9786 66.3325 16.1979 66.999 16.0492C67.5733 15.933 68.0455 15.552 68.4417 15.1395C68.4406 13.9649 68.4428 12.7893 68.4406 11.6148C67.8544 11.0894 67.0349 10.742 66.2468 10.9678C65.3599 11.2012 64.7987 12.0848 64.688 12.9565Z" fill="#E5E6EC"/>
<path d="M76.1859 9.62941C77.8978 9.00632 79.8745 9.41231 81.3248 10.4761C81.0241 10.8789 80.7191 11.2794 80.4184 11.6821C79.4902 10.9863 78.269 10.6411 77.1227 10.8908C76.7363 10.9635 76.327 11.2718 76.3878 11.7093C76.4443 12.0784 76.8502 12.214 77.1542 12.3269C78.3971 12.7362 79.7888 12.797 80.8862 13.5742C81.5886 14.0594 81.785 15.0288 81.5397 15.8115C81.3454 16.4237 80.8558 16.9035 80.2914 17.189C79.5087 17.5852 78.6099 17.6905 77.7425 17.6493C76.4171 17.5841 75.134 17.0848 74.0615 16.3119C74.3481 15.8918 74.6412 15.4761 74.9267 15.056C76.0415 15.9309 77.52 16.3423 78.9225 16.1013C79.373 16.0199 79.9147 15.7105 79.8528 15.1786C79.8344 14.7824 79.4143 14.6163 79.1016 14.4882C77.8967 14.0518 76.5235 14.0366 75.4521 13.2648C74.8778 12.8751 74.5337 12.1761 74.6303 11.4824C74.6955 10.6086 75.3902 9.91273 76.1859 9.62941Z" fill="#E5E6EC"/>
<path d="M84.1956 10.9328C84.1946 10.4259 84.1946 9.92003 84.1956 9.41309C85.9368 9.41417 87.678 9.41309 89.4192 9.41417C89.4192 12.0639 89.4192 14.7148 89.4192 17.3646C88.8308 17.3646 88.2436 17.3646 87.6552 17.3646C87.6541 15.2206 87.6552 13.0767 87.6552 10.9339C86.5013 10.9328 85.3485 10.9339 84.1956 10.9328Z" fill="#E5E6EC"/>
<path d="M51.7646 21.8511C54.0128 21.8468 56.2609 21.85 58.509 21.85C58.509 25.6418 58.509 29.4346 58.509 33.2274C57.9207 33.2274 57.3334 33.2274 56.745 33.2264C56.744 29.9611 56.745 26.6958 56.745 23.4306C55.0853 23.4295 53.4255 23.4317 51.7657 23.4306C51.7646 22.9041 51.7657 22.3776 51.7646 21.8511Z" fill="#E5E6EC"/>
<path d="M63.3609 21.85C63.9493 21.8489 64.5366 21.85 65.1249 21.8489C65.1108 23.3176 65.1618 24.7874 65.075 26.2539C65.6948 25.6775 66.4677 25.2162 67.3275 25.1489C68.1546 25.0794 69.0741 25.252 69.6657 25.8783C70.2877 26.5221 70.444 27.461 70.4549 28.324C70.4603 29.974 70.4559 31.624 70.457 33.274C69.8665 33.2751 69.276 33.274 68.6865 33.274C68.6855 31.6609 68.6876 30.0479 68.6855 28.4348C68.6735 27.9778 68.6225 27.4784 68.3185 27.1137C67.9972 26.7446 67.4599 26.7066 67.0051 26.7424C66.2278 26.8173 65.6449 27.3981 65.1238 27.9235C65.126 29.707 65.1249 31.4905 65.1238 33.274C64.5355 33.2751 63.9482 33.274 63.3599 33.2751C63.3609 29.466 63.3599 25.658 63.3609 21.85Z" fill="#E5E6EC"/>
<path d="M75.1401 26.4701C76.2973 25.1555 78.3435 24.768 79.9186 25.5127C80.7088 25.8698 81.3157 26.5787 81.5946 27.395C81.8704 28.1972 81.8964 29.0743 81.7303 29.9036C79.7905 29.9025 77.8517 29.9015 75.913 29.9036C76.0281 30.6331 76.4492 31.3376 77.1396 31.6492C78.3619 32.2549 79.8404 31.9303 80.9086 31.1531C81.1387 31.5721 81.3721 31.9889 81.6044 32.4069C80.7544 32.993 79.7612 33.4131 78.7191 33.4555C77.538 33.5304 76.2962 33.2123 75.406 32.4058C73.7669 30.9251 73.6833 28.1038 75.1401 26.4701ZM76.9616 26.989C76.4449 27.3038 76.1236 27.8487 75.9683 28.4219C77.3687 28.4262 78.769 28.4241 80.1704 28.423C80.0857 27.8542 79.8589 27.256 79.3508 26.938C78.6377 26.4918 77.6618 26.5374 76.9616 26.989Z" fill="#E5E6EC"/>
<path d="M88.1068 25.2434C89.3204 24.9568 90.6806 25.2347 91.6283 26.063C93.4552 27.6728 93.4639 30.9305 91.625 32.5349C90.1661 33.806 87.754 33.7593 86.3569 32.4133C84.9924 31.1117 84.796 28.8994 85.5819 27.2418C86.0649 26.2388 87.0202 25.4865 88.1068 25.2434ZM88.4336 26.774C87.9842 26.9097 87.5966 27.2201 87.3545 27.6207C86.9486 28.2796 86.865 29.0905 86.9594 29.846C87.0484 30.5212 87.3567 31.2149 87.9472 31.5937C88.7267 32.0952 89.8675 31.9975 90.508 31.3104C91.0128 30.7785 91.1962 30.0164 91.1919 29.3C91.1908 28.5575 90.9965 27.7629 90.4483 27.231C89.9316 26.7121 89.1218 26.5688 88.4336 26.774Z" fill="#E5E6EC"/>
<path d="M96.2905 25.3271C98.3899 25.3173 100.489 25.326 102.588 25.3227C102.588 25.8275 102.588 26.3312 102.588 26.836C101.077 26.837 99.5666 26.836 98.0567 26.837C98.0545 28.982 98.0578 31.1281 98.0545 33.2742C97.4672 33.2753 96.8789 33.2753 96.2916 33.2742C96.2916 30.6255 96.2927 27.9768 96.2905 25.3271Z" fill="#E5E6EC"/>
<path d="M104.936 25.3247C105.547 25.3214 106.158 25.3225 106.769 25.3236C107.632 27.3003 108.523 29.2641 109.359 31.2527C110.076 29.2597 110.876 27.2982 111.643 25.3236C112.229 25.3214 112.816 25.3236 113.404 25.3225C112.418 27.7367 111.431 30.1509 110.446 32.5651C109.978 33.6431 109.661 34.8567 108.758 35.673C107.847 36.5306 106.44 36.6825 105.297 36.2473C105.423 35.7512 105.552 35.2572 105.681 34.7633C106.248 34.9663 106.916 35.0228 107.445 34.6895C108.029 34.3302 108.296 33.6626 108.52 33.046C107.322 30.4744 106.129 27.8985 104.936 25.3247Z" fill="#E5E6EC"/>
<rect width="40" height="40" fill="#1E233B"/>
<path d="M15 11.4738C18.3588 11.4673 21.7176 11.4722 25.0763 11.4722C25.0763 17.1372 25.0763 22.8038 25.0763 28.4705C24.1973 28.4705 23.3199 28.4705 22.4409 28.4688C22.4393 23.5904 22.4409 18.712 22.4409 13.8336C19.9611 13.832 17.4814 13.8352 15.0016 13.8336C15 13.047 15.0016 12.2604 15 11.4738Z" fill="#1AD1DB"/>
</svg>
