<svg width="162" height="162" viewBox="0 0 162 162" fill="none" xmlns="http://www.w3.org/2000/svg">
  <mask id="mask0_1202_12436" style="mask-type:alpha" maskUnits="userSpaceOnUse" x="-1" y="-1" width="165" height="165">
    <rect x="-0.0065918" y="-0.00634766" width="163.012" height="163.012" fill="url(#paint0_linear_1202_12436)"/>
  </mask>
  <g mask="url(#mask0_1202_12436)">
    <rect width="4.20281" height="7.43574" transform="matrix(0 1 1 0 62.4255 100.574)" stroke="#E5E6F5" stroke-width="1.2075"/>
    <rect width="7.43574" height="7.43574" transform="matrix(0 1 1 0 62.4255 104.777)" stroke="#E5E6F5" stroke-width="1.2075"/>
    <rect width="11.6386" height="11.6386" transform="matrix(0 1 1 0 69.8613 100.574)" stroke="#E5E6F5" stroke-width="1.2075"/>
    <rect width="19.0743" height="19.0743" transform="matrix(0 1 1 0 62.4255 81.5)" stroke="#E5E6F5" stroke-width="1.2075"/>
    <rect width="30.7129" height="30.7129" transform="matrix(0 1 1 0 31.7126 81.5)" stroke="#E5E6F5" stroke-width="1.2075"/>
    <rect width="49.7871" height="49.7871" transform="matrix(0 1 1 0 31.7126 112.213)" stroke="#E5E6F5" stroke-width="1.2075"/>
    <rect width="80.5" height="30.7129" transform="matrix(0 1 1 0 1 81.5)" stroke="#E5E6F5" stroke-width="1.2075"/>
    <rect width="4.20281" height="7.43574" transform="matrix(-1 0 0 1 62.4255 62.4257)" stroke="#E5E6F5" stroke-width="1.2075"/>
    <rect width="7.43574" height="7.43574" transform="matrix(-1 0 0 1 58.2231 62.4257)" stroke="#E5E6F5" stroke-width="1.2075"/>
    <rect width="11.6386" height="11.6386" transform="matrix(-1 0 0 1 62.4255 69.8615)" stroke="#E5E6F5" stroke-width="1.2075"/>
    <rect width="19.0743" height="19.0743" transform="matrix(-1 0 0 1 81.5 62.4257)" stroke="#E5E6F5" stroke-width="1.2075"/>
    <rect width="30.7129" height="30.7129" transform="matrix(-1 0 0 1 81.5 31.7129)" stroke="#E5E6F5" stroke-width="1.2075"/>
    <rect width="49.7871" height="49.7871" transform="matrix(-1 0 0 1 50.7874 31.7129)" stroke="#E5E6F5" stroke-width="1.2075"/>
    <rect width="80.5" height="30.7129" transform="matrix(-1 0 0 1 81.5 1)" stroke="#E5E6F5" stroke-width="1.2075"/>
    <rect width="4.20281" height="7.43574" transform="matrix(1 0 0 -1 100.574 100.574)" stroke="#E5E6F5" stroke-width="1.2075"/>
    <rect width="7.43574" height="7.43574" transform="matrix(1 0 0 -1 104.777 100.574)" stroke="#E5E6F5" stroke-width="1.2075"/>
    <rect width="11.6386" height="11.6386" transform="matrix(1 0 0 -1 100.574 93.1385)" stroke="#E5E6F5" stroke-width="1.2075"/>
    <rect width="19.0743" height="19.0743" transform="matrix(1 0 0 -1 81.5 100.574)" stroke="#E5E6F5" stroke-width="1.2075"/>
    <rect width="30.7129" height="30.7129" transform="matrix(1 0 0 -1 81.5 131.287)" stroke="#E5E6F5" stroke-width="1.2075"/>
    <rect width="49.7871" height="49.7871" transform="matrix(1 0 0 -1 112.213 131.287)" stroke="#E5E6F5" stroke-width="1.2075"/>
    <rect width="80.5" height="30.7129" transform="matrix(1 0 0 -1 81.5 162)" stroke="#E5E6F5" stroke-width="1.2075"/>
    <rect width="4.20281" height="7.43574" transform="matrix(0 -1 -1 0 100.574 62.4257)" stroke="#E5E6F5" stroke-width="1.2075"/>
    <rect width="7.43574" height="7.43574" transform="matrix(0 -1 -1 0 100.574 58.2229)" stroke="#E5E6F5" stroke-width="1.2075"/>
    <rect width="11.6386" height="11.6386" transform="matrix(0 -1 -1 0 93.1387 62.4257)" stroke="#E5E6F5" stroke-width="1.2075"/>
    <rect width="19.0743" height="19.0743" transform="matrix(0 -1 -1 0 100.574 81.5)" stroke="#E5E6F5" stroke-width="1.2075"/>
    <rect width="30.7129" height="30.7129" transform="matrix(0 -1 -1 0 131.287 81.5)" stroke="#E5E6F5" stroke-width="1.2075"/>
    <rect width="49.7871" height="49.7871" transform="matrix(0 -1 -1 0 131.287 50.7871)" stroke="#E5E6F5" stroke-width="1.2075"/>
    <rect width="80.5" height="30.7129" transform="matrix(0 -1 -1 0 162 81.5)" stroke="#E5E6F5" stroke-width="1.2075"/>
    <rect x="-0.100625" y="0.100625" width="161.201" height="161.201" transform="matrix(1 0 0 -1 1 162.201)" stroke="#E5E6F5" stroke-width="0.20125"/>
  </g>
  <rect x="100" y="50" width="32" height="32" rx="0.8" fill="#1AD1DB"/>
  <path fill-rule="evenodd" clip-rule="evenodd" d="M119.764 72.0993H118.229V61.2769H112.235V59.964H119.764V72.0993Z" fill="#0C0E19"/>
  <rect x="69" y="81" width="32" height="32" rx="0.8" fill="#61DAFB"/>
  <g clip-path="url(#clip0_1202_12436)">
    <path fill-rule="evenodd" clip-rule="evenodd" d="M83.182 91.7943C82.6379 91.5476 82.2976 91.5745 82.1035 91.6889L82.0991 91.6915C81.939 91.7838 81.7844 91.9817 81.6976 92.3712C81.6107 92.7614 81.6066 93.2892 81.7061 93.9322C81.7519 94.2286 81.8188 94.5435 81.9064 94.8729C81.92 94.9019 81.931 94.9325 81.9393 94.9646C81.9462 94.9913 81.951 95.0181 81.9536 95.0448C82.0534 95.3971 82.176 95.7648 82.3211 96.1432C82.3925 96.0112 82.466 95.8788 82.5415 95.7458L82.543 95.743C82.8041 95.2892 83.0783 94.8559 83.3611 94.4472C83.3836 94.4028 83.4123 94.3618 83.4461 94.3255C83.8343 93.7746 84.2379 93.2701 84.6456 92.8221C84.1172 92.338 83.6174 91.9918 83.182 91.7943ZM85.3839 92.0767C84.7892 91.5275 84.1877 91.0992 83.615 90.8395C82.9384 90.5326 82.1963 90.4183 81.5731 90.7845C81.074 91.0734 80.7994 91.5816 80.6742 92.1432C80.5491 92.705 80.5588 93.3741 80.6699 94.0925C80.702 94.2996 80.7428 94.5131 80.7922 94.7321C80.0243 94.9697 79.3586 95.2733 78.8508 95.6365C78.243 96.0712 77.7761 96.6578 77.7761 97.3814C77.7761 97.957 78.0785 98.4485 78.5014 98.8374C78.9239 99.226 79.5065 99.5523 80.1826 99.8156C80.3771 99.8914 80.5815 99.9628 80.795 100.03C80.6162 100.817 80.5454 101.55 80.6059 102.174C80.6778 102.915 80.9498 103.612 81.5754 103.973L81.576 103.973C82.0748 104.259 82.6516 104.242 83.1997 104.07C83.7475 103.898 84.3214 103.556 84.8877 103.102C85.0502 102.971 85.2138 102.83 85.378 102.679C85.972 103.228 86.5721 103.656 87.144 103.916C87.8216 104.224 88.5628 104.337 89.1885 103.971C89.6865 103.682 89.9601 103.174 90.0848 102.612C90.2095 102.051 90.2001 101.382 90.0894 100.664C90.0583 100.461 90.0187 100.253 89.9709 100.039C90.739 99.7983 91.407 99.4922 91.9169 99.1268C92.5232 98.6922 92.9928 98.1058 92.9928 97.3814C92.9928 96.8044 92.6904 96.3116 92.2667 95.9215C91.8434 95.5318 91.2599 95.2048 90.5829 94.941C90.3877 94.865 90.1826 94.7933 89.9684 94.7264C90.1457 93.9405 90.2145 93.2106 90.1533 92.5884C90.0806 91.8483 89.8089 91.1519 89.1882 90.7911L89.1867 90.7903C88.6867 90.5019 88.1086 90.5176 87.5589 90.6897C87.0098 90.8617 86.4352 91.2039 85.8688 91.6586C85.7081 91.7877 85.5462 91.9273 85.3839 92.0767ZM88.9537 94.4595C89.1076 93.7646 89.1564 93.1637 89.1099 92.691C89.0517 92.0986 88.859 91.8129 88.6621 91.6981C88.5015 91.6058 88.2524 91.5712 87.8722 91.6903C87.4908 91.8097 87.0318 92.0694 86.5252 92.4762C86.008 92.8915 85.4642 93.4414 84.929 94.1011C85.0781 94.0978 85.2288 94.0962 85.381 94.0962C85.9053 94.0962 86.4184 94.1178 86.9144 94.1592C86.952 94.1584 86.9896 94.1617 87.0265 94.1689C87.707 94.23 88.3543 94.3285 88.9537 94.4595ZM86.637 95.1892C86.2309 95.16 85.8111 95.1447 85.381 95.1447C84.9474 95.1447 84.5291 95.1586 84.1257 95.1864C83.8951 95.5272 83.6697 95.8872 83.4527 96.2644C83.2353 96.6476 83.0391 97.018 82.8628 97.3882C83.0404 97.7539 83.2368 98.1244 83.4515 98.4962C83.6665 98.8697 83.8903 99.2279 84.1222 99.5663C84.529 99.5957 84.9497 99.6111 85.381 99.6111C85.8107 99.6111 86.2327 99.5922 86.6438 99.5619C86.8717 99.2253 87.0946 98.87 87.3095 98.498C87.5259 98.1162 87.7228 97.7403 87.9001 97.37C87.7224 97.0039 87.5259 96.6327 87.3109 96.2603C87.0913 95.883 86.8667 95.5286 86.637 95.1892ZM88.4416 98.617C88.37 98.7499 88.2963 98.8832 88.2205 99.017L88.2185 99.0205C87.5744 100.136 86.8518 101.127 86.1165 101.934C86.6446 102.418 87.1431 102.764 87.5776 102.962C88.1194 103.208 88.4613 103.182 88.6601 103.066L88.6618 103.065C88.8204 102.973 88.9746 102.775 89.0613 102.385C89.1481 101.994 89.1522 101.466 89.0532 100.823C88.9517 100.165 88.7465 99.4147 88.4416 98.617ZM85.8352 100.653C85.6852 100.657 85.5338 100.66 85.381 100.66C84.8565 100.66 84.3435 100.638 83.8476 100.597C83.8099 100.597 83.7722 100.594 83.7353 100.587C83.0552 100.526 82.4084 100.427 81.8096 100.296C81.6539 100.995 81.6035 101.598 81.6495 102.072C81.7069 102.664 81.8994 102.949 82.0985 103.064C82.2568 103.155 82.5047 103.189 82.8852 103.07C83.2662 102.95 83.725 102.69 84.2317 102.284C84.7508 101.867 85.2972 101.316 85.8352 100.653ZM82.7752 99.4119C82.6966 99.2828 82.6193 99.1521 82.5432 99.0199C81.8997 97.9053 81.4022 96.7845 81.0695 95.7439C80.3908 95.9567 79.8465 96.2134 79.4607 96.4893C78.9763 96.8357 78.8246 97.1474 78.8246 97.3814C78.8246 97.5642 78.918 97.7961 79.2111 98.0657C79.5046 98.3357 79.9583 98.6031 80.5631 98.8387C81.1826 99.08 81.9331 99.2772 82.7752 99.4119ZM87.9841 95.3434C88.8283 95.4782 89.581 95.6759 90.2023 95.9179C90.8079 96.1539 91.2624 96.422 91.5565 96.6928C91.8501 96.9632 91.9443 97.1964 91.9443 97.3814C91.9443 97.6146 91.7919 97.9264 91.306 98.2746C90.9186 98.5523 90.373 98.811 89.6956 99.0264C89.3636 97.9816 88.8651 96.8554 88.2185 95.7353L88.2175 95.7337C88.1402 95.6009 88.0624 95.4709 87.9841 95.3434Z" fill="white"/>
    <path fill-rule="evenodd" clip-rule="evenodd" d="M85.3165 96.6772C85.3173 96.6771 85.3181 96.6771 85.3189 96.677C85.54 96.66 85.7258 96.7541 85.8461 96.8711C85.913 96.9362 85.9713 97.0194 86.0097 97.116C86.0581 97.1954 86.086 97.2886 86.086 97.3884C86.086 97.4609 86.0713 97.5299 86.0447 97.5927C85.9539 97.8699 85.694 98.0804 85.373 98.0804C85.3606 98.0804 85.3481 98.08 85.3357 98.0791C84.9847 98.054 84.6741 97.768 84.6741 97.3744C84.6741 97.0169 84.9471 96.7031 85.3165 96.6772Z" fill="white"/>
  </g>
  <g filter="url(#filter0_d_1202_12436)">
    <rect x="93" y="74" width="14" height="14" rx="7" fill="white"/>
    <path d="M102 80.6666H100.333V79C100.333 78.8133 100.183 78.6666 100 78.6666C99.8133 78.6666 99.6667 78.8133 99.6667 79V80.6666H98H97.9967C97.81 80.6666 97.6633 80.8133 97.6633 81C97.6633 81.1833 97.81 81.3333 97.9967 81.33H99.6633V82.9966C99.6633 83.18 99.81 83.3266 99.9967 83.3266C100.18 83.3233 100.327 83.1766 100.327 82.99V81.3233H101.993L101.99 81.323C102.173 81.323 102.333 81.1833 102.333 81C102.333 80.8133 102.183 80.67 102 80.6666Z" fill="#009FA9"/>
  </g>
  <defs>
    <filter id="filter0_d_1202_12436" x="89" y="72" width="22" height="22" filterUnits="userSpaceOnUse" color-interpolation-filters="sRGB">
      <feFlood flood-opacity="0" result="BackgroundImageFix"/>
      <feColorMatrix in="SourceAlpha" type="matrix" values="0 0 0 0 0 0 0 0 0 0 0 0 0 0 0 0 0 0 127 0" result="hardAlpha"/>
      <feOffset dy="2"/>
      <feGaussianBlur stdDeviation="2"/>
      <feComposite in2="hardAlpha" operator="out"/>
      <feColorMatrix type="matrix" values="0 0 0 0 0 0 0 0 0 0 0 0 0 0 0 0 0 0 0.25 0"/>
      <feBlend mode="normal" in2="BackgroundImageFix" result="effect1_dropShadow_1202_12436"/>
      <feBlend mode="normal" in="SourceGraphic" in2="effect1_dropShadow_1202_12436" result="shape"/>
    </filter>
    <linearGradient id="paint0_linear_1202_12436" x1="163.006" y1="-0.00635472" x2="49.9998" y2="107.5" gradientUnits="userSpaceOnUse">
      <stop/>
      <stop offset="1" stop-opacity="0"/>
    </linearGradient>
    <clipPath id="clip0_1202_12436">
      <rect width="16.7754" height="16.7754" fill="white" transform="translate(77.0002 89)"/>
    </clipPath>
  </defs>
</svg>
