<svg width="42" height="28" viewBox="0 0 42 28" fill="none" xmlns="http://www.w3.org/2000/svg">
<rect x="0.5" y="0.5" width="41" height="27" rx="2.5" fill="#7572FF" fill-opacity="0.2"/>
<path d="M14.038 14.128L13.716 15.248H16.054L15.732 14.128C15.5827 13.6427 15.438 13.1433 15.298 12.63C15.1673 12.1167 15.0367 11.608 14.906 11.104H14.85C14.7193 11.6173 14.5887 12.1307 14.458 12.644C14.3273 13.148 14.1873 13.6427 14.038 14.128ZM10.972 19L13.954 9.844H15.858L18.84 19H17.132L16.418 16.522H13.338L12.624 19H10.972ZM19.9686 19V9.844H22.8526C23.3566 9.844 23.8233 9.89067 24.2526 9.984C24.6913 10.0773 25.0693 10.236 25.3866 10.46C25.704 10.684 25.9513 10.978 26.1286 11.342C26.306 11.6967 26.3946 12.14 26.3946 12.672C26.3946 13.176 26.306 13.6147 26.1286 13.988C25.9513 14.3613 25.704 14.674 25.3866 14.926C25.0786 15.1687 24.71 15.3507 24.2806 15.472C23.8606 15.584 23.4033 15.64 22.9086 15.64H21.5926V19H19.9686ZM21.5926 14.338H22.7826C24.1266 14.338 24.7986 13.7827 24.7986 12.672C24.7986 12.0933 24.6213 11.6967 24.2666 11.482C23.9213 11.258 23.408 11.146 22.7266 11.146H21.5926V14.338ZM28.1171 19V9.844H29.7411V19H28.1171Z" fill="#5F7BFF"/>
<rect x="0.5" y="0.5" width="41" height="27" rx="2.5" stroke="url(#paint0_linear)"/>
<defs>
<linearGradient id="paint0_linear" x1="0.999998" y1="-1.5" x2="41" y2="27" gradientUnits="userSpaceOnUse">
<stop stop-color="#7572FF" stop-opacity="0.4"/>
<stop offset="1" stop-color="#7572FF" stop-opacity="0.16"/>
</linearGradient>
</defs>
</svg>
