<svg width="64" height="32" viewBox="0 0 64 32" fill="none" xmlns="http://www.w3.org/2000/svg">
<rect width="64" height="32" rx="2" fill="#070A1B"/>
<rect width="64" height="32" rx="2" fill="#1AB8DB" fill-opacity="0.15"/>
<path d="M21.416 16.38L21.206 17.22H23.124L22.914 16.38C22.7927 15.9227 22.6667 15.442 22.536 14.938C22.4053 14.4247 22.2887 13.9253 22.186 13.44H22.13C22.018 13.9253 21.9013 14.4247 21.78 14.938C21.6587 15.442 21.5373 15.9227 21.416 16.38ZM18.126 21L20.968 11.872H23.432L26.274 21H24.09L23.544 18.83H20.786L20.226 21H18.126ZM28.4445 21V11.872H31.6785C32.1732 11.872 32.6352 11.9233 33.0645 12.026C33.5032 12.1193 33.8812 12.2827 34.1985 12.516C34.5252 12.74 34.7819 13.0433 34.9685 13.426C35.1552 13.7993 35.2485 14.2613 35.2485 14.812C35.2485 15.344 35.1505 15.806 34.9545 16.198C34.7679 16.59 34.5112 16.912 34.1845 17.164C33.8579 17.416 33.4799 17.6027 33.0505 17.724C32.6212 17.8453 32.1639 17.906 31.6785 17.906H30.5025V21H28.4445ZM30.5025 16.268H31.5525C32.6725 16.268 33.2325 15.7827 33.2325 14.812C33.2325 14.336 33.0879 14 32.7985 13.804C32.5185 13.608 32.1032 13.51 31.5525 13.51H30.5025V16.268ZM37.8251 21V19.264H39.9531V13.608H37.8251V11.872H44.1531V13.608H42.0251V19.264H44.1531V21H37.8251Z" fill="#1AD1DB"/>
</svg>
