<svg width="56" height="28" viewBox="0 0 56 28" fill="none" xmlns="http://www.w3.org/2000/svg">
<rect x="0.5" y="0.5" width="55" height="27" rx="2.5" fill="#1AD1DB" fill-opacity="0.15"/>
<path d="M12.162 19V9.844H14.612C16.012 9.844 17.104 10.222 17.888 10.978C18.672 11.734 19.064 12.868 19.064 14.38C19.064 15.136 18.9613 15.8033 18.756 16.382C18.56 16.9607 18.2707 17.446 17.888 17.838C17.5147 18.2207 17.0573 18.51 16.516 18.706C15.984 18.902 15.3773 19 14.696 19H12.162ZM13.786 17.684H14.5C15.4333 17.684 16.1473 17.418 16.642 16.886C17.146 16.3447 17.398 15.5093 17.398 14.38C17.398 13.26 17.146 12.4433 16.642 11.93C16.138 11.4167 15.424 11.16 14.5 11.16H13.786V17.684ZM24.468 19.168C23.8707 19.168 23.3247 19.0607 22.83 18.846C22.3353 18.622 21.9107 18.3047 21.556 17.894C21.2013 17.474 20.926 16.97 20.73 16.382C20.534 15.794 20.436 15.1267 20.436 14.38C20.436 13.6427 20.534 12.9847 20.73 12.406C20.926 11.818 21.2013 11.3233 21.556 10.922C21.9107 10.5207 22.3353 10.2127 22.83 9.998C23.3247 9.78333 23.8707 9.676 24.468 9.676C25.0653 9.676 25.6113 9.78333 26.106 9.998C26.6007 10.2127 27.0253 10.5207 27.38 10.922C27.744 11.3233 28.024 11.818 28.22 12.406C28.416 12.9847 28.514 13.6427 28.514 14.38C28.514 15.1267 28.416 15.794 28.22 16.382C28.024 16.97 27.744 17.474 27.38 17.894C27.0253 18.3047 26.6007 18.622 26.106 18.846C25.6113 19.0607 25.0653 19.168 24.468 19.168ZM24.468 17.754C24.832 17.754 25.1587 17.6747 25.448 17.516C25.7373 17.3573 25.9847 17.1333 26.19 16.844C26.3953 16.5453 26.554 16.1907 26.666 15.78C26.778 15.36 26.834 14.8933 26.834 14.38C26.834 13.3533 26.6193 12.5507 26.19 11.972C25.77 11.384 25.196 11.09 24.468 11.09C23.74 11.09 23.1613 11.384 22.732 11.972C22.312 12.5507 22.102 13.3533 22.102 14.38C22.102 14.8933 22.158 15.36 22.27 15.78C22.382 16.1907 22.5407 16.5453 22.746 16.844C22.9513 17.1333 23.1987 17.3573 23.488 17.516C23.7773 17.6747 24.104 17.754 24.468 17.754ZM33.9996 19.168C33.4209 19.168 32.8796 19.0653 32.3756 18.86C31.8716 18.6547 31.4329 18.3513 31.0596 17.95C30.6956 17.5487 30.4063 17.054 30.1916 16.466C29.9769 15.878 29.8696 15.206 29.8696 14.45C29.8696 13.7033 29.9769 13.036 30.1916 12.448C30.4156 11.8507 30.7143 11.3467 31.0876 10.936C31.4703 10.5253 31.9136 10.2127 32.4176 9.998C32.9309 9.78333 33.4769 9.676 34.0556 9.676C34.6343 9.676 35.1476 9.79267 35.5956 10.026C36.0436 10.2593 36.4123 10.53 36.7016 10.838L35.8336 11.888C35.5909 11.6453 35.3296 11.454 35.0496 11.314C34.7696 11.1647 34.4523 11.09 34.0976 11.09C33.7243 11.09 33.3789 11.1693 33.0616 11.328C32.7536 11.4773 32.4829 11.6967 32.2496 11.986C32.0256 12.266 31.8483 12.6113 31.7176 13.022C31.5963 13.4327 31.5356 13.8947 31.5356 14.408C31.5356 15.4533 31.7596 16.2747 32.2076 16.872C32.6649 17.46 33.2809 17.754 34.0556 17.754C34.4663 17.754 34.8303 17.67 35.1476 17.502C35.4649 17.3247 35.7543 17.096 36.0156 16.816L36.8836 17.838C36.5103 18.2673 36.0809 18.5987 35.5956 18.832C35.1196 19.056 34.5876 19.168 33.9996 19.168ZM40.7169 19.168C40.1009 19.168 39.5035 19.0513 38.9249 18.818C38.3555 18.5847 37.8515 18.2533 37.4129 17.824L38.3649 16.718C38.6915 17.026 39.0649 17.278 39.4849 17.474C39.9049 17.6607 40.3249 17.754 40.7449 17.754C41.2675 17.754 41.6642 17.6467 41.9349 17.432C42.2055 17.2173 42.3409 16.9327 42.3409 16.578C42.3409 16.3913 42.3035 16.2327 42.2289 16.102C42.1635 15.9713 42.0655 15.8593 41.9349 15.766C41.8135 15.6633 41.6642 15.57 41.4869 15.486C41.3189 15.402 41.1322 15.318 40.9269 15.234L39.6669 14.688C39.4429 14.5947 39.2189 14.478 38.9949 14.338C38.7802 14.198 38.5842 14.03 38.4069 13.834C38.2295 13.638 38.0849 13.4093 37.9729 13.148C37.8702 12.8867 37.8189 12.588 37.8189 12.252C37.8189 11.888 37.8935 11.552 38.0429 11.244C38.2015 10.9267 38.4162 10.6513 38.6869 10.418C38.9575 10.1847 39.2795 10.0027 39.6529 9.872C40.0355 9.74133 40.4509 9.676 40.8989 9.676C41.4309 9.676 41.9442 9.78333 42.4389 9.998C42.9335 10.2033 43.3582 10.4833 43.7129 10.838L42.8869 11.874C42.5882 11.6313 42.2802 11.44 41.9629 11.3C41.6455 11.16 41.2909 11.09 40.8989 11.09C40.4602 11.09 40.1102 11.188 39.8489 11.384C39.5875 11.5707 39.4569 11.832 39.4569 12.168C39.4569 12.3453 39.4942 12.4993 39.5689 12.63C39.6529 12.7513 39.7602 12.8633 39.8909 12.966C40.0309 13.0593 40.1895 13.148 40.3669 13.232C40.5442 13.3067 40.7262 13.3813 40.9129 13.456L42.1589 13.974C42.4295 14.086 42.6769 14.2167 42.9009 14.366C43.1249 14.5153 43.3162 14.688 43.4749 14.884C43.6429 15.08 43.7735 15.3087 43.8669 15.57C43.9602 15.822 44.0069 16.116 44.0069 16.452C44.0069 16.8253 43.9322 17.1753 43.7829 17.502C43.6335 17.8287 43.4142 18.118 43.1249 18.37C42.8449 18.6127 42.4995 18.8087 42.0889 18.958C41.6875 19.098 41.2302 19.168 40.7169 19.168Z" fill="#1AD1DB"/>
<rect x="0.5" y="0.5" width="55" height="27" rx="2.5" stroke="url(#paint0_linear)"/>
<defs>
<linearGradient id="paint0_linear" x1="0.999998" y1="-1.5" x2="43.2882" y2="39.176" gradientUnits="userSpaceOnUse">
<stop stop-color="#1AD1DB" stop-opacity="0.4"/>
<stop offset="1" stop-color="#1AD1DB" stop-opacity="0.16"/>
</linearGradient>
</defs>
</svg>
