<svg width="61" height="30" viewBox="0 0 61 30" fill="none" xmlns="http://www.w3.org/2000/svg">
<rect width="61" height="30" rx="1" fill="#1AD1DB" fill-opacity="0.1"/>
<path d="M13.0839 20V10.872H15.6599C16.3599 10.872 16.9899 10.9607 17.5499 11.138C18.1099 11.3153 18.5905 11.5907 18.9919 11.964C19.3932 12.328 19.7012 12.7947 19.9159 13.364C20.1305 13.9333 20.2379 14.61 20.2379 15.394C20.2379 16.178 20.1305 16.8593 19.9159 17.438C19.7012 18.0167 19.3979 18.4973 19.0059 18.88C18.6139 19.2533 18.1425 19.5333 17.5919 19.72C17.0505 19.9067 16.4439 20 15.7719 20H13.0839ZM15.1419 18.334H15.5339C15.9259 18.334 16.2805 18.2827 16.5979 18.18C16.9152 18.0773 17.1859 17.914 17.4099 17.69C17.6339 17.4567 17.8065 17.1533 17.9279 16.78C18.0585 16.4067 18.1239 15.9447 18.1239 15.394C18.1239 14.8527 18.0585 14.4 17.9279 14.036C17.8065 13.6627 17.6339 13.3687 17.4099 13.154C17.1859 12.93 16.9152 12.7713 16.5979 12.678C16.2805 12.5847 15.9259 12.538 15.5339 12.538H15.1419V18.334ZM26.6806 20.168C26.0646 20.168 25.4999 20.0607 24.9866 19.846C24.4826 19.622 24.0486 19.3047 23.6846 18.894C23.3206 18.4833 23.0359 17.984 22.8306 17.396C22.6346 16.808 22.5366 16.1407 22.5366 15.394C22.5366 14.6473 22.6346 13.9847 22.8306 13.406C23.0359 12.818 23.3206 12.328 23.6846 11.936C24.0486 11.5347 24.4826 11.2313 24.9866 11.026C25.4999 10.8113 26.0646 10.704 26.6806 10.704C27.2966 10.704 27.8566 10.8113 28.3606 11.026C28.8739 11.2313 29.3126 11.5347 29.6766 11.936C30.0406 12.3373 30.3206 12.832 30.5166 13.42C30.7219 13.9987 30.8246 14.6567 30.8246 15.394C30.8246 16.1407 30.7219 16.808 30.5166 17.396C30.3206 17.984 30.0406 18.4833 29.6766 18.894C29.3126 19.3047 28.8739 19.622 28.3606 19.846C27.8566 20.0607 27.2966 20.168 26.6806 20.168ZM26.6806 18.39C27.3059 18.39 27.8006 18.124 28.1646 17.592C28.5286 17.0507 28.7106 16.318 28.7106 15.394C28.7106 14.4793 28.5286 13.7653 28.1646 13.252C27.8006 12.7387 27.3059 12.482 26.6806 12.482C26.0552 12.482 25.5606 12.7387 25.1966 13.252C24.8326 13.7653 24.6506 14.4793 24.6506 15.394C24.6506 16.318 24.8326 17.0507 25.1966 17.592C25.5606 18.124 26.0552 18.39 26.6806 18.39ZM37.3489 20.168C36.7702 20.168 36.2242 20.07 35.7109 19.874C35.1976 19.6687 34.7449 19.37 34.3529 18.978C33.9702 18.586 33.6669 18.1007 33.4429 17.522C33.2189 16.934 33.1069 16.2573 33.1069 15.492C33.1069 14.736 33.2236 14.064 33.4569 13.476C33.6902 12.8787 34.0029 12.3747 34.3949 11.964C34.7869 11.5533 35.2442 11.2407 35.7669 11.026C36.2896 10.8113 36.8402 10.704 37.4189 10.704C38.0069 10.704 38.5342 10.8253 39.0009 11.068C39.4676 11.3013 39.8549 11.5767 40.1629 11.894L39.0709 13.21C38.8376 12.9953 38.5902 12.8227 38.3289 12.692C38.0769 12.552 37.7876 12.482 37.4609 12.482C37.1529 12.482 36.8589 12.552 36.5789 12.692C36.3082 12.8227 36.0702 13.014 35.8649 13.266C35.6689 13.518 35.5102 13.826 35.3889 14.19C35.2769 14.554 35.2209 14.9647 35.2209 15.422C35.2209 16.3647 35.4216 17.0973 35.8229 17.62C36.2242 18.1333 36.7609 18.39 37.4329 18.39C37.8062 18.39 38.1376 18.3107 38.4269 18.152C38.7256 17.984 38.9869 17.7787 39.2109 17.536L40.3029 18.824C39.5376 19.72 38.5529 20.168 37.3489 20.168ZM45.0788 20.168C44.4815 20.168 43.8842 20.0607 43.2868 19.846C42.6988 19.622 42.1715 19.2907 41.7048 18.852L42.8808 17.438C43.2075 17.718 43.5668 17.9467 43.9588 18.124C44.3602 18.3013 44.7522 18.39 45.1348 18.39C45.5642 18.39 45.8815 18.3107 46.0868 18.152C46.3015 17.9933 46.4088 17.7787 46.4088 17.508C46.4088 17.368 46.3762 17.2467 46.3108 17.144C46.2548 17.0413 46.1662 16.9527 46.0448 16.878C45.9328 16.794 45.7928 16.7193 45.6248 16.654C45.4662 16.5793 45.2888 16.5 45.0928 16.416L43.9028 15.912C43.6695 15.8187 43.4408 15.6973 43.2168 15.548C43.0022 15.3987 42.8062 15.226 42.6288 15.03C42.4608 14.8247 42.3255 14.5913 42.2228 14.33C42.1202 14.0593 42.0688 13.756 42.0688 13.42C42.0688 13.0467 42.1482 12.6967 42.3068 12.37C42.4655 12.034 42.6895 11.7447 42.9788 11.502C43.2682 11.25 43.6088 11.054 44.0008 10.914C44.4022 10.774 44.8408 10.704 45.3168 10.704C45.8488 10.704 46.3715 10.8067 46.8848 11.012C47.4075 11.2173 47.8648 11.516 48.2568 11.908L47.2068 13.21C46.9082 12.9767 46.6095 12.7993 46.3108 12.678C46.0122 12.5473 45.6808 12.482 45.3168 12.482C44.9622 12.482 44.6775 12.5567 44.4628 12.706C44.2575 12.846 44.1548 13.0467 44.1548 13.308C44.1548 13.448 44.1875 13.5693 44.2528 13.672C44.3275 13.7653 44.4255 13.854 44.5468 13.938C44.6775 14.0127 44.8268 14.0873 44.9948 14.162C45.1628 14.2273 45.3448 14.302 45.5408 14.386L46.7168 14.862C47.2768 15.086 47.7155 15.394 48.0328 15.786C48.3595 16.178 48.5228 16.696 48.5228 17.34C48.5228 17.7227 48.4435 18.0867 48.2848 18.432C48.1355 18.768 47.9115 19.0667 47.6128 19.328C47.3235 19.58 46.9642 19.7853 46.5348 19.944C46.1055 20.0933 45.6202 20.168 45.0788 20.168Z" fill="#1AD1DB"/>
</svg>
