<svg width="79" height="28" viewBox="0 0 79 28" fill="none" xmlns="http://www.w3.org/2000/svg">
<rect x="0.5" y="0.5" width="78" height="27" rx="2.5" fill="#E05CDB" fill-opacity="0.15"/>
<path d="M12.162 19V9.844H17.678V11.216H13.786V13.554H17.076V14.926H13.786V17.628H17.818V19H12.162ZM21.1232 19.168C20.5445 19.168 20.1385 18.9953 19.9052 18.65C19.6719 18.3047 19.5552 17.8333 19.5552 17.236V9.116H21.1652V17.32C21.1652 17.516 21.2025 17.656 21.2772 17.74C21.3519 17.8147 21.4312 17.852 21.5152 17.852C21.5525 17.852 21.5852 17.852 21.6132 17.852C21.6505 17.852 21.7019 17.8427 21.7672 17.824L21.9772 19.028C21.7625 19.1213 21.4779 19.168 21.1232 19.168ZM26.296 19.168C25.82 19.168 25.3767 19.0887 24.966 18.93C24.5553 18.762 24.196 18.524 23.888 18.216C23.58 17.908 23.3373 17.5347 23.16 17.096C22.992 16.648 22.908 16.1393 22.908 15.57C22.908 15.01 22.9967 14.506 23.174 14.058C23.3513 13.61 23.5847 13.232 23.874 12.924C24.1727 12.616 24.5133 12.378 24.896 12.21C25.2787 12.042 25.6707 11.958 26.072 11.958C26.5387 11.958 26.9493 12.0373 27.304 12.196C27.6587 12.3547 27.9527 12.5787 28.186 12.868C28.4287 13.1573 28.6107 13.5027 28.732 13.904C28.8533 14.3053 28.914 14.744 28.914 15.22C28.914 15.3787 28.9047 15.528 28.886 15.668C28.8767 15.808 28.8627 15.92 28.844 16.004H24.476C24.5507 16.62 24.7653 17.096 25.12 17.432C25.484 17.7587 25.946 17.922 26.506 17.922C26.8047 17.922 27.08 17.88 27.332 17.796C27.5933 17.7027 27.85 17.5767 28.102 17.418L28.648 18.426C28.3213 18.6407 27.9573 18.818 27.556 18.958C27.1547 19.098 26.7347 19.168 26.296 19.168ZM24.462 14.912H27.514C27.514 14.38 27.3973 13.9647 27.164 13.666C26.94 13.358 26.59 13.204 26.114 13.204C25.7033 13.204 25.344 13.3487 25.036 13.638C24.728 13.9273 24.5367 14.352 24.462 14.912ZM30.4517 19V12.126H31.7817L31.8937 13.064H31.9497C32.239 12.756 32.5517 12.4947 32.8877 12.28C33.233 12.0653 33.6204 11.958 34.0497 11.958C34.5537 11.958 34.955 12.0653 35.2537 12.28C35.5617 12.4947 35.795 12.798 35.9537 13.19C36.2804 12.8353 36.621 12.5413 36.9757 12.308C37.3304 12.0747 37.727 11.958 38.1657 11.958C38.8937 11.958 39.4304 12.196 39.7757 12.672C40.121 13.1387 40.2937 13.8107 40.2937 14.688V19H38.6697V14.898C38.6697 14.3287 38.581 13.9273 38.4037 13.694C38.2357 13.4607 37.9744 13.344 37.6197 13.344C37.1904 13.344 36.7097 13.6287 36.1777 14.198V19H34.5677V14.898C34.5677 14.3287 34.479 13.9273 34.3017 13.694C34.1337 13.4607 33.8677 13.344 33.5037 13.344C33.0744 13.344 32.5937 13.6287 32.0617 14.198V19H30.4517ZM45.1905 19.168C44.7145 19.168 44.2712 19.0887 43.8605 18.93C43.4498 18.762 43.0905 18.524 42.7825 18.216C42.4745 17.908 42.2318 17.5347 42.0545 17.096C41.8865 16.648 41.8025 16.1393 41.8025 15.57C41.8025 15.01 41.8912 14.506 42.0685 14.058C42.2458 13.61 42.4792 13.232 42.7685 12.924C43.0672 12.616 43.4078 12.378 43.7905 12.21C44.1732 12.042 44.5652 11.958 44.9665 11.958C45.4332 11.958 45.8438 12.0373 46.1985 12.196C46.5532 12.3547 46.8472 12.5787 47.0805 12.868C47.3232 13.1573 47.5052 13.5027 47.6265 13.904C47.7478 14.3053 47.8085 14.744 47.8085 15.22C47.8085 15.3787 47.7992 15.528 47.7805 15.668C47.7712 15.808 47.7572 15.92 47.7385 16.004H43.3705C43.4452 16.62 43.6598 17.096 44.0145 17.432C44.3785 17.7587 44.8405 17.922 45.4005 17.922C45.6992 17.922 45.9745 17.88 46.2265 17.796C46.4878 17.7027 46.7445 17.5767 46.9965 17.418L47.5425 18.426C47.2158 18.6407 46.8518 18.818 46.4505 18.958C46.0492 19.098 45.6292 19.168 45.1905 19.168ZM43.3565 14.912H46.4085C46.4085 14.38 46.2918 13.9647 46.0585 13.666C45.8345 13.358 45.4845 13.204 45.0085 13.204C44.5978 13.204 44.2385 13.3487 43.9305 13.638C43.6225 13.9273 43.4312 14.352 43.3565 14.912ZM49.3462 19V12.126H50.6762L50.7882 13.05H50.8442C51.1522 12.7513 51.4836 12.4947 51.8382 12.28C52.2022 12.0653 52.6222 11.958 53.0982 11.958C53.8356 11.958 54.3722 12.196 54.7082 12.672C55.0442 13.1387 55.2122 13.8107 55.2122 14.688V19H53.6022V14.898C53.6022 14.3287 53.5182 13.9273 53.3502 13.694C53.1822 13.4607 52.9069 13.344 52.5242 13.344C52.2256 13.344 51.9596 13.4187 51.7262 13.568C51.5022 13.708 51.2456 13.918 50.9562 14.198V19H49.3462ZM59.6022 19.168C59.2009 19.168 58.8602 19.1073 58.5802 18.986C58.3095 18.8647 58.0855 18.6967 57.9082 18.482C57.7402 18.258 57.6142 17.9967 57.5302 17.698C57.4555 17.39 57.4182 17.0493 57.4182 16.676V13.4H56.4382V12.196L57.5022 12.126L57.6982 10.25H59.0422V12.126H60.7922V13.4H59.0422V16.676C59.0422 17.4787 59.3642 17.88 60.0082 17.88C60.1295 17.88 60.2509 17.866 60.3722 17.838C60.5029 17.81 60.6195 17.7727 60.7222 17.726L61.0022 18.916C60.8155 18.9813 60.6009 19.0373 60.3582 19.084C60.1249 19.14 59.8729 19.168 59.6022 19.168ZM64.0201 19.168C63.5441 19.168 63.0727 19.0793 62.6061 18.902C62.1487 18.7153 61.7521 18.4867 61.4161 18.216L62.1721 17.18C62.4801 17.4227 62.7834 17.614 63.0821 17.754C63.3901 17.8847 63.7214 17.95 64.0761 17.95C64.4494 17.95 64.7247 17.8753 64.9021 17.726C65.0794 17.5673 65.1681 17.3667 65.1681 17.124C65.1681 16.984 65.1261 16.8627 65.0421 16.76C64.9581 16.648 64.8461 16.55 64.7061 16.466C64.5661 16.382 64.4074 16.3073 64.2301 16.242C64.0527 16.1673 63.8754 16.0927 63.6981 16.018C63.4741 15.934 63.2454 15.836 63.0121 15.724C62.7787 15.612 62.5687 15.4767 62.3821 15.318C62.2047 15.1593 62.0554 14.9773 61.9341 14.772C61.8221 14.5573 61.7661 14.3053 61.7661 14.016C61.7661 13.4093 61.9901 12.9147 62.4381 12.532C62.8861 12.1493 63.4974 11.958 64.2721 11.958C64.7481 11.958 65.1774 12.042 65.5601 12.21C65.9427 12.378 66.2741 12.5693 66.5541 12.784L65.8121 13.764C65.5694 13.5867 65.3221 13.4467 65.0701 13.344C64.8274 13.232 64.5707 13.176 64.3001 13.176C63.9547 13.176 63.6981 13.2507 63.5301 13.4C63.3714 13.54 63.2921 13.7173 63.2921 13.932C63.2921 14.072 63.3294 14.1933 63.4041 14.296C63.4881 14.3893 63.5954 14.4733 63.7261 14.548C63.8567 14.6227 64.0061 14.6927 64.1741 14.758C64.3514 14.8233 64.5334 14.8887 64.7201 14.954C64.9534 15.038 65.1867 15.136 65.4201 15.248C65.6534 15.3507 65.8634 15.4813 66.0501 15.64C66.2461 15.7987 66.4001 15.9947 66.5121 16.228C66.6334 16.452 66.6941 16.7227 66.6941 17.04C66.6941 17.3387 66.6334 17.6187 66.5121 17.88C66.4001 18.132 66.2321 18.356 66.0081 18.552C65.7841 18.7387 65.5041 18.888 65.1681 19C64.8321 19.112 64.4494 19.168 64.0201 19.168Z" fill="#E05CDB"/>
<rect x="0.5" y="0.5" width="78" height="27" rx="2.5" stroke="url(#paint0_linear)"/>
<defs>
<linearGradient id="paint0_linear" x1="0.999997" y1="-1.5" x2="41.2923" y2="53.7634" gradientUnits="userSpaceOnUse">
<stop stop-color="#E05CDB" stop-opacity="0.4"/>
<stop offset="1" stop-color="#E05CDB" stop-opacity="0.16"/>
</linearGradient>
</defs>
</svg>
