<svg width="64" height="32" viewBox="0 0 64 32" fill="none" xmlns="http://www.w3.org/2000/svg">
<rect width="64" height="32" rx="2" fill="#070A1B"/>
<rect width="64" height="32" rx="2" fill="#1AB8DB" fill-opacity="0.15"/>
<path d="M5.42 19.5V12.98H9.74V14.22H6.9V15.53H9.31V16.76H6.9V18.26H9.84V19.5H5.42ZM12.5661 19.5V12.98H14.0361V18.26H16.9361V19.5H12.5661ZM19.4122 19.5V12.98H23.7322V14.22H20.8922V15.53H23.3022V16.76H20.8922V18.26H23.8322V19.5H19.4122ZM26.0683 19.5V12.98H27.6083L28.2483 15.29L28.4683 16.19H28.5083L28.7283 15.29L29.3683 12.98H30.9083V19.5H29.6683V17.48C29.6683 17.3 29.6749 17.0733 29.6883 16.8C29.7016 16.5267 29.7183 16.2467 29.7383 15.96C29.7583 15.6733 29.7783 15.3967 29.7983 15.13C29.8249 14.8567 29.8449 14.6333 29.8583 14.46H29.8283L29.3283 16.2L28.8283 17.77H28.1083L27.5983 16.2L27.1283 14.46H27.0983C27.1183 14.6333 27.1383 14.8567 27.1583 15.13C27.1783 15.3967 27.1983 15.6733 27.2183 15.96C27.2383 16.2467 27.2549 16.5267 27.2683 16.8C27.2816 17.0733 27.2883 17.3 27.2883 17.48V19.5H26.0683ZM33.4044 19.5V12.98H37.7244V14.22H34.8844V15.53H37.2944V16.76H34.8844V18.26H37.8244V19.5H33.4044ZM40.1405 19.5V12.98H41.6505L43.0205 16.22L43.5805 17.66H43.6205C43.5871 17.3133 43.5438 16.93 43.4905 16.51C43.4371 16.0833 43.4105 15.6767 43.4105 15.29V12.98H44.8205V19.5H43.3105L41.9405 16.25L41.3805 14.83H41.3405C41.3738 15.19 41.4171 15.5767 41.4705 15.99C41.5238 16.4033 41.5505 16.8033 41.5505 17.19V19.5H40.1405ZM48.7366 19.5V14.22H46.7866V12.98H52.1666V14.22H50.2166V19.5H48.7366ZM56.4527 19.62C56.0127 19.62 55.576 19.5433 55.1427 19.39C54.716 19.23 54.326 18.9933 53.9727 18.68L54.8227 17.67C55.0693 17.87 55.3393 18.0333 55.6327 18.16C55.926 18.2867 56.2327 18.35 56.5527 18.35C56.8727 18.35 57.106 18.2967 57.2527 18.19C57.3993 18.0833 57.4727 17.9467 57.4727 17.78C57.4727 17.6667 57.4493 17.5733 57.4027 17.5C57.356 17.42 57.2893 17.35 57.2027 17.29C57.116 17.23 57.0093 17.1733 56.8827 17.12C56.756 17.0667 56.616 17.0067 56.4627 16.94L55.6227 16.58C55.4427 16.5133 55.266 16.4267 55.0927 16.32C54.926 16.2133 54.7793 16.09 54.6527 15.95C54.526 15.8033 54.4227 15.6367 54.3427 15.45C54.2693 15.2567 54.2327 15.04 54.2327 14.8C54.2327 14.5333 54.2893 14.2833 54.4027 14.05C54.5227 13.81 54.686 13.6033 54.8927 13.43C55.106 13.25 55.3593 13.11 55.6527 13.01C55.946 12.91 56.2693 12.86 56.6227 12.86C57.0227 12.86 57.4093 12.9333 57.7827 13.08C58.156 13.2267 58.4927 13.44 58.7927 13.72L58.0427 14.65C57.816 14.4833 57.5893 14.3567 57.3627 14.27C57.136 14.1767 56.8627 14.13 56.5427 14.13C56.296 14.13 56.096 14.18 55.9427 14.28C55.796 14.38 55.7227 14.5267 55.7227 14.72C55.7227 14.9133 55.8193 15.0633 56.0127 15.17C56.2127 15.27 56.4727 15.3767 56.7927 15.49L57.5827 15.83C58.016 15.99 58.356 16.21 58.6027 16.49C58.856 16.77 58.9827 17.14 58.9827 17.6C58.9827 17.8733 58.926 18.1333 58.8127 18.38C58.6993 18.62 58.536 18.8333 58.3227 19.02C58.1093 19.2 57.846 19.3467 57.5327 19.46C57.2193 19.5667 56.8593 19.62 56.4527 19.62Z" fill="#1AD1DB"/>
</svg>
