<svg width="72" height="30" viewBox="0 0 72 30" fill="none" xmlns="http://www.w3.org/2000/svg">
<rect width="72" height="30" rx="2" fill="#070A1B"/>
<rect width="72" height="30" rx="2" fill="#1AB8DB" fill-opacity="0.15"/>
<path d="M15.11 20.168C14.4847 20.168 13.8967 20.07 13.346 19.874C12.8047 19.6687 12.3333 19.37 11.932 18.978C11.5307 18.586 11.2133 18.1007 10.98 17.522C10.756 16.934 10.644 16.2573 10.644 15.492C10.644 14.736 10.7607 14.064 10.994 13.476C11.2273 12.8787 11.5447 12.3747 11.946 11.964C12.3567 11.5533 12.8327 11.2407 13.374 11.026C13.9153 10.8113 14.4893 10.704 15.096 10.704C15.7587 10.704 16.328 10.8253 16.804 11.068C17.28 11.3107 17.6673 11.586 17.966 11.894L16.888 13.21C16.6547 13.0047 16.4073 12.832 16.146 12.692C15.8847 12.552 15.558 12.482 15.166 12.482C14.8113 12.482 14.4847 12.552 14.186 12.692C13.8967 12.8227 13.6447 13.014 13.43 13.266C13.2153 13.518 13.0473 13.826 12.926 14.19C12.814 14.554 12.758 14.9647 12.758 15.422C12.758 16.3647 12.968 17.0973 13.388 17.62C13.8173 18.1333 14.4613 18.39 15.32 18.39C15.5067 18.39 15.6887 18.3667 15.866 18.32C16.0433 18.2733 16.188 18.2033 16.3 18.11V16.542H14.788V14.862H18.12V19.062C17.8027 19.37 17.3827 19.6313 16.86 19.846C16.3373 20.0607 15.754 20.168 15.11 20.168ZM24.6037 20.168C23.4184 20.168 22.5131 19.818 21.8877 19.118C21.2624 18.418 20.9497 17.3027 20.9497 15.772V10.872H23.0217V15.982C23.0217 16.878 23.1571 17.5033 23.4277 17.858C23.6984 18.2127 24.0904 18.39 24.6037 18.39C25.1171 18.39 25.5137 18.2127 25.7937 17.858C26.0737 17.5033 26.2137 16.878 26.2137 15.982V10.872H28.2017V15.772C28.2017 17.3027 27.8937 18.418 27.2777 19.118C26.6711 19.818 25.7797 20.168 24.6037 20.168ZM31.3163 20V10.872H33.3743V20H31.3163ZM36.5272 20V10.872H39.1032C39.8032 10.872 40.4332 10.9607 40.9932 11.138C41.5532 11.3153 42.0339 11.5907 42.4352 11.964C42.8366 12.328 43.1446 12.7947 43.3592 13.364C43.5739 13.9333 43.6812 14.61 43.6812 15.394C43.6812 16.178 43.5739 16.8593 43.3592 17.438C43.1446 18.0167 42.8412 18.4973 42.4492 18.88C42.0572 19.2533 41.5859 19.5333 41.0352 19.72C40.4939 19.9067 39.8872 20 39.2152 20H36.5272ZM38.5852 18.334H38.9772C39.3692 18.334 39.7239 18.2827 40.0412 18.18C40.3586 18.0773 40.6292 17.914 40.8532 17.69C41.0772 17.4567 41.2499 17.1533 41.3712 16.78C41.5019 16.4067 41.5672 15.9447 41.5672 15.394C41.5672 14.8527 41.5019 14.4 41.3712 14.036C41.2499 13.6627 41.0772 13.3687 40.8532 13.154C40.6292 12.93 40.3586 12.7713 40.0412 12.678C39.7239 12.5847 39.3692 12.538 38.9772 12.538H38.5852V18.334ZM46.4139 20V10.872H52.1259V12.608H48.4719V14.442H51.5799V16.164H48.4719V18.264H52.2659V20H46.4139ZM57.8699 20.168C57.2725 20.168 56.6752 20.0607 56.0779 19.846C55.4899 19.622 54.9625 19.2907 54.4959 18.852L55.6719 17.438C55.9985 17.718 56.3579 17.9467 56.7499 18.124C57.1512 18.3013 57.5432 18.39 57.9259 18.39C58.3552 18.39 58.6725 18.3107 58.8779 18.152C59.0925 17.9933 59.1999 17.7787 59.1999 17.508C59.1999 17.368 59.1672 17.2467 59.1019 17.144C59.0459 17.0413 58.9572 16.9527 58.8359 16.878C58.7239 16.794 58.5839 16.7193 58.4159 16.654C58.2572 16.5793 58.0799 16.5 57.8839 16.416L56.6939 15.912C56.4605 15.8187 56.2319 15.6973 56.0079 15.548C55.7932 15.3987 55.5972 15.226 55.4199 15.03C55.2519 14.8247 55.1165 14.5913 55.0139 14.33C54.9112 14.0593 54.8599 13.756 54.8599 13.42C54.8599 13.0467 54.9392 12.6967 55.0979 12.37C55.2565 12.034 55.4805 11.7447 55.7699 11.502C56.0592 11.25 56.3999 11.054 56.7919 10.914C57.1932 10.774 57.6319 10.704 58.1079 10.704C58.6399 10.704 59.1625 10.8067 59.6759 11.012C60.1985 11.2173 60.6559 11.516 61.0479 11.908L59.9979 13.21C59.6992 12.9767 59.4005 12.7993 59.1019 12.678C58.8032 12.5473 58.4719 12.482 58.1079 12.482C57.7532 12.482 57.4685 12.5567 57.2539 12.706C57.0485 12.846 56.9459 13.0467 56.9459 13.308C56.9459 13.448 56.9785 13.5693 57.0439 13.672C57.1185 13.7653 57.2165 13.854 57.3379 13.938C57.4685 14.0127 57.6179 14.0873 57.7859 14.162C57.9539 14.2273 58.1359 14.302 58.3319 14.386L59.5079 14.862C60.0679 15.086 60.5065 15.394 60.8239 15.786C61.1505 16.178 61.3139 16.696 61.3139 17.34C61.3139 17.7227 61.2345 18.0867 61.0759 18.432C60.9265 18.768 60.7025 19.0667 60.4039 19.328C60.1145 19.58 59.7552 19.7853 59.3259 19.944C58.8965 20.0933 58.4112 20.168 57.8699 20.168Z" fill="#1AD1DB"/>
</svg>
