<svg width="281" height="206" viewBox="0 0 281 206" fill="none" xmlns="http://www.w3.org/2000/svg">
<mask id="mask0" mask-type="alpha" maskUnits="userSpaceOnUse" x="118" y="-2" width="165" height="165">
<rect x="118.993" y="-1.00635" width="163.012" height="163.012" fill="url(#paint0_linear)"/>
</mask>
<g mask="url(#mask0)">
<rect width="4.20281" height="7.43574" transform="matrix(0 1 1 0 181.425 99.5743)" stroke="#E5E6F5" stroke-width="1.2075"/>
<rect width="7.43574" height="7.43574" transform="matrix(0 1 1 0 181.425 103.777)" stroke="#E5E6F5" stroke-width="1.2075"/>
<rect width="11.6386" height="11.6386" transform="matrix(0 1 1 0 188.861 99.5743)" stroke="#E5E6F5" stroke-width="1.2075"/>
<rect width="19.0743" height="19.0743" transform="matrix(0 1 1 0 181.425 80.5)" stroke="#E5E6F5" stroke-width="1.2075"/>
<rect width="30.7129" height="30.7129" transform="matrix(0 1 1 0 150.713 80.5)" stroke="#E5E6F5" stroke-width="1.2075"/>
<rect width="49.7871" height="49.7871" transform="matrix(0 1 1 0 150.713 111.213)" stroke="#E5E6F5" stroke-width="1.2075"/>
<rect width="80.5" height="30.7129" transform="matrix(0 1 1 0 120 80.5)" stroke="#E5E6F5" stroke-width="1.2075"/>
<rect width="4.20281" height="7.43574" transform="matrix(-1 0 0 1 181.425 61.4257)" stroke="#E5E6F5" stroke-width="1.2075"/>
<rect width="7.43574" height="7.43574" transform="matrix(-1 0 0 1 177.223 61.4257)" stroke="#E5E6F5" stroke-width="1.2075"/>
<rect width="11.6386" height="11.6386" transform="matrix(-1 0 0 1 181.425 68.8615)" stroke="#E5E6F5" stroke-width="1.2075"/>
<rect width="19.0743" height="19.0743" transform="matrix(-1 0 0 1 200.5 61.4257)" stroke="#E5E6F5" stroke-width="1.2075"/>
<rect width="30.7129" height="30.7129" transform="matrix(-1 0 0 1 200.5 30.7129)" stroke="#E5E6F5" stroke-width="1.2075"/>
<rect width="49.7871" height="49.7871" transform="matrix(-1 0 0 1 169.787 30.7129)" stroke="#E5E6F5" stroke-width="1.2075"/>
<rect width="80.5" height="30.7129" transform="matrix(-1 0 0 1 200.5 0)" stroke="#E5E6F5" stroke-width="1.2075"/>
<rect width="4.20281" height="7.43574" transform="matrix(1 0 0 -1 219.575 99.5743)" stroke="#E5E6F5" stroke-width="1.2075"/>
<rect width="7.43574" height="7.43574" transform="matrix(1 0 0 -1 223.777 99.5743)" stroke="#E5E6F5" stroke-width="1.2075"/>
<rect width="11.6386" height="11.6386" transform="matrix(1 0 0 -1 219.575 92.1385)" stroke="#E5E6F5" stroke-width="1.2075"/>
<rect width="19.0743" height="19.0743" transform="matrix(1 0 0 -1 200.5 99.5743)" stroke="#E5E6F5" stroke-width="1.2075"/>
<rect width="30.7129" height="30.7129" transform="matrix(1 0 0 -1 200.5 130.287)" stroke="#E5E6F5" stroke-width="1.2075"/>
<rect width="49.7871" height="49.7871" transform="matrix(1 0 0 -1 231.213 130.287)" stroke="#E5E6F5" stroke-width="1.2075"/>
<rect width="80.5" height="30.7129" transform="matrix(1 0 0 -1 200.5 161)" stroke="#E5E6F5" stroke-width="1.2075"/>
<rect width="4.20281" height="7.43574" transform="matrix(0 -1 -1 0 219.575 61.4257)" stroke="#E5E6F5" stroke-width="1.2075"/>
<rect width="7.43574" height="7.43574" transform="matrix(0 -1 -1 0 219.575 57.2229)" stroke="#E5E6F5" stroke-width="1.2075"/>
<rect width="11.6386" height="11.6386" transform="matrix(0 -1 -1 0 212.139 61.4257)" stroke="#E5E6F5" stroke-width="1.2075"/>
<rect width="19.0743" height="19.0743" transform="matrix(0 -1 -1 0 219.575 80.5)" stroke="#E5E6F5" stroke-width="1.2075"/>
<rect width="30.7129" height="30.7129" transform="matrix(0 -1 -1 0 250.287 80.5)" stroke="#E5E6F5" stroke-width="1.2075"/>
<rect width="49.7871" height="49.7871" transform="matrix(0 -1 -1 0 250.287 49.7871)" stroke="#E5E6F5" stroke-width="1.2075"/>
<rect width="80.5" height="30.7129" transform="matrix(0 -1 -1 0 281 80.5)" stroke="#E5E6F5" stroke-width="1.2075"/>
<rect x="-0.100625" y="0.100625" width="161.201" height="161.201" transform="matrix(1 0 0 -1 120 161.201)" stroke="#E5E6F5" stroke-width="0.20125"/>
</g>
<g filter="url(#filter0_dddddd)">
<g clip-path="url(#clip0)">
<rect y="62" width="241" height="144" rx="2" fill="#F2F4FF"/>
<path d="M0 64C0 62.8954 0.895431 62 2 62H239C240.105 62 241 62.8954 241 64V95H0V64Z" fill="#EAEDFF"/>
<circle cx="19" cy="78.5" r="5" fill="#00B674"/>
<circle cx="19" cy="78.5" r="4.6" stroke="white" stroke-opacity="0.08" stroke-width="0.8"/>
<circle cx="35" cy="78.5" r="5" fill="#F0B133"/>
<circle cx="35" cy="78.5" r="4.6" stroke="white" stroke-opacity="0.08" stroke-width="0.8"/>
<circle cx="51" cy="78.5" r="5" fill="#F56C75"/>
<circle cx="51" cy="78.5" r="4.6" stroke="white" stroke-opacity="0.08" stroke-width="0.8"/>
<path d="M71.4239 83L72.9959 75.128H75.2159C75.5839 75.128 75.9199 75.164 76.2239 75.236C76.5279 75.308 76.7879 75.424 77.0039 75.584C77.2199 75.736 77.3879 75.932 77.5079 76.172C77.6279 76.412 77.6879 76.704 77.6879 77.048C77.6879 77.528 77.5999 77.944 77.4239 78.296C77.2559 78.648 77.0199 78.94 76.7159 79.172C76.4119 79.396 76.0479 79.564 75.6239 79.676C75.2079 79.78 74.7479 79.832 74.2439 79.832H72.9839L72.3599 83H71.4239ZM73.1399 79.076H74.2799C75.0959 79.076 75.7119 78.916 76.1279 78.596C76.5519 78.276 76.7639 77.8 76.7639 77.168C76.7639 76.712 76.6119 76.384 76.3079 76.184C76.0039 75.976 75.5639 75.872 74.9879 75.872H73.7759L73.1399 79.076ZM79.9112 83.144C79.2792 83.144 78.7752 82.936 78.3992 82.52C78.0232 82.104 77.8352 81.532 77.8352 80.804C77.8352 80.252 77.9232 79.744 78.0992 79.28C78.2752 78.816 78.5112 78.42 78.8072 78.092C79.1032 77.756 79.4392 77.496 79.8152 77.312C80.1912 77.12 80.5792 77.024 80.9792 77.024C81.6112 77.024 82.1152 77.232 82.4912 77.648C82.8752 78.064 83.0672 78.636 83.0672 79.364C83.0672 79.916 82.9752 80.424 82.7912 80.888C82.6152 81.352 82.3792 81.752 82.0832 82.088C81.7952 82.416 81.4592 82.676 81.0752 82.868C80.6992 83.052 80.3112 83.144 79.9112 83.144ZM80.0072 82.376C80.2792 82.376 80.5392 82.3 80.7872 82.148C81.0432 81.988 81.2712 81.776 81.4712 81.512C81.6712 81.248 81.8312 80.936 81.9512 80.576C82.0712 80.216 82.1312 79.832 82.1312 79.424C82.1312 78.896 82.0232 78.492 81.8072 78.212C81.5992 77.924 81.2912 77.78 80.8832 77.78C80.6192 77.78 80.3592 77.86 80.1032 78.02C79.8472 78.172 79.6192 78.384 79.4192 78.656C79.2192 78.92 79.0592 79.232 78.9392 79.592C78.8192 79.952 78.7592 80.336 78.7592 80.744C78.7592 81.272 78.8632 81.676 79.0712 81.956C79.2872 82.236 79.5992 82.376 80.0072 82.376ZM84.7209 83L84.3009 77.168H85.2129L85.4049 80.6C85.4129 80.88 85.4169 81.156 85.4169 81.428C85.4249 81.692 85.4329 81.96 85.4409 82.232H85.4889C85.6089 81.96 85.7209 81.692 85.8249 81.428C85.9369 81.156 86.0569 80.88 86.1849 80.6L87.7209 77.168H88.6209L88.8249 80.6C88.8409 80.88 88.8489 81.156 88.8489 81.428C88.8569 81.692 88.8689 81.96 88.8849 82.232H88.9329C89.0449 81.96 89.1529 81.692 89.2569 81.428C89.3609 81.156 89.4769 80.88 89.6049 80.6L91.1289 77.168H91.9929L89.3409 83H88.2009L88.0329 79.808C88.0249 79.528 88.0169 79.244 88.0089 78.956C88.0089 78.668 88.0049 78.38 87.9969 78.092H87.9489C87.8289 78.38 87.7089 78.668 87.5889 78.956C87.4769 79.244 87.3609 79.528 87.2409 79.808L85.8249 83H84.7209ZM92.3424 80.708C92.3424 80.156 92.4344 79.656 92.6184 79.208C92.8024 78.752 93.0384 78.364 93.3264 78.044C93.6224 77.716 93.9544 77.464 94.3224 77.288C94.6984 77.112 95.0784 77.024 95.4624 77.024C95.7904 77.024 96.0664 77.08 96.2904 77.192C96.5224 77.296 96.7104 77.444 96.8544 77.636C96.9984 77.82 97.1024 78.044 97.1664 78.308C97.2304 78.564 97.2624 78.84 97.2624 79.136C97.2624 79.368 97.2384 79.588 97.1904 79.796C97.1424 80.004 97.0984 80.164 97.0584 80.276H93.2664C93.2104 80.652 93.2144 80.976 93.2784 81.248C93.3424 81.512 93.4464 81.732 93.5904 81.908C93.7424 82.084 93.9264 82.212 94.1424 82.292C94.3584 82.372 94.5944 82.412 94.8504 82.412C95.0824 82.412 95.3104 82.364 95.5344 82.268C95.7664 82.164 95.9744 82.044 96.1584 81.908L96.5184 82.52C96.2864 82.688 96.0104 82.836 95.6904 82.964C95.3704 83.084 95.0184 83.144 94.6344 83.144C93.9384 83.144 93.3824 82.936 92.9664 82.52C92.5504 82.096 92.3424 81.492 92.3424 80.708ZM93.3624 79.652H96.4224C96.4384 79.556 96.4504 79.46 96.4584 79.364C96.4744 79.268 96.4824 79.164 96.4824 79.052C96.4824 78.884 96.4624 78.724 96.4224 78.572C96.3824 78.412 96.3184 78.272 96.2304 78.152C96.1424 78.032 96.0264 77.936 95.8824 77.864C95.7384 77.792 95.5624 77.756 95.3544 77.756C95.1384 77.756 94.9264 77.8 94.7184 77.888C94.5184 77.976 94.3304 78.104 94.1544 78.272C93.9784 78.44 93.8184 78.64 93.6744 78.872C93.5384 79.104 93.4344 79.364 93.3624 79.652ZM98.0478 83L99.1998 77.168H99.9558L99.8238 78.284H99.8718C100.104 77.924 100.372 77.624 100.676 77.384C100.988 77.144 101.324 77.024 101.684 77.024C101.884 77.024 102.068 77.06 102.236 77.132L101.912 77.948C101.784 77.884 101.616 77.852 101.408 77.852C101.12 77.852 100.824 77.976 100.52 78.224C100.216 78.472 99.9398 78.836 99.6918 79.316L98.9598 83H98.0478ZM102.104 80.708C102.104 80.156 102.196 79.656 102.38 79.208C102.564 78.752 102.8 78.364 103.088 78.044C103.384 77.716 103.716 77.464 104.084 77.288C104.46 77.112 104.84 77.024 105.224 77.024C105.552 77.024 105.828 77.08 106.052 77.192C106.284 77.296 106.472 77.444 106.616 77.636C106.76 77.82 106.864 78.044 106.928 78.308C106.992 78.564 107.024 78.84 107.024 79.136C107.024 79.368 107 79.588 106.952 79.796C106.904 80.004 106.86 80.164 106.82 80.276H103.028C102.972 80.652 102.976 80.976 103.04 81.248C103.104 81.512 103.208 81.732 103.352 81.908C103.504 82.084 103.688 82.212 103.904 82.292C104.12 82.372 104.356 82.412 104.612 82.412C104.844 82.412 105.072 82.364 105.296 82.268C105.528 82.164 105.736 82.044 105.92 81.908L106.28 82.52C106.048 82.688 105.772 82.836 105.452 82.964C105.132 83.084 104.78 83.144 104.396 83.144C103.7 83.144 103.144 82.936 102.728 82.52C102.312 82.096 102.104 81.492 102.104 80.708ZM103.124 79.652H106.184C106.2 79.556 106.212 79.46 106.22 79.364C106.236 79.268 106.244 79.164 106.244 79.052C106.244 78.884 106.224 78.724 106.184 78.572C106.144 78.412 106.08 78.272 105.992 78.152C105.904 78.032 105.788 77.936 105.644 77.864C105.5 77.792 105.324 77.756 105.116 77.756C104.9 77.756 104.688 77.8 104.48 77.888C104.28 77.976 104.092 78.104 103.916 78.272C103.74 78.44 103.58 78.64 103.436 78.872C103.3 79.104 103.196 79.364 103.124 79.652ZM112.478 77.876L112.67 76.736L113.126 74.456H114.049L112.322 83H111.566L111.662 82.136H111.614C111.334 82.44 111.018 82.684 110.666 82.868C110.314 83.052 109.954 83.144 109.586 83.144C109.074 83.144 108.666 82.964 108.362 82.604C108.058 82.244 107.906 81.72 107.906 81.032C107.906 80.472 107.994 79.948 108.17 79.46C108.346 78.972 108.582 78.548 108.878 78.188C109.174 77.828 109.51 77.544 109.886 77.336C110.262 77.128 110.654 77.024 111.062 77.024C111.374 77.024 111.646 77.104 111.878 77.264C112.11 77.416 112.298 77.62 112.442 77.876H112.478ZM109.922 82.376C110.226 82.376 110.534 82.288 110.846 82.112C111.158 81.928 111.462 81.644 111.758 81.26L112.286 78.656C112.118 78.352 111.934 78.132 111.734 77.996C111.534 77.86 111.322 77.792 111.098 77.792C110.81 77.792 110.53 77.88 110.258 78.056C109.986 78.224 109.746 78.452 109.538 78.74C109.33 79.028 109.162 79.36 109.034 79.736C108.914 80.104 108.854 80.488 108.854 80.888C108.854 81.392 108.95 81.768 109.142 82.016C109.334 82.256 109.594 82.376 109.922 82.376ZM117.296 83H116.54L118.244 74.456H119.168L118.7 76.736L118.436 77.888H118.46C118.748 77.656 119.06 77.456 119.396 77.288C119.732 77.112 120.08 77.024 120.44 77.024C120.952 77.024 121.36 77.204 121.664 77.564C121.968 77.924 122.12 78.448 122.12 79.136C122.12 79.696 122.032 80.22 121.856 80.708C121.68 81.196 121.444 81.62 121.148 81.98C120.86 82.34 120.524 82.624 120.14 82.832C119.764 83.04 119.376 83.144 118.976 83.144C118.664 83.144 118.384 83.064 118.136 82.904C117.896 82.744 117.708 82.532 117.572 82.268H117.536L117.296 83ZM120.104 77.792C119.832 77.792 119.532 77.876 119.204 78.044C118.884 78.212 118.584 78.444 118.304 78.74L117.752 81.512C117.912 81.816 118.092 82.036 118.292 82.172C118.492 82.308 118.708 82.376 118.94 82.376C119.228 82.376 119.508 82.292 119.78 82.124C120.052 81.948 120.288 81.716 120.488 81.428C120.696 81.14 120.86 80.812 120.98 80.444C121.108 80.068 121.172 79.676 121.172 79.268C121.172 78.772 121.076 78.404 120.884 78.164C120.7 77.916 120.44 77.792 120.104 77.792ZM122.401 85.508C122.313 85.508 122.209 85.496 122.089 85.472C121.961 85.448 121.841 85.404 121.729 85.34L122.029 84.656C122.173 84.728 122.317 84.764 122.461 84.764C122.757 84.764 123.033 84.644 123.289 84.404C123.553 84.164 123.785 83.84 123.985 83.432L124.201 83.012L123.205 77.168H124.117L124.573 80.444C124.613 80.708 124.649 80.996 124.681 81.308C124.713 81.612 124.741 81.904 124.765 82.184H124.813C124.949 81.904 125.089 81.616 125.233 81.32C125.385 81.016 125.533 80.724 125.677 80.444L127.357 77.168H128.269L124.837 83.492C124.685 83.78 124.525 84.044 124.357 84.284C124.189 84.532 124.005 84.744 123.805 84.92C123.613 85.104 123.401 85.248 123.169 85.352C122.937 85.456 122.681 85.508 122.401 85.508ZM131.25 83V75.152H133.758C134.166 75.152 134.538 75.188 134.874 75.26C135.218 75.324 135.514 75.432 135.762 75.584C136.018 75.728 136.214 75.924 136.35 76.172C136.494 76.42 136.566 76.724 136.566 77.084C136.566 77.46 136.47 77.808 136.278 78.128C136.086 78.448 135.818 78.668 135.474 78.788V78.836C135.906 78.932 136.262 79.136 136.542 79.448C136.83 79.752 136.974 80.168 136.974 80.696C136.974 81.088 136.898 81.428 136.746 81.716C136.594 82.004 136.382 82.244 136.11 82.436C135.846 82.628 135.53 82.772 135.162 82.868C134.794 82.956 134.394 83 133.962 83H131.25ZM132.642 78.392H133.638C134.19 78.392 134.586 78.292 134.826 78.092C135.074 77.892 135.198 77.624 135.198 77.288C135.198 76.904 135.07 76.632 134.814 76.472C134.558 76.312 134.174 76.232 133.662 76.232H132.642V78.392ZM132.642 81.92H133.818C134.394 81.92 134.838 81.816 135.15 81.608C135.462 81.392 135.618 81.064 135.618 80.624C135.618 80.208 135.466 79.908 135.162 79.724C134.858 79.532 134.41 79.436 133.818 79.436H132.642V81.92ZM139.718 83.144C139.198 83.144 138.778 82.988 138.458 82.676C138.138 82.356 137.978 81.936 137.978 81.416C137.978 81.104 138.042 80.828 138.17 80.588C138.306 80.34 138.514 80.128 138.794 79.952C139.082 79.776 139.442 79.628 139.874 79.508C140.314 79.388 140.838 79.296 141.446 79.232C141.438 79.08 141.414 78.936 141.374 78.8C141.342 78.656 141.282 78.532 141.194 78.428C141.114 78.316 141.006 78.232 140.87 78.176C140.734 78.112 140.566 78.08 140.366 78.08C140.078 78.08 139.794 78.136 139.514 78.248C139.242 78.36 138.974 78.496 138.71 78.656L138.206 77.732C138.534 77.524 138.902 77.344 139.31 77.192C139.718 77.04 140.158 76.964 140.63 76.964C141.366 76.964 141.914 77.184 142.274 77.624C142.642 78.056 142.826 78.684 142.826 79.508V83H141.686L141.59 82.352H141.542C141.278 82.576 140.994 82.764 140.69 82.916C140.394 83.068 140.07 83.144 139.718 83.144ZM140.162 82.064C140.402 82.064 140.618 82.008 140.81 81.896C141.01 81.784 141.222 81.624 141.446 81.416V80.096C141.046 80.144 140.71 80.208 140.438 80.288C140.166 80.368 139.946 80.46 139.778 80.564C139.61 80.66 139.49 80.772 139.418 80.9C139.346 81.028 139.31 81.164 139.31 81.308C139.31 81.572 139.39 81.764 139.55 81.884C139.71 82.004 139.914 82.064 140.162 82.064ZM146.122 83.144C145.714 83.144 145.31 83.068 144.91 82.916C144.518 82.756 144.178 82.56 143.89 82.328L144.538 81.44C144.802 81.648 145.062 81.812 145.318 81.932C145.582 82.044 145.866 82.1 146.17 82.1C146.49 82.1 146.726 82.036 146.878 81.908C147.03 81.772 147.106 81.6 147.106 81.392C147.106 81.272 147.07 81.168 146.998 81.08C146.926 80.984 146.83 80.9 146.71 80.828C146.59 80.756 146.454 80.692 146.302 80.636C146.15 80.572 145.998 80.508 145.846 80.444C145.654 80.372 145.458 80.288 145.258 80.192C145.058 80.096 144.878 79.98 144.718 79.844C144.566 79.708 144.438 79.552 144.334 79.376C144.238 79.192 144.19 78.976 144.19 78.728C144.19 78.208 144.382 77.784 144.766 77.456C145.15 77.128 145.674 76.964 146.338 76.964C146.746 76.964 147.114 77.036 147.442 77.18C147.77 77.324 148.054 77.488 148.294 77.672L147.658 78.512C147.45 78.36 147.238 78.24 147.022 78.152C146.814 78.056 146.594 78.008 146.362 78.008C146.066 78.008 145.846 78.072 145.702 78.2C145.566 78.32 145.498 78.472 145.498 78.656C145.498 78.776 145.53 78.88 145.594 78.968C145.666 79.048 145.758 79.12 145.87 79.184C145.982 79.248 146.11 79.308 146.254 79.364C146.406 79.42 146.562 79.476 146.722 79.532C146.922 79.604 147.122 79.688 147.322 79.784C147.522 79.872 147.702 79.984 147.862 80.12C148.03 80.256 148.162 80.424 148.258 80.624C148.362 80.816 148.414 81.048 148.414 81.32C148.414 81.576 148.362 81.816 148.258 82.04C148.162 82.256 148.018 82.448 147.826 82.616C147.634 82.776 147.394 82.904 147.106 83C146.818 83.096 146.49 83.144 146.122 83.144ZM149.646 83V77.108H151.026V83H149.646ZM150.342 76.076C150.094 76.076 149.89 76.004 149.73 75.86C149.57 75.716 149.49 75.528 149.49 75.296C149.49 75.064 149.57 74.876 149.73 74.732C149.89 74.58 150.094 74.504 150.342 74.504C150.59 74.504 150.794 74.58 150.954 74.732C151.114 74.876 151.194 75.064 151.194 75.296C151.194 75.528 151.114 75.716 150.954 75.86C150.794 76.004 150.59 76.076 150.342 76.076ZM154.43 83.144C154.022 83.144 153.618 83.068 153.218 82.916C152.826 82.756 152.486 82.56 152.198 82.328L152.846 81.44C153.11 81.648 153.37 81.812 153.626 81.932C153.89 82.044 154.174 82.1 154.478 82.1C154.798 82.1 155.034 82.036 155.186 81.908C155.338 81.772 155.414 81.6 155.414 81.392C155.414 81.272 155.378 81.168 155.306 81.08C155.234 80.984 155.138 80.9 155.018 80.828C154.898 80.756 154.762 80.692 154.61 80.636C154.458 80.572 154.306 80.508 154.154 80.444C153.962 80.372 153.766 80.288 153.566 80.192C153.366 80.096 153.186 79.98 153.026 79.844C152.874 79.708 152.746 79.552 152.642 79.376C152.546 79.192 152.498 78.976 152.498 78.728C152.498 78.208 152.69 77.784 153.074 77.456C153.458 77.128 153.982 76.964 154.646 76.964C155.054 76.964 155.422 77.036 155.75 77.18C156.078 77.324 156.362 77.488 156.602 77.672L155.966 78.512C155.758 78.36 155.546 78.24 155.33 78.152C155.122 78.056 154.902 78.008 154.67 78.008C154.374 78.008 154.154 78.072 154.01 78.2C153.874 78.32 153.806 78.472 153.806 78.656C153.806 78.776 153.838 78.88 153.902 78.968C153.974 79.048 154.066 79.12 154.178 79.184C154.29 79.248 154.418 79.308 154.562 79.364C154.714 79.42 154.87 79.476 155.03 79.532C155.23 79.604 155.43 79.688 155.63 79.784C155.83 79.872 156.01 79.984 156.17 80.12C156.338 80.256 156.47 80.424 156.566 80.624C156.67 80.816 156.722 81.048 156.722 81.32C156.722 81.576 156.67 81.816 156.566 82.04C156.47 82.256 156.326 82.448 156.134 82.616C155.942 82.776 155.702 82.904 155.414 83C155.126 83.096 154.798 83.144 154.43 83.144ZM162.06 83V76.328H159.792V75.152H165.72V76.328H163.452V83H162.06ZM166.907 83V74.528H168.287V76.712L168.239 77.852C168.487 77.62 168.759 77.416 169.055 77.24C169.359 77.056 169.715 76.964 170.123 76.964C170.755 76.964 171.215 77.168 171.503 77.576C171.791 77.976 171.935 78.552 171.935 79.304V83H170.555V79.484C170.555 78.996 170.483 78.652 170.339 78.452C170.195 78.252 169.959 78.152 169.631 78.152C169.375 78.152 169.147 78.216 168.947 78.344C168.755 78.464 168.535 78.644 168.287 78.884V83H166.907ZM176.119 83.144C175.711 83.144 175.331 83.076 174.979 82.94C174.627 82.796 174.319 82.592 174.055 82.328C173.791 82.064 173.583 81.744 173.431 81.368C173.287 80.984 173.215 80.548 173.215 80.06C173.215 79.58 173.291 79.148 173.443 78.764C173.595 78.38 173.795 78.056 174.043 77.792C174.299 77.528 174.591 77.324 174.919 77.18C175.247 77.036 175.583 76.964 175.927 76.964C176.327 76.964 176.679 77.032 176.983 77.168C177.287 77.304 177.539 77.496 177.739 77.744C177.947 77.992 178.103 78.288 178.207 78.632C178.311 78.976 178.363 79.352 178.363 79.76C178.363 79.896 178.355 80.024 178.339 80.144C178.331 80.264 178.319 80.36 178.303 80.432H174.559C174.623 80.96 174.807 81.368 175.111 81.656C175.423 81.936 175.819 82.076 176.299 82.076C176.555 82.076 176.791 82.04 177.007 81.968C177.231 81.888 177.451 81.78 177.667 81.644L178.135 82.508C177.855 82.692 177.543 82.844 177.199 82.964C176.855 83.084 176.495 83.144 176.119 83.144ZM174.547 79.496H177.163C177.163 79.04 177.063 78.684 176.863 78.428C176.671 78.164 176.371 78.032 175.963 78.032C175.611 78.032 175.303 78.156 175.039 78.404C174.775 78.652 174.611 79.016 174.547 79.496ZM182.093 83.144C181.725 83.144 181.373 83.076 181.037 82.94C180.701 82.804 180.401 82.604 180.137 82.34C179.881 82.076 179.677 81.752 179.525 81.368C179.373 80.984 179.297 80.548 179.297 80.06C179.297 79.572 179.373 79.136 179.525 78.752C179.677 78.368 179.881 78.044 180.137 77.78C180.401 77.516 180.701 77.316 181.037 77.18C181.373 77.036 181.725 76.964 182.093 76.964C182.461 76.964 182.813 77.036 183.149 77.18C183.493 77.316 183.793 77.516 184.049 77.78C184.305 78.044 184.509 78.368 184.661 78.752C184.821 79.136 184.901 79.572 184.901 80.06C184.901 80.548 184.821 80.984 184.661 81.368C184.509 81.752 184.305 82.076 184.049 82.34C183.793 82.604 183.493 82.804 183.149 82.94C182.813 83.076 182.461 83.144 182.093 83.144ZM182.093 82.016C182.525 82.016 182.865 81.84 183.113 81.488C183.361 81.128 183.485 80.652 183.485 80.06C183.485 79.46 183.361 78.984 183.113 78.632C182.865 78.272 182.525 78.092 182.093 78.092C181.661 78.092 181.321 78.272 181.073 78.632C180.833 78.984 180.713 79.46 180.713 80.06C180.713 80.652 180.833 81.128 181.073 81.488C181.321 81.84 181.661 82.016 182.093 82.016ZM186.267 83V77.108H187.407L187.503 78.152H187.551C187.759 77.768 188.011 77.476 188.307 77.276C188.603 77.068 188.907 76.964 189.219 76.964C189.499 76.964 189.723 77.004 189.891 77.084L189.651 78.284C189.547 78.252 189.451 78.228 189.363 78.212C189.275 78.196 189.167 78.188 189.039 78.188C188.807 78.188 188.563 78.28 188.307 78.464C188.051 78.64 187.831 78.952 187.647 79.4V83H186.267ZM191.327 85.424C191.167 85.424 191.027 85.412 190.907 85.388C190.787 85.372 190.671 85.344 190.559 85.304L190.811 84.224C190.867 84.24 190.931 84.256 191.003 84.272C191.083 84.296 191.159 84.308 191.231 84.308C191.543 84.308 191.791 84.212 191.975 84.02C192.167 83.836 192.311 83.596 192.407 83.3L192.515 82.928L190.199 77.108H191.603L192.623 80C192.711 80.256 192.795 80.528 192.875 80.816C192.963 81.096 193.051 81.376 193.139 81.656H193.187C193.259 81.384 193.331 81.108 193.403 80.828C193.483 80.54 193.559 80.264 193.631 80L194.519 77.108H195.851L193.715 83.264C193.595 83.6 193.463 83.9 193.319 84.164C193.175 84.428 193.007 84.652 192.815 84.836C192.631 85.028 192.415 85.172 192.167 85.268C191.927 85.372 191.647 85.424 191.327 85.424Z" fill="#6B7294"/>
<g clip-path="url(#clip1)">
<rect x="211" y="70.5" width="16" height="16" fill="#A4A9C5"/>
<path d="M217 75.0896C218.344 75.087 219.687 75.089 221.031 75.089C221.031 77.355 221.031 79.6216 221.031 81.8883C220.679 81.8883 220.328 81.8883 219.976 81.8876C219.976 79.9362 219.976 77.9849 219.976 76.0335C218.984 76.0329 217.993 76.0342 217.001 76.0335C217 75.7189 217.001 75.4042 217 75.0896Z" fill="#EAEDFF"/>
</g>
<path d="M241 95.5H241.5V95V64C241.5 62.6193 240.381 61.5 239 61.5H2C0.619288 61.5 -0.5 62.6193 -0.5 64V95V95.5H0H241Z" stroke="#CCD2F1" stroke-opacity="0.5"/>
<g clip-path="url(#clip2)">
<rect x="32.5" y="127.5" width="211" height="47" rx="1.5" fill="white"/>
<rect x="48" y="143" width="24" height="16" rx="2" fill="white"/>
<rect opacity="0.2" x="48" y="143" width="24" height="16" rx="2" fill="#6D83F5"/>
<rect opacity="0.3" x="48.25" y="143.25" width="23.5" height="15.5" rx="1.75" fill="url(#paint1_linear)" fill-opacity="0.6" stroke="#6D83F5" stroke-width="0.5"/>
<rect opacity="0.15" x="50" y="146" width="6" height="4" rx="0.5" fill="#6D83F5"/>
<rect opacity="0.25" x="50" y="154.5" width="4" height="1.5" rx="0.75" fill="#6D83F5"/>
<rect opacity="0.25" x="60" y="154.5" width="4" height="1.5" rx="0.75" fill="#6D83F5"/>
<rect opacity="0.25" x="55" y="154.5" width="4" height="1.5" rx="0.75" fill="#6D83F5"/>
<rect opacity="0.25" x="65" y="154.5" width="4" height="1.5" rx="0.75" fill="#6D83F5"/>
<rect opacity="0.15" x="50" y="152" width="14" height="1" rx="0.5" fill="#6D83F5"/>
<path d="M87.408 157.192C86.7467 157.192 86.1387 157.069 85.584 156.824C85.0293 156.579 84.544 156.227 84.128 155.768C83.7227 155.299 83.4027 154.728 83.168 154.056C82.944 153.373 82.832 152.605 82.832 151.752C82.832 150.909 82.9493 150.152 83.184 149.48C83.4187 148.808 83.744 148.237 84.16 147.768C84.576 147.299 85.0667 146.941 85.632 146.696C86.1973 146.44 86.816 146.312 87.488 146.312C88.128 146.312 88.688 146.445 89.168 146.712C89.6587 146.968 90.0587 147.267 90.368 147.608L89.648 148.472C89.3707 148.173 89.056 147.933 88.704 147.752C88.352 147.571 87.952 147.48 87.504 147.48C87.0027 147.48 86.5493 147.581 86.144 147.784C85.7387 147.976 85.392 148.259 85.104 148.632C84.816 148.995 84.592 149.437 84.432 149.96C84.2827 150.483 84.208 151.069 84.208 151.72C84.208 152.381 84.2827 152.979 84.432 153.512C84.592 154.035 84.8107 154.483 85.088 154.856C85.3653 155.229 85.7013 155.517 86.096 155.72C86.5013 155.923 86.9547 156.024 87.456 156.024C87.968 156.024 88.416 155.923 88.8 155.72C89.184 155.507 89.5467 155.213 89.888 154.84L90.624 155.672C90.208 156.152 89.7387 156.525 89.216 156.792C88.6933 157.059 88.0907 157.192 87.408 157.192ZM94.3946 157.192C93.744 157.192 93.2 157 92.7626 156.616C92.336 156.232 92.1226 155.688 92.1226 154.984C92.1226 154.131 92.5013 153.48 93.2586 153.032C94.016 152.573 95.2266 152.253 96.8906 152.072C96.8906 151.827 96.864 151.587 96.8106 151.352C96.768 151.117 96.688 150.909 96.5706 150.728C96.4533 150.547 96.288 150.403 96.0746 150.296C95.872 150.179 95.6106 150.12 95.2906 150.12C94.8426 150.12 94.4213 150.205 94.0266 150.376C93.632 150.547 93.28 150.739 92.9706 150.952L92.4586 150.04C92.8213 149.805 93.264 149.581 93.7866 149.368C94.3093 149.144 94.8853 149.032 95.5146 149.032C96.464 149.032 97.152 149.325 97.5786 149.912C98.0053 150.488 98.2186 151.261 98.2186 152.232V157H97.1306L97.0186 156.072H96.9706C96.5973 156.381 96.1973 156.648 95.7706 156.872C95.344 157.085 94.8853 157.192 94.3946 157.192ZM94.7786 156.136C95.152 156.136 95.504 156.051 95.8346 155.88C96.1653 155.699 96.5173 155.437 96.8906 155.096V152.936C96.24 153.021 95.6906 153.123 95.2426 153.24C94.8053 153.357 94.448 153.496 94.1706 153.656C93.904 153.816 93.7066 154.003 93.5786 154.216C93.4613 154.419 93.4026 154.643 93.4026 154.888C93.4026 155.336 93.536 155.656 93.8026 155.848C94.0693 156.04 94.3946 156.136 94.7786 156.136ZM100.815 157V149.224H101.903L102.015 150.632H102.063C102.33 150.141 102.65 149.752 103.023 149.464C103.407 149.176 103.823 149.032 104.271 149.032C104.58 149.032 104.858 149.085 105.103 149.192L104.847 150.344C104.719 150.301 104.602 150.269 104.495 150.248C104.388 150.227 104.255 150.216 104.095 150.216C103.764 150.216 103.418 150.349 103.055 150.616C102.703 150.883 102.394 151.347 102.127 152.008V157H100.815ZM109.012 157.192C108.03 157.192 107.246 156.84 106.66 156.136C106.084 155.432 105.796 154.429 105.796 153.128C105.796 152.499 105.886 151.933 106.068 151.432C106.26 150.92 106.51 150.488 106.82 150.136C107.129 149.784 107.486 149.512 107.892 149.32C108.297 149.128 108.724 149.032 109.172 149.032C109.62 149.032 110.009 149.112 110.34 149.272C110.67 149.432 111.006 149.651 111.348 149.928L111.284 148.6V145.608H112.612V157H111.524L111.412 156.088H111.364C111.054 156.387 110.697 156.648 110.292 156.872C109.897 157.085 109.47 157.192 109.012 157.192ZM109.3 156.088C109.662 156.088 110.004 156.003 110.324 155.832C110.644 155.651 110.964 155.379 111.284 155.016V150.952C110.953 150.653 110.633 150.445 110.324 150.328C110.025 150.2 109.716 150.136 109.396 150.136C109.086 150.136 108.793 150.211 108.516 150.36C108.249 150.499 108.014 150.701 107.812 150.968C107.609 151.224 107.449 151.533 107.332 151.896C107.214 152.259 107.156 152.664 107.156 153.112C107.156 154.051 107.342 154.781 107.716 155.304C108.089 155.827 108.617 156.088 109.3 156.088ZM118.734 157V149.224H119.822L119.934 150.344H119.982C120.355 149.971 120.745 149.661 121.15 149.416C121.566 149.16 122.046 149.032 122.59 149.032C123.411 149.032 124.009 149.288 124.382 149.8C124.766 150.312 124.958 151.069 124.958 152.072V157H123.646V152.248C123.646 151.512 123.529 150.984 123.294 150.664C123.059 150.333 122.686 150.168 122.174 150.168C121.769 150.168 121.411 150.269 121.102 150.472C120.793 150.675 120.441 150.973 120.046 151.368V157H118.734ZM129.906 157.192C129.074 157.192 128.466 156.936 128.082 156.424C127.709 155.912 127.522 155.155 127.522 154.152V149.224H128.85V153.976C128.85 154.712 128.962 155.245 129.186 155.576C129.421 155.896 129.794 156.056 130.306 156.056C130.711 156.056 131.069 155.955 131.378 155.752C131.687 155.539 132.029 155.203 132.402 154.744V149.224H133.714V157H132.626L132.514 155.784H132.466C132.103 156.211 131.719 156.552 131.314 156.808C130.919 157.064 130.45 157.192 129.906 157.192ZM136.487 157V149.224H137.575L137.687 150.344H137.735C138.076 149.971 138.444 149.661 138.839 149.416C139.244 149.16 139.682 149.032 140.151 149.032C140.748 149.032 141.212 149.165 141.543 149.432C141.884 149.688 142.135 150.051 142.295 150.52C142.7 150.072 143.106 149.715 143.511 149.448C143.927 149.171 144.375 149.032 144.855 149.032C145.655 149.032 146.247 149.288 146.631 149.8C147.026 150.312 147.223 151.069 147.223 152.072V157H145.911V152.248C145.911 151.512 145.794 150.984 145.559 150.664C145.324 150.333 144.962 150.168 144.471 150.168C143.884 150.168 143.234 150.568 142.519 151.368V157H141.207V152.248C141.207 151.512 141.09 150.984 140.855 150.664C140.62 150.333 140.252 150.168 139.751 150.168C139.164 150.168 138.514 150.568 137.799 151.368V157H136.487ZM153.343 157.192C152.98 157.192 152.601 157.107 152.207 156.936C151.823 156.755 151.46 156.509 151.119 156.2H151.071L150.959 157H149.903V145.608H151.215V148.712L151.183 150.12C151.535 149.811 151.919 149.555 152.335 149.352C152.751 149.139 153.177 149.032 153.615 149.032C154.116 149.032 154.559 149.128 154.943 149.32C155.327 149.501 155.647 149.768 155.903 150.12C156.169 150.461 156.367 150.877 156.495 151.368C156.633 151.848 156.703 152.387 156.703 152.984C156.703 153.645 156.612 154.237 156.431 154.76C156.249 155.283 156.004 155.725 155.695 156.088C155.385 156.451 155.028 156.728 154.623 156.92C154.217 157.101 153.791 157.192 153.343 157.192ZM153.119 156.088C153.439 156.088 153.732 156.019 153.999 155.88C154.276 155.731 154.511 155.528 154.703 155.272C154.905 155.005 155.06 154.68 155.167 154.296C155.284 153.912 155.343 153.48 155.343 153C155.343 152.573 155.305 152.184 155.231 151.832C155.156 151.48 155.033 151.181 154.863 150.936C154.703 150.68 154.489 150.483 154.223 150.344C153.967 150.205 153.657 150.136 153.295 150.136C152.665 150.136 151.972 150.488 151.215 151.192V155.272C151.556 155.571 151.892 155.784 152.223 155.912C152.564 156.029 152.863 156.088 153.119 156.088ZM162.048 157.192C161.526 157.192 161.035 157.101 160.576 156.92C160.128 156.728 159.734 156.461 159.392 156.12C159.062 155.768 158.8 155.341 158.608 154.84C158.416 154.339 158.32 153.768 158.32 153.128C158.32 152.488 158.416 151.917 158.608 151.416C158.811 150.904 159.072 150.472 159.392 150.12C159.723 149.768 160.096 149.501 160.512 149.32C160.928 149.128 161.36 149.032 161.808 149.032C162.299 149.032 162.736 149.117 163.12 149.288C163.515 149.459 163.84 149.704 164.096 150.024C164.363 150.344 164.566 150.728 164.704 151.176C164.843 151.624 164.912 152.125 164.912 152.68C164.912 152.819 164.907 152.957 164.896 153.096C164.896 153.224 164.886 153.336 164.864 153.432H159.616C159.67 154.264 159.926 154.925 160.384 155.416C160.854 155.896 161.462 156.136 162.208 156.136C162.582 156.136 162.923 156.083 163.232 155.976C163.552 155.859 163.856 155.709 164.144 155.528L164.608 156.392C164.267 156.605 163.888 156.792 163.472 156.952C163.056 157.112 162.582 157.192 162.048 157.192ZM159.6 152.488H163.76C163.76 151.699 163.59 151.101 163.248 150.696C162.918 150.28 162.448 150.072 161.84 150.072C161.563 150.072 161.296 150.125 161.04 150.232C160.795 150.339 160.571 150.499 160.368 150.712C160.166 150.915 159.995 151.165 159.856 151.464C159.728 151.763 159.643 152.104 159.6 152.488ZM166.984 157V149.224H168.072L168.184 150.632H168.232C168.499 150.141 168.819 149.752 169.192 149.464C169.576 149.176 169.992 149.032 170.44 149.032C170.749 149.032 171.027 149.085 171.272 149.192L171.016 150.344C170.888 150.301 170.771 150.269 170.664 150.248C170.557 150.227 170.424 150.216 170.264 150.216C169.933 150.216 169.587 150.349 169.224 150.616C168.872 150.883 168.563 151.347 168.296 152.008V157H166.984Z" fill="#A4A9C5"/>
</g>
<rect x="32.5" y="127.5" width="211" height="47" rx="1.5" stroke="#E1E4F3"/>
<path d="M32 193C32 191.895 32.8954 191 34 191H242C243.105 191 244 191.895 244 193V227C244 228.105 243.105 229 242 229H34C32.8954 229 32 228.105 32 227V193Z" fill="#1AD1DB"/>
<path d="M112.745 215V205.19H115.835C116.375 205.19 116.875 205.24 117.335 205.34C117.805 205.44 118.21 205.61 118.55 205.85C118.89 206.09 119.155 206.405 119.345 206.795C119.535 207.175 119.63 207.65 119.63 208.22C119.63 208.76 119.535 209.23 119.345 209.63C119.155 210.03 118.89 210.365 118.55 210.635C118.22 210.895 117.825 211.09 117.365 211.22C116.915 211.34 116.425 211.4 115.895 211.4H114.485V215H112.745ZM114.485 210.005H115.76C117.2 210.005 117.92 209.41 117.92 208.22C117.92 207.6 117.73 207.175 117.35 206.945C116.98 206.705 116.43 206.585 115.7 206.585H114.485V210.005ZM122.999 215.18C122.349 215.18 121.824 214.985 121.424 214.595C121.024 214.195 120.824 213.67 120.824 213.02C120.824 212.63 120.904 212.285 121.064 211.985C121.234 211.675 121.494 211.41 121.844 211.19C122.204 210.97 122.654 210.785 123.194 210.635C123.744 210.485 124.399 210.37 125.159 210.29C125.149 210.1 125.119 209.92 125.069 209.75C125.029 209.57 124.954 209.415 124.844 209.285C124.744 209.145 124.609 209.04 124.439 208.97C124.269 208.89 124.059 208.85 123.809 208.85C123.449 208.85 123.094 208.92 122.744 209.06C122.404 209.2 122.069 209.37 121.739 209.57L121.109 208.415C121.519 208.155 121.979 207.93 122.489 207.74C122.999 207.55 123.549 207.455 124.139 207.455C125.059 207.455 125.744 207.73 126.194 208.28C126.654 208.82 126.884 209.605 126.884 210.635V215H125.459L125.339 214.19H125.279C124.949 214.47 124.594 214.705 124.214 214.895C123.844 215.085 123.439 215.18 122.999 215.18ZM123.554 213.83C123.854 213.83 124.124 213.76 124.364 213.62C124.614 213.48 124.879 213.28 125.159 213.02V211.37C124.659 211.43 124.239 211.51 123.899 211.61C123.559 211.71 123.284 211.825 123.074 211.955C122.864 212.075 122.714 212.215 122.624 212.375C122.534 212.535 122.489 212.705 122.489 212.885C122.489 213.215 122.589 213.455 122.789 213.605C122.989 213.755 123.244 213.83 123.554 213.83ZM129.904 218.03C129.704 218.03 129.529 218.015 129.379 217.985C129.229 217.965 129.084 217.93 128.944 217.88L129.259 216.53C129.329 216.55 129.409 216.57 129.499 216.59C129.599 216.62 129.694 216.635 129.784 216.635C130.174 216.635 130.484 216.515 130.714 216.275C130.954 216.045 131.134 215.745 131.254 215.375L131.389 214.91L128.494 207.635H130.249L131.524 211.25C131.634 211.57 131.739 211.91 131.839 212.27C131.949 212.62 132.059 212.97 132.169 213.32H132.229C132.319 212.98 132.409 212.635 132.499 212.285C132.599 211.925 132.694 211.58 132.784 211.25L133.894 207.635H135.559L132.889 215.33C132.739 215.75 132.574 216.125 132.394 216.455C132.214 216.785 132.004 217.065 131.764 217.295C131.534 217.535 131.264 217.715 130.954 217.835C130.654 217.965 130.304 218.03 129.904 218.03ZM142.933 216.65V215.15C142.473 215.1 142.008 214.98 141.538 214.79C141.078 214.59 140.678 214.33 140.338 214.01L141.118 212.84C141.468 213.12 141.823 213.345 142.183 213.515C142.543 213.685 142.928 213.77 143.338 213.77C143.828 213.77 144.193 213.66 144.433 213.44C144.673 213.21 144.793 212.89 144.793 212.48C144.793 212.15 144.693 211.875 144.493 211.655C144.293 211.435 144.038 211.235 143.728 211.055C143.428 210.875 143.103 210.705 142.753 210.545C142.403 210.375 142.073 210.18 141.763 209.96C141.463 209.73 141.213 209.46 141.013 209.15C140.813 208.83 140.713 208.435 140.713 207.965C140.713 207.265 140.913 206.685 141.313 206.225C141.713 205.755 142.253 205.46 142.933 205.34V203.81H144.133V205.31C144.613 205.37 145.023 205.51 145.363 205.73C145.713 205.94 146.028 206.19 146.308 206.48L145.423 207.485C145.143 207.225 144.873 207.03 144.613 206.9C144.353 206.76 144.043 206.69 143.683 206.69C143.273 206.69 142.953 206.795 142.723 207.005C142.493 207.205 142.378 207.5 142.378 207.89C142.378 208.19 142.478 208.44 142.678 208.64C142.878 208.83 143.128 209.01 143.428 209.18C143.738 209.34 144.068 209.505 144.418 209.675C144.768 209.835 145.093 210.03 145.393 210.26C145.703 210.49 145.958 210.775 146.158 211.115C146.358 211.445 146.458 211.86 146.458 212.36C146.458 213.08 146.258 213.685 145.858 214.175C145.458 214.655 144.883 214.965 144.133 215.105V216.65H142.933ZM148.384 215V213.995C149.044 213.355 149.639 212.765 150.169 212.225C150.709 211.685 151.164 211.185 151.534 210.725C151.914 210.265 152.204 209.835 152.404 209.435C152.604 209.035 152.704 208.655 152.704 208.295C152.704 207.785 152.569 207.385 152.299 207.095C152.029 206.795 151.639 206.645 151.129 206.645C150.759 206.645 150.419 206.75 150.109 206.96C149.809 207.17 149.529 207.42 149.269 207.71L148.309 206.75C148.749 206.28 149.199 205.92 149.659 205.67C150.129 205.41 150.694 205.28 151.354 205.28C151.814 205.28 152.229 205.35 152.599 205.49C152.969 205.63 153.284 205.83 153.544 206.09C153.804 206.34 154.004 206.645 154.144 207.005C154.294 207.365 154.369 207.765 154.369 208.205C154.369 208.625 154.274 209.055 154.084 209.495C153.904 209.925 153.654 210.365 153.334 210.815C153.024 211.255 152.659 211.71 152.239 212.18C151.819 212.65 151.374 213.135 150.904 213.635C151.154 213.615 151.424 213.595 151.714 213.575C152.004 213.545 152.264 213.53 152.494 213.53H154.834V215H148.384ZM159.579 215.18C158.809 215.18 158.159 215.05 157.629 214.79C157.109 214.52 156.674 214.21 156.324 213.86L157.119 212.75C157.409 213.02 157.734 213.26 158.094 213.47C158.454 213.67 158.874 213.77 159.354 213.77C159.894 213.77 160.334 213.61 160.674 213.29C161.024 212.97 161.199 212.52 161.199 211.94C161.199 211.37 161.039 210.93 160.719 210.62C160.399 210.31 159.974 210.155 159.444 210.155C159.134 210.155 158.874 210.2 158.664 210.29C158.454 210.37 158.204 210.505 157.914 210.695L157.089 210.17L157.374 205.46H162.474V206.915H158.874L158.679 209.225C158.879 209.125 159.074 209.05 159.264 209C159.464 208.94 159.689 208.91 159.939 208.91C160.349 208.91 160.734 208.97 161.094 209.09C161.464 209.21 161.784 209.395 162.054 209.645C162.324 209.885 162.539 210.195 162.699 210.575C162.859 210.945 162.939 211.385 162.939 211.895C162.939 212.415 162.844 212.88 162.654 213.29C162.474 213.7 162.229 214.045 161.919 214.325C161.609 214.605 161.249 214.82 160.839 214.97C160.439 215.11 160.019 215.18 159.579 215.18Z" fill="#F2F3FF"/>
<path d="M34 192H242V190H34V192ZM243 193V227H245V193H243ZM242 228H34V230H242V228ZM33 227V193H31V227H33ZM34 228C33.4477 228 33 227.552 33 227H31C31 228.657 32.3432 230 34 230V228ZM243 227C243 227.552 242.552 228 242 228V230C243.657 230 245 228.657 245 227H243ZM242 192C242.552 192 243 192.448 243 193H245C245 191.343 243.657 190 242 190V192ZM34 190C32.3431 190 31 191.343 31 193H33C33 192.448 33.4477 192 34 192V190Z" fill="black" fill-opacity="0.05"/>
</g>
</g>
<rect x="219" y="49" width="32" height="32" rx="0.8" fill="#1AD1DB"/>
<path fill-rule="evenodd" clip-rule="evenodd" d="M238.764 71.0993H237.229V60.2769H231.235V58.964H238.764V71.0993Z" fill="#0C0E19"/>
<defs>
<filter id="filter0_dddddd" x="-80" y="62" width="401" height="324" filterUnits="userSpaceOnUse" color-interpolation-filters="sRGB">
<feFlood flood-opacity="0" result="BackgroundImageFix"/>
<feColorMatrix in="SourceAlpha" type="matrix" values="0 0 0 0 0 0 0 0 0 0 0 0 0 0 0 0 0 0 127 0"/>
<feOffset dy="2.76726"/>
<feGaussianBlur stdDeviation="1.1069"/>
<feColorMatrix type="matrix" values="0 0 0 0 0 0 0 0 0 0 0 0 0 0 0 0 0 0 0.01 0"/>
<feBlend mode="normal" in2="BackgroundImageFix" result="effect1_dropShadow"/>
<feColorMatrix in="SourceAlpha" type="matrix" values="0 0 0 0 0 0 0 0 0 0 0 0 0 0 0 0 0 0 127 0"/>
<feOffset dy="6.6501"/>
<feGaussianBlur stdDeviation="2.66004"/>
<feColorMatrix type="matrix" values="0 0 0 0 0 0 0 0 0 0 0 0 0 0 0 0 0 0 0.0121168 0"/>
<feBlend mode="normal" in2="effect1_dropShadow" result="effect2_dropShadow"/>
<feColorMatrix in="SourceAlpha" type="matrix" values="0 0 0 0 0 0 0 0 0 0 0 0 0 0 0 0 0 0 127 0"/>
<feOffset dy="12.5216"/>
<feGaussianBlur stdDeviation="5.00862"/>
<feColorMatrix type="matrix" values="0 0 0 0 0 0 0 0 0 0 0 0 0 0 0 0 0 0 0.015 0"/>
<feBlend mode="normal" in2="effect2_dropShadow" result="effect3_dropShadow"/>
<feColorMatrix in="SourceAlpha" type="matrix" values="0 0 0 0 0 0 0 0 0 0 0 0 0 0 0 0 0 0 127 0"/>
<feOffset dy="22.3363"/>
<feGaussianBlur stdDeviation="8.93452"/>
<feColorMatrix type="matrix" values="0 0 0 0 0 0 0 0 0 0 0 0 0 0 0 0 0 0 0.0178832 0"/>
<feBlend mode="normal" in2="effect3_dropShadow" result="effect4_dropShadow"/>
<feColorMatrix in="SourceAlpha" type="matrix" values="0 0 0 0 0 0 0 0 0 0 0 0 0 0 0 0 0 0 127 0"/>
<feOffset dy="41.7776"/>
<feGaussianBlur stdDeviation="16.711"/>
<feColorMatrix type="matrix" values="0 0 0 0 0 0 0 0 0 0 0 0 0 0 0 0 0 0 0.0215656 0"/>
<feBlend mode="normal" in2="effect4_dropShadow" result="effect5_dropShadow"/>
<feColorMatrix in="SourceAlpha" type="matrix" values="0 0 0 0 0 0 0 0 0 0 0 0 0 0 0 0 0 0 127 0"/>
<feOffset dy="100"/>
<feGaussianBlur stdDeviation="40"/>
<feColorMatrix type="matrix" values="0 0 0 0 0 0 0 0 0 0 0 0 0 0 0 0 0 0 0.03 0"/>
<feBlend mode="normal" in2="effect5_dropShadow" result="effect6_dropShadow"/>
<feBlend mode="normal" in="SourceGraphic" in2="effect6_dropShadow" result="shape"/>
</filter>
<linearGradient id="paint0_linear" x1="282.006" y1="-1.00635" x2="169" y2="106.5" gradientUnits="userSpaceOnUse">
<stop/>
<stop offset="1" stop-opacity="0"/>
</linearGradient>
<linearGradient id="paint1_linear" x1="48" y1="143" x2="72" y2="159" gradientUnits="userSpaceOnUse">
<stop stop-color="white"/>
<stop offset="1" stop-color="white" stop-opacity="0"/>
</linearGradient>
<clipPath id="clip0">
<rect y="62" width="241" height="144" rx="2" fill="white"/>
</clipPath>
<clipPath id="clip1">
<rect width="16" height="16" fill="white" transform="translate(211 70.5)"/>
</clipPath>
<clipPath id="clip2">
</clipPath>
</defs>
</svg>
