<svg width="62" height="30" viewBox="0 0 62 30" fill="none" xmlns="http://www.w3.org/2000/svg">
<path fill-rule="evenodd" clip-rule="evenodd" d="M0 0.92041H2.85458C4.9134 0.92041 6.30887 1.61051 6.30887 3.37777C6.30887 4.37598 5.74102 5.2647 4.54418 5.57282V5.63392C6.01859 5.86438 6.87801 6.66399 6.87801 8.04545C6.87801 10.0253 5.34248 10.9917 3.08504 10.9917H0V0.92041ZM2.63942 5.15774C4.36083 5.15774 5.04964 4.60389 5.04964 3.48472C5.04964 2.39483 4.2526 1.9963 2.7018 1.9963H1.27324V5.15774H2.63942ZM2.90169 9.91837C4.62184 9.91837 5.61878 9.34923 5.61878 7.98305C5.61878 6.73909 4.6664 6.23363 2.90169 6.23363H1.27324V9.91837H2.90169Z" fill="#E2E4F8"/>
<path fill-rule="evenodd" clip-rule="evenodd" d="M11.085 7.27794C11.085 4.85115 12.6956 3.34619 14.4921 3.34619C15.3516 3.34619 16.0735 3.70016 16.7649 4.35969H16.8107L16.9342 3.53082H17.9477V10.992H16.9024L16.7967 10.0103H16.7509C16.1346 10.638 15.2306 11.1766 14.3088 11.1766C12.39 11.1766 11.085 9.7633 11.085 7.27794ZM16.6732 8.99553V5.28152C15.9971 4.65126 15.3681 4.42081 14.7239 4.42081C13.4341 4.42081 12.39 5.55781 12.39 7.26013C12.39 9.04266 13.2189 10.102 14.5851 10.102C15.321 10.102 16.0136 9.73274 16.6732 8.99553Z" fill="#E2E4F8"/>
<path fill-rule="evenodd" clip-rule="evenodd" d="M22.3904 10.01L22.9748 9.1633C23.833 9.77827 24.8465 10.1781 26.2126 10.1781C27.4719 10.1781 28.0843 9.65732 28.0843 9.02707C28.0843 8.45921 27.7927 8.0594 25.7683 7.6456C23.8164 7.24708 22.85 6.58628 22.85 5.46583C22.85 4.26899 23.9106 3.34717 25.9516 3.34717C27.0873 3.34717 28.2231 3.79279 28.959 4.29827L28.3466 5.11187C27.6552 4.63568 26.797 4.33011 25.8447 4.33011C24.5842 4.33011 24.1258 4.83685 24.1258 5.40217C24.1258 6.04897 24.7688 6.32399 26.3056 6.64739C28.7757 7.18597 29.3754 7.79967 29.3754 8.9494C29.3754 10.1641 28.1925 11.1763 26.0599 11.1763C24.6007 11.1763 23.2969 10.6403 22.3904 10.01Z" fill="#E2E4F8"/>
<path fill-rule="evenodd" clip-rule="evenodd" d="M37.2727 4.55945H33.8171V3.53194H38.5472V10.9931H37.2727V4.55945ZM36.7647 0.982923C36.7647 0.399781 37.195 0 37.7782 0C38.3626 0 38.7917 0.399781 38.7917 0.982923C38.7917 1.58134 38.3626 1.9646 37.7782 1.9646C37.195 1.9646 36.7647 1.58134 36.7647 0.982923Z" fill="#E2E4F8"/>
<path fill-rule="evenodd" clip-rule="evenodd" d="M43.3857 10.01L43.9702 9.1633C44.8283 9.77827 45.8418 10.1781 47.208 10.1781C48.4672 10.1781 49.0809 9.65732 49.0809 9.02707C49.0809 8.45921 48.7894 8.0594 46.7636 7.6456C44.813 7.24708 43.8454 6.58628 43.8454 5.46583C43.8454 4.26899 44.906 3.34717 46.947 3.34717C48.084 3.34717 49.2197 3.79279 49.9556 4.29827L49.3419 5.11187C48.6506 4.63568 47.7924 4.33011 46.84 4.33011C45.5808 4.33011 45.1212 4.83685 45.1212 5.40217C45.1212 6.04897 45.7654 6.32399 47.3009 6.64739C49.7723 7.18597 50.3707 7.79967 50.3707 8.9494C50.3707 10.1641 49.1892 11.1763 47.0552 11.1763C45.5961 11.1763 44.2923 10.6403 43.3857 10.01Z" fill="#E2E4F8"/>
<path fill-rule="evenodd" clip-rule="evenodd" d="M44.5229 19.3291H50.3264V20.3566H45.7962V26.7903H44.5229V19.3291Z" fill="#E2E4F8"/>
<path fill-rule="evenodd" clip-rule="evenodd" d="M0 15.8584V16.9496H4.97453V26.7458H6.24777V15.8584H0Z" fill="#E2E4F8"/>
<path fill-rule="evenodd" clip-rule="evenodd" d="M11.5916 15.8584H12.8661V18.8378L12.7897 20.6038H12.8355C13.588 19.7736 14.4627 19.1446 15.6137 19.1446C17.3784 19.1446 18.1933 20.19 18.1933 22.1546V26.7891H16.9188V22.3213C16.9188 20.9106 16.4286 20.2498 15.2152 20.2498C14.3239 20.2498 13.7255 20.6954 12.8661 21.5854V26.7891H11.5916V15.8584Z" fill="#E2E4F8"/>
<path fill-rule="evenodd" clip-rule="evenodd" d="M33.3577 23.075C33.3577 20.5718 35.0765 19.1445 37.0411 19.1445C39.007 19.1445 40.7272 20.5718 40.7272 23.075C40.7272 25.5464 39.007 26.9749 37.0411 26.9749C35.0765 26.9749 33.3577 25.5464 33.3577 23.075ZM39.4221 23.075C39.4221 21.3561 38.4697 20.2039 37.0411 20.2039C35.6138 20.2039 34.6627 21.3561 34.6627 23.075C34.6627 24.7786 35.6138 25.9156 37.0411 25.9156C38.4697 25.9156 39.4221 24.7786 39.4221 23.075Z" fill="#E2E4F8"/>
<path fill-rule="evenodd" clip-rule="evenodd" d="M53.5769 29.8457L53.8392 28.8322C54.0378 28.8934 54.2835 28.9392 54.514 28.9392C55.558 28.9392 56.1883 28.2784 56.555 27.3578L56.7702 26.8052L53.3019 19.3301H54.5904L56.4035 23.4414C56.6938 24.1047 57.0172 24.8865 57.3228 25.6071H57.3864C57.6462 24.9018 57.939 24.1187 58.1835 23.4414L59.7954 19.3301H61.0228L57.7238 27.4049C57.1713 28.8793 56.2647 29.9998 54.5586 29.9998C54.2071 29.9998 53.8392 29.9374 53.5769 29.8457Z" fill="#E2E4F8"/>
<path d="M26.3762 26.9809C25.8129 26.9809 25.2855 26.8939 24.7939 26.7199C24.3126 26.5458 23.8875 26.2899 23.5188 25.9521C23.1604 25.6142 22.8736 25.2047 22.6586 24.7236C22.4537 24.2322 22.3513 23.6743 22.3513 23.0498C22.3513 22.4458 22.4537 21.9032 22.6586 21.4221C22.8736 20.9409 23.1553 20.5314 23.5035 20.1936C23.8619 19.8558 24.2665 19.5999 24.7171 19.4258C25.178 19.2415 25.6593 19.1494 26.1612 19.1494C26.6937 19.1494 27.1699 19.2364 27.5898 19.4105C28.02 19.5743 28.3784 19.8097 28.6652 20.1168C28.9622 20.424 29.1875 20.7925 29.3411 21.2225C29.4948 21.6524 29.5716 22.1285 29.5716 22.6506C29.5716 22.7939 29.5664 22.9321 29.5562 23.0652C29.546 23.1982 29.5306 23.316 29.5101 23.4183H23.6264C23.7083 24.268 24.0156 24.9079 24.5481 25.3378C25.0909 25.7576 25.7515 25.9674 26.5298 25.9674C26.9805 25.9674 27.385 25.906 27.7435 25.7831C28.1122 25.6501 28.4655 25.476 28.8035 25.261L29.2643 26.0903C28.8956 26.336 28.4706 26.5458 27.9893 26.7199C27.5182 26.8939 26.9805 26.9809 26.3762 26.9809ZM26.1919 20.1475C25.8846 20.1475 25.5876 20.1987 25.3009 20.3011C25.0243 20.4035 24.7734 20.5519 24.5481 20.7464C24.3228 20.9307 24.1333 21.1662 23.9797 21.4528C23.8261 21.7394 23.7186 22.067 23.6571 22.4356H28.4194C28.3682 21.6678 28.1429 21.0945 27.7435 20.7157C27.3543 20.3369 26.8371 20.1475 26.1919 20.1475Z" fill="#E2E4F8"/>
</svg>
