<svg width="116" height="40" viewBox="0 0 116 40" fill="none" xmlns="http://www.w3.org/2000/svg">
<path d="M89.9588 5.67338C90.3888 5.55099 90.8883 5.62266 91.2323 5.92037C91.8023 6.3989 91.7858 7.4111 91.1805 7.85435C90.5652 8.32406 89.5078 8.14543 89.1969 7.39897C88.8848 6.74402 89.2388 5.85862 89.9588 5.67338Z" fill="white"/>
<path d="M53.1519 6.66037C54.3041 6.66368 55.4563 6.65265 56.6096 6.66588C57.6031 6.70227 58.6925 6.89302 59.4147 7.63728C60.4952 8.77187 60.1997 10.9032 58.7708 11.6177C59.5261 11.8548 60.224 12.3906 60.4798 13.1625C60.8437 14.2684 60.5978 15.618 59.7069 16.4086C58.8987 17.1319 57.7762 17.3612 56.7221 17.3877C55.5324 17.3932 54.3416 17.3888 53.1519 17.3899C53.1519 13.813 53.1508 10.2372 53.1519 6.66037ZM54.9425 8.25254C54.9436 9.15778 54.9414 10.0619 54.9436 10.9672C55.8444 10.9385 56.8015 11.0796 57.6472 10.6926C58.258 10.4159 58.3992 9.62309 58.2084 9.0387C58.0728 8.63625 57.6516 8.43778 57.2646 8.35508C56.5016 8.1919 55.7165 8.27129 54.9425 8.25254ZM54.9436 12.5593C54.9425 13.6388 54.9447 14.7183 54.9425 15.7977C55.9977 15.7569 57.129 15.9554 58.1103 15.4625C58.8292 15.113 59.0211 14.1603 58.7465 13.4646C58.5613 13.0246 58.0993 12.7931 57.6582 12.6883C56.7684 12.48 55.8477 12.5847 54.9436 12.5593Z" fill="white"/>
<path d="M97.9376 9.28889C99.6643 8.69237 101.638 9.10585 103.094 10.1721C102.789 10.5822 102.481 10.9891 102.172 11.396C101.285 10.741 100.156 10.3926 99.0556 10.5492C98.7557 10.5977 98.4338 10.6859 98.2265 10.9241C98.0192 11.1567 98.0093 11.5768 98.2783 11.7687C98.6344 12.0245 99.0722 12.127 99.4901 12.2373C100.401 12.4512 101.339 12.6166 102.185 13.0378C102.633 13.2583 103.055 13.5935 103.25 14.0665C103.543 14.7909 103.443 15.6807 102.934 16.285C102.419 16.9212 101.62 17.2497 100.832 17.3843C99.0435 17.6864 97.1669 17.1681 95.7158 16.0975C96.0102 15.6752 96.3013 15.2518 96.5935 14.8273C97.7336 15.716 99.2442 16.1394 100.675 15.8836C101.116 15.7954 101.649 15.4911 101.598 14.9695C101.593 14.5682 101.173 14.3841 100.856 14.2584C99.6334 13.8052 98.2386 13.7964 97.1448 13.019C96.5174 12.61 96.1679 11.8293 96.3057 11.0883C96.4182 10.2206 97.1371 9.55792 97.9376 9.28889Z" fill="white"/>
<path d="M65.7901 10.0166C66.7504 9.14224 68.2323 8.85667 69.4254 9.39915C69.7418 9.53588 70.023 9.73655 70.2975 9.94053C70.3273 9.73104 70.3582 9.52265 70.389 9.31425C70.8863 9.31315 71.3836 9.31315 71.882 9.31315C71.8831 12.0057 71.882 14.6972 71.882 17.3898C71.3704 17.3909 70.8599 17.3898 70.3482 17.3898C70.3207 17.1362 70.2931 16.8815 70.2678 16.6279C69.7231 17.0711 69.088 17.4273 68.3878 17.5419C67.2885 17.7029 66.0878 17.3181 65.3711 16.447C64.6422 15.5793 64.403 14.4083 64.4129 13.3013C64.4195 12.0862 64.8628 10.8336 65.7901 10.0166ZM66.2774 12.8018C66.1782 13.6464 66.2554 14.5748 66.7581 15.2893C67.1672 15.8715 67.9479 16.0942 68.6249 15.9432C69.2081 15.8252 69.6878 15.4382 70.0902 15.0192C70.0891 13.8261 70.0913 12.632 70.0891 11.439C69.4937 10.9053 68.6613 10.5525 67.8608 10.7818C66.9599 11.0189 66.3899 11.9164 66.2774 12.8018Z" fill="white"/>
<path d="M77.9557 9.42237C79.6945 8.78947 81.7023 9.20185 83.1754 10.2824C82.87 10.6915 82.5602 11.0983 82.2547 11.5074C81.312 10.8006 80.0716 10.45 78.9072 10.7036C78.5147 10.7775 78.099 11.0906 78.1607 11.535C78.2181 11.9099 78.6305 12.0477 78.9392 12.1624C80.2017 12.578 81.6152 12.6398 82.73 13.4293C83.4434 13.9221 83.6429 14.9068 83.3937 15.7017C83.1964 16.3236 82.6991 16.811 82.1257 17.101C81.3308 17.5034 80.4178 17.6104 79.5368 17.5685C78.1905 17.5023 76.8872 16.9951 75.7979 16.21C76.0889 15.7833 76.3866 15.361 76.6766 14.9343C77.809 15.823 79.3108 16.2409 80.7353 15.9961C81.1929 15.9134 81.7431 15.5992 81.6803 15.0589C81.6615 14.6565 81.2348 14.4878 80.9173 14.3577C79.6934 13.9144 78.2986 13.899 77.2103 13.115C76.627 12.7192 76.2775 12.0091 76.3756 11.3045C76.4418 10.4169 77.1474 9.71015 77.9557 9.42237Z" fill="white"/>
<path d="M86.0921 10.7465C86.091 10.2316 86.091 9.7178 86.0921 9.20288C87.8607 9.20398 89.6293 9.20288 91.3979 9.20398C91.3979 11.8955 91.3979 14.588 91.3979 17.2795C90.8003 17.2795 90.2038 17.2795 89.6062 17.2795C89.6051 15.1019 89.6062 12.9242 89.6062 10.7476C88.4341 10.7465 87.2631 10.7476 86.0921 10.7465Z" fill="white"/>
<path d="M53.1509 21.8368C55.4344 21.8324 57.7179 21.8357 60.0014 21.8357C60.0014 25.6871 60.0014 29.5396 60.0014 33.3921C59.4038 33.3921 58.8073 33.3921 58.2097 33.391C58.2086 30.0744 58.2097 26.7577 58.2097 23.4411C56.5238 23.44 54.8379 23.4422 53.152 23.4411C53.1509 22.9063 53.152 22.3715 53.1509 21.8368Z" fill="white"/>
<path d="M64.9293 21.8356C65.5269 21.8345 66.1235 21.8356 66.7211 21.8345C66.7067 23.3263 66.7586 24.8192 66.6704 26.3089C67.2999 25.7234 68.085 25.2548 68.9583 25.1864C69.7985 25.1158 70.7324 25.2912 71.3333 25.9274C71.9651 26.5812 72.1239 27.535 72.1349 28.4115C72.1404 30.0875 72.136 31.7635 72.1371 33.4395C71.5373 33.4406 70.9375 33.4395 70.3387 33.4395C70.3376 31.801 70.3398 30.1625 70.3376 28.524C70.3255 28.0598 70.2737 27.5526 69.9649 27.1821C69.6386 26.8072 69.0928 26.7687 68.6308 26.805C67.8413 26.8811 67.2492 27.471 66.72 28.0047C66.7222 29.8163 66.7211 31.6279 66.72 33.4395C66.1224 33.4406 65.5258 33.4395 64.9282 33.4406C64.9293 29.5715 64.9282 25.7035 64.9293 21.8356Z" fill="white"/>
<path d="M76.8946 26.5282C78.07 25.1929 80.1484 24.7993 81.7483 25.5557C82.551 25.9184 83.1674 26.6385 83.4507 27.4676C83.7308 28.2824 83.7573 29.1734 83.5886 30.0158C81.6182 30.0146 79.6489 30.0135 77.6797 30.0158C77.7965 30.7567 78.2244 31.4723 78.9256 31.7887C80.1672 32.404 81.6689 32.0743 82.7539 31.2849C82.9876 31.7105 83.2247 32.1339 83.4607 32.5584C82.5973 33.1538 81.5884 33.5805 80.5299 33.6235C79.3303 33.6996 78.0689 33.3765 77.1648 32.5573C75.4998 31.0533 75.4149 28.1876 76.8946 26.5282ZM78.7448 27.0552C78.2199 27.375 77.8936 27.9285 77.7359 28.5107C79.1583 28.5151 80.5806 28.5129 82.0041 28.5118C81.9181 27.934 81.6877 27.3265 81.1716 27.0034C80.4472 26.5502 79.456 26.5966 78.7448 27.0552Z" fill="white"/>
<path d="M90.0644 25.2822C91.2972 24.9911 92.6787 25.2734 93.6413 26.1147C95.497 27.7499 95.5058 31.0588 93.638 32.6885C92.1561 33.9796 89.7061 33.9322 88.287 32.565C86.9011 31.2429 86.7015 28.9958 87.4998 27.3121C87.9904 26.2933 88.9607 25.5292 90.0644 25.2822ZM90.3963 26.8369C89.9398 26.9747 89.5462 27.2901 89.3003 27.6969C88.888 28.3662 88.8031 29.1899 88.899 29.9573C88.9894 30.6431 89.3025 31.3477 89.9024 31.7325C90.694 32.2419 91.8529 32.1427 92.5034 31.4447C93.0161 30.9044 93.2025 30.1304 93.1981 29.4027C93.197 28.6485 92.9996 27.8414 92.4428 27.3011C91.9179 26.774 91.0954 26.6285 90.3963 26.8369Z" fill="white"/>
<path d="M98.3774 25.3672C100.51 25.3573 102.642 25.3661 104.774 25.3628C104.774 25.8755 104.774 26.3871 104.774 26.8998C103.239 26.9009 101.705 26.8998 100.171 26.9009C100.169 29.0797 100.172 31.2595 100.169 33.4394C99.5727 33.4405 98.9751 33.4405 98.3785 33.4394C98.3785 30.749 98.3796 28.0587 98.3774 25.3672Z" fill="white"/>
<path d="M107.159 25.365C107.78 25.3617 108.401 25.3628 109.021 25.3639C109.898 27.3718 110.803 29.3664 111.652 31.3864C112.38 29.362 113.193 27.3695 113.972 25.3639C114.568 25.3617 115.164 25.3639 115.761 25.3628C114.759 27.815 113.757 30.2672 112.756 32.7194C112.281 33.8143 111.959 35.047 111.041 35.8762C110.116 36.7473 108.687 36.9016 107.526 36.4595C107.654 35.9556 107.785 35.4539 107.917 34.9522C108.492 35.1584 109.17 35.2157 109.708 34.8772C110.302 34.5123 110.573 33.8342 110.8 33.2079C109.583 30.5958 108.371 27.9793 107.159 25.365Z" fill="white"/>
<rect width="40" height="40" fill="#1E233B"/>
<path fill-rule="evenodd" clip-rule="evenodd" d="M24.7057 27.6239H22.7869V14.096H15.2944V12.4548H24.7057V27.6239Z" fill="#1AD1DB"/>
</svg>
