<svg width="283" height="120" viewBox="0 0 283 120" fill="none" xmlns="http://www.w3.org/2000/svg">
<g clip-path="url(#clip0)">
<rect width="282.667" height="120" fill="#5F7BFF"/>
<rect x="24" y="28" width="64" height="64" rx="32" fill="url(#paint0_linear)" fill-opacity="0.1"/>
<g filter="url(#filter0_d)">
<path fill-rule="evenodd" clip-rule="evenodd" d="M56 49C49.9236 49 45 53.9129 45 60C45 66.0764 49.9129 71 56 71C62.0757 71 67 66.0757 67 60C67 53.9243 62.0757 49 56 49ZM43 60C43 52.8071 48.8204 47 56 47C63.1803 47 69 52.8197 69 60C69 67.1803 63.1803 73 56 73C48.8071 73 43 67.1796 43 60ZM54.0404 55.2929C54.431 55.6834 54.431 56.3166 54.0404 56.7071L52.0809 58.6667L54.0404 60.6262C54.431 61.0168 54.431 61.6499 54.0404 62.0404C53.6499 62.431 53.0168 62.431 52.6262 62.0404L49.9596 59.3738C49.569 58.9832 49.569 58.3501 49.9596 57.9596L52.6262 55.2929C53.0168 54.9024 53.6499 54.9024 54.0404 55.2929ZM57.9596 57.9596C58.3501 57.569 58.9832 57.569 59.3738 57.9596L62.0404 60.6262C62.431 61.0168 62.431 61.6499 62.0404 62.0404L59.3738 64.7071C58.9832 65.0976 58.3501 65.0976 57.9596 64.7071C57.569 64.3166 57.569 63.6834 57.9596 63.2929L59.9191 61.3333L57.9596 59.3738C57.569 58.9832 57.569 58.3501 57.9596 57.9596Z" fill="white"/>
</g>
<path d="M370.639 46.0047L431.985 81.4232M370.639 46.0047L309.292 81.4232M370.639 46.0047L332.772 24.1426M370.639 46.0047L332.772 67.8668M431.985 81.4232L370.639 116.842M431.985 81.4232L469.851 59.5611L370.639 2.28054M431.985 81.4232L332.772 24.1426M370.639 116.842L309.292 81.4232M370.639 116.842L271.426 174.122L233.56 152.26M370.639 116.842L332.772 94.9796M309.292 81.4232L323.678 73.1175M309.292 81.4232L294.906 73.1175M370.639 2.28054L332.772 24.1426M370.639 2.28054L309.292 -33.1379M370.639 2.28054L309.292 37.699M332.772 24.1426L294.906 46.0047M332.772 67.8668L294.906 46.0047M332.772 67.8668L323.761 62.6638M332.772 67.8668L323.678 73.1175M294.906 46.0047L318.387 59.5611M294.906 46.0047L271.426 59.5611M294.906 46.0047L271.426 32.4483M294.906 46.0047L309.292 37.699M294.906 46.0047L280.52 37.699M318.387 59.5611L294.906 73.1175M318.387 59.5611L323.761 62.6638M318.387 59.5611L309.292 64.8118M294.906 73.1175L271.426 59.5611M294.906 73.1175L309.292 64.8118M294.906 73.1175L257.04 94.9796M294.906 73.1175L332.772 94.9796M294.906 73.1175L271.426 86.6739M271.426 59.5611L247.945 46.0047M271.426 59.5611L247.945 73.1175M309.292 64.8118L323.678 73.1175M309.292 64.8118L314.666 67.9145M323.678 73.1175L314.666 67.9145M323.761 62.6638L314.666 67.9145M172.213 73.1175L110.866 37.699M172.213 73.1175L233.56 37.699M172.213 73.1175L210.079 94.9796M172.213 73.1175L210.079 51.2554M110.866 37.699L172.213 2.28055M110.866 37.699L73.0001 59.5611L172.213 116.842M110.866 37.699L210.079 94.9796M172.213 2.28055L233.56 37.699M172.213 2.28055L271.426 -55L309.292 -33.1379M172.213 2.28055L210.079 24.1426M233.56 37.699L219.174 46.0047M233.56 37.699L247.945 46.0047M172.213 116.842L210.079 94.9796M172.213 116.842L233.56 152.26M172.213 116.842L233.56 81.4232M210.079 94.9796L247.945 73.1175M210.079 51.2554L247.945 73.1175M210.079 51.2554L219.091 56.4584M210.079 51.2554L219.174 46.0047M247.945 73.1175L224.465 59.5611M247.945 73.1175L271.426 86.6739M247.945 73.1175L233.56 81.4232M247.945 73.1175L262.331 81.4232M224.465 59.5611L247.945 46.0047M224.465 59.5611L219.091 56.4584M224.465 59.5611L233.56 54.3104M247.945 46.0047L233.56 54.3104M247.945 46.0047L285.812 24.1426M247.945 46.0047L210.079 24.1426M247.945 46.0047L271.426 32.4483M233.56 54.3104L219.174 46.0047M233.56 54.3104L228.186 51.2077M219.174 46.0047L228.186 51.2077M219.091 56.4584L228.186 51.2077M294.906 116.842L233.56 152.26M294.906 116.842L233.56 81.4232M294.906 116.842L332.772 94.9796M294.906 116.842L257.04 94.9796M233.56 152.26L332.772 94.9796M233.56 81.4232L247.945 89.7288M257.04 94.9796L266.052 89.7766M257.04 94.9796L247.945 89.7288M271.426 86.6739L266.052 89.7766M271.426 86.6739L262.331 81.4232M262.331 81.4232L247.945 89.7288M262.331 81.4232L256.957 84.5259M247.945 89.7288L256.957 84.5259M266.052 89.7766L256.957 84.5259M247.945 2.28055L309.292 -33.1379M247.945 2.28055L309.292 37.699M247.945 2.28055L210.079 24.1426M247.945 2.28055L285.812 24.1426M309.292 -33.1379L210.079 24.1426M309.292 37.699L294.906 29.3933M285.812 24.1426L276.8 29.3456M285.812 24.1426L294.906 29.3933M271.426 32.4483L276.8 29.3456M271.426 32.4483L280.52 37.699M280.52 37.699L294.906 29.3933M280.52 37.699L285.894 34.5963M294.906 29.3933L285.894 34.5963M276.8 29.3456L285.894 34.5963" stroke="url(#paint1_radial)" stroke-opacity="0.18" stroke-linecap="round"/>
</g>
<defs>
<filter id="filter0_d" x="38" y="43" width="36" height="36" filterUnits="userSpaceOnUse" color-interpolation-filters="sRGB">
<feFlood flood-opacity="0" result="BackgroundImageFix"/>
<feColorMatrix in="SourceAlpha" type="matrix" values="0 0 0 0 0 0 0 0 0 0 0 0 0 0 0 0 0 0 127 0" result="hardAlpha"/>
<feOffset dy="1"/>
<feGaussianBlur stdDeviation="1"/>
<feColorMatrix type="matrix" values="0 0 0 0 0.133698 0 0 0 0 0.155763 0 0 0 0 0.2125 0 0 0 0.1 0"/>
<feBlend mode="normal" in2="BackgroundImageFix" result="effect1_dropShadow"/>
<feBlend mode="normal" in="SourceGraphic" in2="effect1_dropShadow" result="shape"/>
</filter>
<linearGradient id="paint0_linear" x1="24" y1="28" x2="100" y2="103.5" gradientUnits="userSpaceOnUse">
<stop stop-color="#13172A"/>
<stop offset="1" stop-color="#13172A" stop-opacity="0"/>
</linearGradient>
<radialGradient id="paint1_radial" cx="0" cy="0" r="1" gradientUnits="userSpaceOnUse" gradientTransform="translate(271.426 59.5611) rotate(0.0200761) scale(156.536 74.9486)">
<stop stop-color="#2E374F"/>
<stop offset="1" stop-color="#2E374F" stop-opacity="0"/>
</radialGradient>
<clipPath id="clip0">
<rect width="282.667" height="120" fill="white"/>
</clipPath>
</defs>
</svg>
