<svg width="436" height="120" viewBox="0 0 436 120" fill="none" xmlns="http://www.w3.org/2000/svg">
<g clip-path="url(#clip0)">
<rect width="436" height="120" fill="#8D67F0"/>
<rect x="24" y="28" width="64" height="64" rx="32" fill="url(#paint0_linear)" fill-opacity="0.1"/>
<g filter="url(#filter0_d)">
<path fill-rule="evenodd" clip-rule="evenodd" d="M48 51.6667C46.343 51.6667 45 53.0096 45 54.6667V55H67V54.6667C67 53.0096 65.657 51.6667 64 51.6667H48ZM69 54.6667C69 51.9051 66.7616 49.6667 64 49.6667H48C45.2384 49.6667 43 51.9051 43 54.6667V65.3334C43 68.095 45.2384 70.3334 48 70.3334H64C66.7616 70.3334 69 68.095 69 65.3334V54.6667ZM67 57H45V65.3334C45 66.9904 46.343 68.3334 48 68.3334H64C65.657 68.3334 67 66.9904 67 65.3334V57ZM48.3333 61.3334C48.3333 60.7811 48.781 60.3334 49.3333 60.3334H52.76C53.3123 60.3334 53.76 60.7811 53.76 61.3334C53.76 61.8856 53.3123 62.3334 52.76 62.3334H49.3333C48.781 62.3334 48.3333 61.8856 48.3333 61.3334Z" fill="white"/>
</g>
<path d="M523.639 46.0047L584.985 81.4232M523.639 46.0047L462.292 81.4232M523.639 46.0047L485.772 24.1426M523.639 46.0047L485.772 67.8668M584.985 81.4232L523.639 116.842M584.985 81.4232L622.851 59.5611L523.639 2.28055M584.985 81.4232L485.772 24.1426M523.639 116.842L462.292 81.4232M523.639 116.842L424.426 174.122L386.56 152.26M523.639 116.842L485.772 94.9796M462.292 81.4232L476.678 73.1175M462.292 81.4232L447.906 73.1175M523.639 2.28055L485.772 24.1426M523.639 2.28055L462.292 -33.1379M523.639 2.28055L462.292 37.699M485.772 24.1426L447.906 46.0047M485.772 67.8668L447.906 46.0047M485.772 67.8668L476.761 62.6638M485.772 67.8668L476.678 73.1175M447.906 46.0047L471.387 59.5611M447.906 46.0047L424.426 59.5611M447.906 46.0047L424.426 32.4483M447.906 46.0047L462.292 37.699M447.906 46.0047L433.52 37.699M471.387 59.5611L447.906 73.1175M471.387 59.5611L476.761 62.6638M471.387 59.5611L462.292 64.8118M447.906 73.1175L424.426 59.5611M447.906 73.1175L462.292 64.8118M447.906 73.1175L410.04 94.9796M447.906 73.1175L485.772 94.9796M447.906 73.1175L424.426 86.6739M424.426 59.5611L400.945 46.0047M424.426 59.5611L400.945 73.1175M462.292 64.8118L476.678 73.1175M462.292 64.8118L467.666 67.9145M476.678 73.1175L467.666 67.9145M476.761 62.6638L467.666 67.9145M325.213 73.1175L263.866 37.699M325.213 73.1175L386.56 37.699M325.213 73.1175L363.079 94.9796M325.213 73.1175L363.079 51.2554M263.866 37.699L325.213 2.28055M263.866 37.699L226 59.5611L325.213 116.842M263.866 37.699L363.079 94.9796M325.213 2.28055L386.56 37.699M325.213 2.28055L424.426 -55L462.292 -33.1379M325.213 2.28055L363.079 24.1426M386.56 37.699L372.174 46.0047M386.56 37.699L400.945 46.0047M325.213 116.842L363.079 94.9796M325.213 116.842L386.56 152.26M325.213 116.842L386.56 81.4232M363.079 94.9796L400.945 73.1175M363.079 51.2554L400.945 73.1175M363.079 51.2554L372.091 56.4584M363.079 51.2554L372.174 46.0047M400.945 73.1175L377.465 59.5611M400.945 73.1175L424.426 86.6739M400.945 73.1175L386.56 81.4232M400.945 73.1175L415.331 81.4232M377.465 59.5611L400.945 46.0047M377.465 59.5611L372.091 56.4584M377.465 59.5611L386.56 54.3104M400.945 46.0047L386.56 54.3104M400.945 46.0047L438.812 24.1426M400.945 46.0047L363.079 24.1426M400.945 46.0047L424.426 32.4483M386.56 54.3104L372.174 46.0047M386.56 54.3104L381.186 51.2077M372.174 46.0047L381.186 51.2077M372.091 56.4584L381.186 51.2077M447.906 116.842L386.56 152.26M447.906 116.842L386.56 81.4232M447.906 116.842L485.772 94.9796M447.906 116.842L410.04 94.9796M386.56 152.26L485.772 94.9796M386.56 81.4232L400.945 89.7289M410.04 94.9796L419.052 89.7766M410.04 94.9796L400.945 89.7289M424.426 86.6739L419.052 89.7766M424.426 86.6739L415.331 81.4232M415.331 81.4232L400.945 89.7289M415.331 81.4232L409.957 84.5259M400.945 89.7289L409.957 84.5259M419.052 89.7766L409.957 84.5259M400.945 2.28055L462.292 -33.1379M400.945 2.28055L462.292 37.699M400.945 2.28055L363.079 24.1426M400.945 2.28055L438.812 24.1426M462.292 -33.1379L363.079 24.1426M462.292 37.699L447.906 29.3933M438.812 24.1426L429.8 29.3456M438.812 24.1426L447.906 29.3933M424.426 32.4483L429.8 29.3456M424.426 32.4483L433.52 37.699M433.52 37.699L447.906 29.3933M433.52 37.699L438.894 34.5963M447.906 29.3933L438.894 34.5963M429.8 29.3456L438.894 34.5963" stroke="url(#paint1_radial)" stroke-opacity="0.18" stroke-linecap="round"/>
</g>
<defs>
<filter id="filter0_d" x="38" y="43" width="36" height="36" filterUnits="userSpaceOnUse" color-interpolation-filters="sRGB">
<feFlood flood-opacity="0" result="BackgroundImageFix"/>
<feColorMatrix in="SourceAlpha" type="matrix" values="0 0 0 0 0 0 0 0 0 0 0 0 0 0 0 0 0 0 127 0" result="hardAlpha"/>
<feOffset dy="1"/>
<feGaussianBlur stdDeviation="1"/>
<feColorMatrix type="matrix" values="0 0 0 0 0.133698 0 0 0 0 0.155763 0 0 0 0 0.2125 0 0 0 0.1 0"/>
<feBlend mode="normal" in2="BackgroundImageFix" result="effect1_dropShadow"/>
<feBlend mode="normal" in="SourceGraphic" in2="effect1_dropShadow" result="shape"/>
</filter>
<linearGradient id="paint0_linear" x1="24" y1="28" x2="100" y2="103.5" gradientUnits="userSpaceOnUse">
<stop stop-color="#13172A"/>
<stop offset="1" stop-color="#13172A" stop-opacity="0"/>
</linearGradient>
<radialGradient id="paint1_radial" cx="0" cy="0" r="1" gradientUnits="userSpaceOnUse" gradientTransform="translate(424.426 59.5611) rotate(0.0200782) scale(156.536 74.9486)">
<stop stop-color="#2E374F"/>
<stop offset="1" stop-color="#2E374F" stop-opacity="0"/>
</radialGradient>
<clipPath id="clip0">
<rect width="436" height="120" fill="white"/>
</clipPath>
</defs>
</svg>
