<svg width="436" height="120" viewBox="0 0 436 120" fill="none" xmlns="http://www.w3.org/2000/svg">
<g clip-path="url(#clip0)">
<rect width="436" height="120" fill="#E05CDB"/>
<path d="M563.98 46.0047L658.605 81.4231M563.98 46.0047L469.356 81.4232M563.98 46.0047L505.573 24.1426M563.98 46.0047L505.573 67.8668M658.605 81.4231L563.98 116.842M658.605 81.4231L717.011 59.5611L563.98 2.28053M658.605 81.4231L505.573 24.1426M563.98 116.842L469.356 81.4232M563.98 116.842L410.949 174.122L352.542 152.26M563.98 116.842L505.573 94.9795M469.356 81.4232L491.546 73.1175M469.356 81.4232L447.167 73.1175M563.98 2.28053L505.573 24.1426M563.98 2.28053L469.356 -33.1379M563.98 2.28053L469.356 37.699M505.573 24.1426L447.167 46.0047M505.573 67.8668L447.167 46.0047M505.573 67.8668L491.673 62.6638M505.573 67.8668L491.546 73.1175M447.167 46.0047L483.384 59.5611M447.167 46.0047L410.949 59.5611M447.167 46.0047L410.949 32.4483M447.167 46.0047L469.356 37.699M447.167 46.0047L424.977 37.699M483.384 59.5611L447.167 73.1175M483.384 59.5611L491.673 62.6638M483.384 59.5611L469.356 64.8118M447.167 73.1175L410.949 59.5611M447.167 73.1175L469.356 64.8118M447.167 73.1175L388.76 94.9796M447.167 73.1175L505.573 94.9795M447.167 73.1175L410.949 86.6739M410.949 59.5611L374.732 46.0047M410.949 59.5611L374.732 73.1175M469.356 64.8118L491.546 73.1175M469.356 64.8118L477.645 67.9145M491.546 73.1175L477.645 67.9145M491.673 62.6638L477.645 67.9145M257.918 73.1175L163.294 37.699M257.918 73.1175L352.542 37.699M257.918 73.1175L316.325 94.9796M257.918 73.1175L316.325 51.2554M163.294 37.699L257.918 2.28055M163.294 37.699L104.887 59.5611L257.918 116.842M163.294 37.699L316.325 94.9796M257.918 2.28055L352.542 37.699M257.918 2.28055L410.949 -55L469.356 -33.1379M257.918 2.28055L316.325 24.1426M352.542 37.699L330.353 46.0047M352.542 37.699L374.732 46.0047M257.918 116.842L316.325 94.9796M257.918 116.842L352.542 152.26M257.918 116.842L352.542 81.4232M316.325 94.9796L374.732 73.1175M316.325 51.2554L374.732 73.1175M316.325 51.2554L330.225 56.4584M316.325 51.2554L330.353 46.0047M374.732 73.1175L338.514 59.5611M374.732 73.1175L410.949 86.6739M374.732 73.1175L352.542 81.4232M374.732 73.1175L396.921 81.4232M338.514 59.5611L374.732 46.0047M338.514 59.5611L330.225 56.4584M338.514 59.5611L352.542 54.3104M374.732 46.0047L352.542 54.3104M374.732 46.0047L433.139 24.1426M374.732 46.0047L316.325 24.1426M374.732 46.0047L410.949 32.4483M352.542 54.3104L330.353 46.0047M352.542 54.3104L344.253 51.2077M330.353 46.0047L344.253 51.2077M330.225 56.4584L344.253 51.2077M447.167 116.842L352.542 152.26M447.167 116.842L352.542 81.4232M447.167 116.842L505.573 94.9795M447.167 116.842L388.76 94.9796M352.542 152.26L505.573 94.9795M352.542 81.4232L374.732 89.7288M388.76 94.9796L402.66 89.7766M388.76 94.9796L374.732 89.7288M410.949 86.6739L402.66 89.7766M410.949 86.6739L396.921 81.4232M396.921 81.4232L374.732 89.7288M396.921 81.4232L388.632 84.5259M374.732 89.7288L388.632 84.5259M402.66 89.7766L388.632 84.5259M374.732 2.28054L469.356 -33.1379M374.732 2.28054L469.356 37.699M374.732 2.28054L316.325 24.1426M374.732 2.28054L433.139 24.1426M469.356 -33.1379L316.325 24.1426M469.356 37.699L447.167 29.3933M433.139 24.1426L419.238 29.3456M433.139 24.1426L447.167 29.3933M410.949 32.4483L419.238 29.3456M410.949 32.4483L424.977 37.699M424.977 37.699L447.167 29.3933M424.977 37.699L433.266 34.5963M447.167 29.3933L433.266 34.5963M419.238 29.3456L433.266 34.5963" stroke="url(#paint0_radial)" stroke-opacity="0.18" stroke-linecap="round"/>
<rect x="24" y="28" width="64" height="64" rx="32" fill="url(#paint1_linear)" fill-opacity="0.1"/>
<g filter="url(#filter0_d)">
<path fill-rule="evenodd" clip-rule="evenodd" d="M67.9858 50.9184C66.9951 48.3378 64.1189 47.055 61.5594 48.0412L61.5581 48.0417C58.9782 49.0314 57.6922 51.9077 58.6802 54.4832C58.8212 54.8509 58.7334 55.2671 58.4558 55.5463L54.33 59.6971L54.3145 61.6547H56.2781L60.385 57.5353C60.6687 57.2508 61.0951 57.1637 61.4677 57.3141C62.6174 57.7784 63.9166 57.7917 65.0976 57.3467C67.6767 56.3557 68.9608 53.4794 67.9858 50.9184ZM60.8417 46.1744C64.4415 44.7883 68.4707 46.5984 69.8535 50.2032L69.8544 50.2054C71.225 53.8033 69.4169 57.8319 65.8114 59.215L65.8063 59.217C64.3746 59.7572 62.8104 59.8169 61.359 59.3911L57.4014 63.3607C57.2138 63.5489 56.959 63.6547 56.6932 63.6547H53.3066C53.04 63.6547 52.7844 63.5483 52.5967 63.359C52.4089 63.1698 52.3045 62.9134 52.3066 62.6468L52.3332 59.2735C52.3353 59.012 52.4397 58.7618 52.624 58.5764L56.6049 54.5714C55.6419 51.1325 57.4428 47.4783 60.8417 46.1744ZM53.0987 47.3328C53.1713 47.3163 53.2455 47.308 53.3199 47.308H53.3332C53.8855 47.308 54.3332 47.7557 54.3332 48.308C54.3332 48.8106 53.9624 49.2266 53.4795 49.2974C47.5862 50.6689 43.9024 56.5403 45.2417 62.4331C46.5861 68.3487 52.4775 72.0635 58.3913 70.7196C62.5094 69.7783 65.7369 66.5513 66.6782 62.4192C66.8009 61.8808 67.3368 61.5437 67.8753 61.6663C68.4138 61.789 68.7509 62.325 68.6282 62.8635C67.5163 67.7444 63.7042 71.5573 58.836 72.6696L58.8348 72.6698C51.8421 74.2591 44.8803 69.8673 43.2914 62.8763C41.702 55.883 46.0946 48.9214 53.0987 47.3328ZM62.1665 52.6734C62.1665 51.9947 62.7143 51.5067 63.3332 51.5067C63.9462 51.5067 64.4999 52.0021 64.4999 52.6734C64.4999 52.8632 64.447 53.0407 64.3551 53.1919C64.3007 53.3001 64.232 53.3957 64.1558 53.4761C64.0163 53.6234 63.8079 53.7639 63.5458 53.8174C63.4773 53.8322 63.4062 53.84 63.3332 53.84H63.3199C63.2815 53.84 63.2437 53.8379 63.2064 53.8337C62.5545 53.7673 62.1665 53.1937 62.1665 52.6734Z" fill="white"/>
</g>
</g>
<defs>
<filter id="filter0_d" x="38" y="43" width="36" height="36" filterUnits="userSpaceOnUse" color-interpolation-filters="sRGB">
<feFlood flood-opacity="0" result="BackgroundImageFix"/>
<feColorMatrix in="SourceAlpha" type="matrix" values="0 0 0 0 0 0 0 0 0 0 0 0 0 0 0 0 0 0 127 0" result="hardAlpha"/>
<feOffset dy="1"/>
<feGaussianBlur stdDeviation="1"/>
<feColorMatrix type="matrix" values="0 0 0 0 0.133698 0 0 0 0 0.155763 0 0 0 0 0.2125 0 0 0 0.1 0"/>
<feBlend mode="normal" in2="BackgroundImageFix" result="effect1_dropShadow"/>
<feBlend mode="normal" in="SourceGraphic" in2="effect1_dropShadow" result="shape"/>
</filter>
<radialGradient id="paint0_radial" cx="0" cy="0" r="1" gradientUnits="userSpaceOnUse" gradientTransform="translate(410.949 59.5611) rotate(0.0130138) scale(241.449 74.9486)">
<stop stop-color="#2E374F"/>
<stop offset="1" stop-color="#2E374F" stop-opacity="0"/>
</radialGradient>
<linearGradient id="paint1_linear" x1="24" y1="28" x2="100" y2="103.5" gradientUnits="userSpaceOnUse">
<stop stop-color="#13172A"/>
<stop offset="1" stop-color="#13172A" stop-opacity="0"/>
</linearGradient>
<clipPath id="clip0">
<rect width="436" height="120" fill="white"/>
</clipPath>
</defs>
</svg>
