<svg width="284" height="120" viewBox="0 0 284 120" fill="none" xmlns="http://www.w3.org/2000/svg">
<g clip-path="url(#clip0)">
<rect width="282.667" height="120" transform="translate(0.666504)" fill="#E05CDB"/>
<rect x="24.6665" y="28" width="64" height="64" rx="32" fill="url(#paint0_linear)" fill-opacity="0.1"/>
<g filter="url(#filter0_d)">
<path fill-rule="evenodd" clip-rule="evenodd" d="M43.6665 50.6667C43.6665 48.6427 45.2993 47 47.3332 47H51.3332C53.3505 47 54.9998 48.6394 54.9998 50.6667V54.6667C54.9998 56.6856 53.3521 58.3333 51.3332 58.3333H47.3332C45.2976 58.3333 43.6665 56.6824 43.6665 54.6667V50.6667ZM47.3332 49C46.4071 49 45.6665 49.744 45.6665 50.6667V54.6667C45.6665 55.5843 46.4087 56.3333 47.3332 56.3333H51.3332C52.2476 56.3333 52.9998 55.581 52.9998 54.6667V50.6667C52.9998 49.7472 52.2492 49 51.3332 49H47.3332ZM58.3332 50.6667C58.3332 48.6427 59.9659 47 61.9998 47H65.9998C68.0172 47 69.6665 48.6394 69.6665 50.6667V54.6667C69.6665 56.6856 68.0188 58.3333 65.9998 58.3333H61.9998C59.9643 58.3333 58.3332 56.6824 58.3332 54.6667V50.6667ZM61.9998 49C61.0738 49 60.3332 49.744 60.3332 50.6667V54.6667C60.3332 55.5843 61.0754 56.3333 61.9998 56.3333H65.9998C66.9142 56.3333 67.6665 55.581 67.6665 54.6667V50.6667C67.6665 49.7472 66.9158 49 65.9998 49H61.9998ZM43.6665 65.3333C43.6665 63.3093 45.2993 61.6667 47.3332 61.6667H51.3332C53.3505 61.6667 54.9998 63.3061 54.9998 65.3333V69.3333C54.9998 71.3523 53.3521 73 51.3332 73H47.3332C45.2976 73 43.6665 71.349 43.6665 69.3333V65.3333ZM47.3332 63.6667C46.4071 63.6667 45.6665 64.4107 45.6665 65.3333V69.3333C45.6665 70.251 46.4087 71 47.3332 71H51.3332C52.2476 71 52.9998 70.2477 52.9998 69.3333V65.3333C52.9998 64.4139 52.2492 63.6667 51.3332 63.6667H47.3332ZM58.3332 65.3333C58.3332 63.3093 59.9659 61.6667 61.9998 61.6667H65.9998C68.0172 61.6667 69.6665 63.3061 69.6665 65.3333V69.3333C69.6665 71.3523 68.0188 73 65.9998 73H61.9998C59.9643 73 58.3332 71.349 58.3332 69.3333V65.3333ZM61.9998 63.6667C61.0738 63.6667 60.3332 64.4107 60.3332 65.3333V69.3333C60.3332 70.251 61.0754 71 61.9998 71H65.9998C66.9142 71 67.6665 70.2477 67.6665 69.3333V65.3333C67.6665 64.4139 66.9158 63.6667 65.9998 63.6667H61.9998Z" fill="white"/>
</g>
<path d="M371.305 46.0047L432.652 81.4232M371.305 46.0047L309.958 81.4232M371.305 46.0047L333.439 24.1426M371.305 46.0047L333.439 67.8668M432.652 81.4232L371.305 116.842M432.652 81.4232L470.518 59.5611L371.305 2.28054M432.652 81.4232L333.439 24.1426M371.305 116.842L309.958 81.4232M371.305 116.842L272.092 174.122L234.226 152.26M371.305 116.842L333.439 94.9796M309.958 81.4232L324.344 73.1175M309.958 81.4232L295.573 73.1175M371.305 2.28054L333.439 24.1426M371.305 2.28054L309.959 -33.1379M371.305 2.28054L309.958 37.699M333.439 24.1426L295.573 46.0047M333.439 67.8668L295.573 46.0047M333.439 67.8668L324.427 62.6638M333.439 67.8668L324.344 73.1175M295.573 46.0047L319.053 59.5611M295.573 46.0047L272.092 59.5611M295.573 46.0047L272.092 32.4483M295.573 46.0047L309.958 37.699M295.573 46.0047L281.187 37.699M319.053 59.5611L295.573 73.1175M319.053 59.5611L324.427 62.6638M319.053 59.5611L309.958 64.8118M295.573 73.1175L272.092 59.5611M295.573 73.1175L309.958 64.8118M295.573 73.1175L257.706 94.9796M295.573 73.1175L333.439 94.9796M295.573 73.1175L272.092 86.6739M272.092 59.5611L248.612 46.0047M272.092 59.5611L248.612 73.1175M309.958 64.8118L324.344 73.1175M309.958 64.8118L315.333 67.9145M324.344 73.1175L315.333 67.9145M324.427 62.6638L315.333 67.9145M172.879 73.1175L111.533 37.699M172.879 73.1175L234.226 37.699M172.879 73.1175L210.746 94.9796M172.879 73.1175L210.746 51.2554M111.533 37.699L172.879 2.28055M111.533 37.699L73.6666 59.5611L172.879 116.842M111.533 37.699L210.746 94.9796M172.879 2.28055L234.226 37.699M172.879 2.28055L272.092 -55L309.959 -33.1379M172.879 2.28055L210.746 24.1426M234.226 37.699L219.84 46.0047M234.226 37.699L248.612 46.0047M172.879 116.842L210.746 94.9796M172.879 116.842L234.226 152.26M172.879 116.842L234.226 81.4232M210.746 94.9796L248.612 73.1175M210.746 51.2554L248.612 73.1175M210.746 51.2554L219.758 56.4584M210.746 51.2554L219.84 46.0047M248.612 73.1175L225.132 59.5611M248.612 73.1175L272.092 86.6739M248.612 73.1175L234.226 81.4232M248.612 73.1175L262.998 81.4232M225.132 59.5611L248.612 46.0047M225.132 59.5611L219.758 56.4584M225.132 59.5611L234.226 54.3104M248.612 46.0047L234.226 54.3104M248.612 46.0047L286.478 24.1426M248.612 46.0047L210.746 24.1426M248.612 46.0047L272.092 32.4483M234.226 54.3104L219.84 46.0047M234.226 54.3104L228.852 51.2077M219.84 46.0047L228.852 51.2077M219.758 56.4584L228.852 51.2077M295.573 116.842L234.226 152.26M295.573 116.842L234.226 81.4232M295.573 116.842L333.439 94.9796M295.573 116.842L257.706 94.9796M234.226 152.26L333.439 94.9796M234.226 81.4232L248.612 89.7288M257.706 94.9796L266.718 89.7766M257.706 94.9796L248.612 89.7288M272.092 86.6739L266.718 89.7766M272.092 86.6739L262.998 81.4232M262.998 81.4232L248.612 89.7288M262.998 81.4232L257.624 84.5259M248.612 89.7288L257.624 84.5259M266.718 89.7766L257.624 84.5259M248.612 2.28055L309.959 -33.1379M248.612 2.28055L309.958 37.699M248.612 2.28055L210.746 24.1426M248.612 2.28055L286.478 24.1426M309.959 -33.1379L210.746 24.1426M309.958 37.699L295.573 29.3933M286.478 24.1426L277.466 29.3456M286.478 24.1426L295.573 29.3933M272.092 32.4483L277.466 29.3456M272.092 32.4483L281.187 37.699M281.187 37.699L295.573 29.3933M281.187 37.699L286.561 34.5963M295.573 29.3933L286.561 34.5963M277.466 29.3456L286.561 34.5963" stroke="url(#paint1_radial)" stroke-opacity="0.18" stroke-linecap="round"/>
</g>
<defs>
<filter id="filter0_d" x="38.6665" y="43" width="36" height="36" filterUnits="userSpaceOnUse" color-interpolation-filters="sRGB">
<feFlood flood-opacity="0" result="BackgroundImageFix"/>
<feColorMatrix in="SourceAlpha" type="matrix" values="0 0 0 0 0 0 0 0 0 0 0 0 0 0 0 0 0 0 127 0" result="hardAlpha"/>
<feOffset dy="1"/>
<feGaussianBlur stdDeviation="1"/>
<feColorMatrix type="matrix" values="0 0 0 0 0.133698 0 0 0 0 0.155763 0 0 0 0 0.2125 0 0 0 0.1 0"/>
<feBlend mode="normal" in2="BackgroundImageFix" result="effect1_dropShadow"/>
<feBlend mode="normal" in="SourceGraphic" in2="effect1_dropShadow" result="shape"/>
</filter>
<linearGradient id="paint0_linear" x1="24.6665" y1="28" x2="100.667" y2="103.5" gradientUnits="userSpaceOnUse">
<stop stop-color="#13172A"/>
<stop offset="1" stop-color="#13172A" stop-opacity="0"/>
</linearGradient>
<radialGradient id="paint1_radial" cx="0" cy="0" r="1" gradientUnits="userSpaceOnUse" gradientTransform="translate(272.092 59.5611) rotate(0.0200761) scale(156.536 74.9486)">
<stop stop-color="#2E374F"/>
<stop offset="1" stop-color="#2E374F" stop-opacity="0"/>
</radialGradient>
<clipPath id="clip0">
<rect width="282.667" height="120" fill="white" transform="translate(0.666504)"/>
</clipPath>
</defs>
</svg>
