<svg width="284" height="120" viewBox="0 0 284 120" fill="none" xmlns="http://www.w3.org/2000/svg">
<g clip-path="url(#clip0)">
<rect width="282.667" height="120" transform="translate(0.666748)" fill="#16C3CC"/>
<path d="M366.305 46.0047L427.652 81.4231M366.305 46.0047L304.959 81.4232M366.305 46.0047L328.439 24.1426M366.305 46.0047L328.439 67.8668M427.652 81.4231L366.305 116.842M427.652 81.4231L465.518 59.5611L366.305 2.28053M427.652 81.4231L328.439 24.1426M366.305 116.842L304.959 81.4232M366.305 116.842L267.092 174.122L229.226 152.26M366.305 116.842L328.439 94.9795M304.959 81.4232L319.345 73.1175M304.959 81.4232L290.573 73.1175M366.305 2.28053L328.439 24.1426M366.305 2.28053L304.959 -33.1379M366.305 2.28053L304.959 37.699M328.439 24.1426L290.573 46.0047M328.439 67.8668L290.573 46.0047M328.439 67.8668L319.427 62.6638M328.439 67.8668L319.345 73.1175M290.573 46.0047L314.053 59.5611M290.573 46.0047L267.093 59.5611M290.573 46.0047L267.093 32.4483M290.573 46.0047L304.959 37.699M290.573 46.0047L276.187 37.699M314.053 59.5611L290.573 73.1175M314.053 59.5611L319.427 62.6638M314.053 59.5611L304.959 64.8118M290.573 73.1175L267.093 59.5611M290.573 73.1175L304.959 64.8118M290.573 73.1175L252.707 94.9796M290.573 73.1175L328.439 94.9795M290.573 73.1175L267.093 86.6739M267.093 59.5611L243.612 46.0047M267.093 59.5611L243.612 73.1175M304.959 64.8118L319.345 73.1175M304.959 64.8118L310.333 67.9145M319.345 73.1175L310.333 67.9145M319.427 62.6638L310.333 67.9145M167.88 73.1175L106.533 37.699M167.88 73.1175L229.226 37.699M167.88 73.1175L205.746 94.9796M167.88 73.1175L205.746 51.2554M106.533 37.699L167.88 2.28055M106.533 37.699L68.6669 59.5611L167.88 116.842M106.533 37.699L205.746 94.9796M167.88 2.28055L229.226 37.699M167.88 2.28055L267.093 -55L304.959 -33.1379M167.88 2.28055L205.746 24.1426M229.226 37.699L214.84 46.0047M229.226 37.699L243.612 46.0047M167.88 116.842L205.746 94.9796M167.88 116.842L229.226 152.26M167.88 116.842L229.226 81.4232M205.746 94.9796L243.612 73.1175M205.746 51.2554L243.612 73.1175M205.746 51.2554L214.758 56.4584M205.746 51.2554L214.84 46.0047M243.612 73.1175L220.132 59.5611M243.612 73.1175L267.093 86.6739M243.612 73.1175L229.226 81.4232M243.612 73.1175L257.998 81.4232M220.132 59.5611L243.612 46.0047M220.132 59.5611L214.758 56.4584M220.132 59.5611L229.226 54.3104M243.612 46.0047L229.226 54.3104M243.612 46.0047L281.478 24.1426M243.612 46.0047L205.746 24.1426M243.612 46.0047L267.093 32.4483M229.226 54.3104L214.84 46.0047M229.226 54.3104L223.852 51.2077M214.84 46.0047L223.852 51.2077M214.758 56.4584L223.852 51.2077M290.573 116.842L229.226 152.26M290.573 116.842L229.226 81.4232M290.573 116.842L328.439 94.9795M290.573 116.842L252.707 94.9796M229.226 152.26L328.439 94.9795M229.226 81.4232L243.612 89.7288M252.707 94.9796L261.718 89.7766M252.707 94.9796L243.612 89.7288M267.093 86.6739L261.718 89.7766M267.093 86.6739L257.998 81.4232M257.998 81.4232L243.612 89.7288M257.998 81.4232L252.624 84.5259M243.612 89.7288L252.624 84.5259M261.718 89.7766L252.624 84.5259M243.612 2.28054L304.959 -33.1379M243.612 2.28054L304.959 37.699M243.612 2.28054L205.746 24.1426M243.612 2.28054L281.478 24.1426M304.959 -33.1379L205.746 24.1426M304.959 37.699L290.573 29.3933M281.478 24.1426L272.467 29.3456M281.478 24.1426L290.573 29.3933M267.093 32.4483L272.467 29.3456M267.093 32.4483L276.187 37.699M276.187 37.699L290.573 29.3933M276.187 37.699L281.561 34.5963M290.573 29.3933L281.561 34.5963M272.467 29.3456L281.561 34.5963" stroke="url(#paint0_radial)" stroke-opacity="0.18" stroke-linecap="round"/>
<rect x="24.6667" y="28" width="64" height="64" rx="32" fill="url(#paint1_linear)" fill-opacity="0.1"/>
<g filter="url(#filter0_d)">
<path fill-rule="evenodd" clip-rule="evenodd" d="M48.6667 51.6666C47.0097 51.6666 45.6667 53.0096 45.6667 54.6666V55H67.6667V54.6666C67.6667 53.0096 66.3238 51.6666 64.6667 51.6666H48.6667ZM69.6667 54.6666C69.6667 51.905 67.4284 49.6666 64.6667 49.6666H48.6667C45.9051 49.6666 43.6667 51.905 43.6667 54.6666V65.3333C43.6667 68.0949 45.9051 70.3333 48.6667 70.3333H64.6667C67.4284 70.3333 69.6667 68.0949 69.6667 65.3333V54.6666ZM67.6667 57H45.6667V65.3333C45.6667 66.9903 47.0097 68.3333 48.6667 68.3333H64.6667C66.3238 68.3333 67.6667 66.9903 67.6667 65.3333V57ZM49.0001 61.3333C49.0001 60.781 49.4478 60.3333 50.0001 60.3333H53.4267C53.979 60.3333 54.4267 60.781 54.4267 61.3333C54.4267 61.8856 53.979 62.3333 53.4267 62.3333H50.0001C49.4478 62.3333 49.0001 61.8856 49.0001 61.3333Z" fill="white"/>
</g>
</g>
<defs>
<filter id="filter0_d" x="38.6667" y="43" width="36" height="36" filterUnits="userSpaceOnUse" color-interpolation-filters="sRGB">
<feFlood flood-opacity="0" result="BackgroundImageFix"/>
<feColorMatrix in="SourceAlpha" type="matrix" values="0 0 0 0 0 0 0 0 0 0 0 0 0 0 0 0 0 0 127 0"/>
<feOffset dy="1"/>
<feGaussianBlur stdDeviation="1"/>
<feColorMatrix type="matrix" values="0 0 0 0 0.133698 0 0 0 0 0.155763 0 0 0 0 0.2125 0 0 0 0.1 0"/>
<feBlend mode="normal" in2="BackgroundImageFix" result="effect1_dropShadow"/>
<feBlend mode="normal" in="SourceGraphic" in2="effect1_dropShadow" result="shape"/>
</filter>
<radialGradient id="paint0_radial" cx="0" cy="0" r="1" gradientUnits="userSpaceOnUse" gradientTransform="translate(267.093 59.5611) rotate(0.020075) scale(156.536 74.9486)">
<stop stop-color="#2E374F"/>
<stop offset="1" stop-color="#2E374F" stop-opacity="0"/>
</radialGradient>
<linearGradient id="paint1_linear" x1="24.6667" y1="28" x2="100.667" y2="103.5" gradientUnits="userSpaceOnUse">
<stop stop-color="#13172A"/>
<stop offset="1" stop-color="#13172A" stop-opacity="0"/>
</linearGradient>
<clipPath id="clip0">
<rect width="282.667" height="120" fill="white" transform="translate(0.666748)"/>
</clipPath>
</defs>
</svg>
