<svg width="283" height="120" viewBox="0 0 283 120" fill="none" xmlns="http://www.w3.org/2000/svg">
<g clip-path="url(#clip0)">
<rect width="282.667" height="120" transform="translate(0.333252)" fill="#16C3CC"/>
<path d="M365.972 46.0047L427.318 81.4231M365.972 46.0047L304.625 81.4232M365.972 46.0047L328.106 24.1426M365.972 46.0047L328.106 67.8668M427.318 81.4231L365.972 116.842M427.318 81.4231L465.185 59.5611L365.972 2.28053M427.318 81.4231L328.106 24.1426M365.972 116.842L304.625 81.4232M365.972 116.842L266.759 174.122L228.893 152.26M365.972 116.842L328.106 94.9795M304.625 81.4232L319.011 73.1175M304.625 81.4232L290.239 73.1175M365.972 2.28053L328.106 24.1426M365.972 2.28053L304.625 -33.1379M365.972 2.28053L304.625 37.699M328.106 24.1426L290.239 46.0047M328.106 67.8668L290.239 46.0047M328.106 67.8668L319.094 62.6638M328.106 67.8668L319.011 73.1175M290.239 46.0047L313.72 59.5611M290.239 46.0047L266.759 59.5611M290.239 46.0047L266.759 32.4483M290.239 46.0047L304.625 37.699M290.239 46.0047L275.854 37.699M313.72 59.5611L290.239 73.1175M313.72 59.5611L319.094 62.6638M313.72 59.5611L304.625 64.8118M290.239 73.1175L266.759 59.5611M290.239 73.1175L304.625 64.8118M290.239 73.1175L252.373 94.9796M290.239 73.1175L328.106 94.9795M290.239 73.1175L266.759 86.6739M266.759 59.5611L243.279 46.0047M266.759 59.5611L243.279 73.1175M304.625 64.8118L319.011 73.1175M304.625 64.8118L309.999 67.9145M319.011 73.1175L309.999 67.9145M319.094 62.6638L309.999 67.9145M167.546 73.1175L106.2 37.699M167.546 73.1175L228.893 37.699M167.546 73.1175L205.412 94.9796M167.546 73.1175L205.412 51.2554M106.2 37.699L167.546 2.28055M106.2 37.699L68.3334 59.5611L167.546 116.842M106.2 37.699L205.412 94.9796M167.546 2.28055L228.893 37.699M167.546 2.28055L266.759 -55L304.625 -33.1379M167.546 2.28055L205.412 24.1426M228.893 37.699L214.507 46.0047M228.893 37.699L243.279 46.0047M167.546 116.842L205.412 94.9796M167.546 116.842L228.893 152.26M167.546 116.842L228.893 81.4232M205.412 94.9796L243.279 73.1175M205.412 51.2554L243.279 73.1175M205.412 51.2554L214.424 56.4584M205.412 51.2554L214.507 46.0047M243.279 73.1175L219.798 59.5611M243.279 73.1175L266.759 86.6739M243.279 73.1175L228.893 81.4232M243.279 73.1175L257.664 81.4232M219.798 59.5611L243.279 46.0047M219.798 59.5611L214.424 56.4584M219.798 59.5611L228.893 54.3104M243.279 46.0047L228.893 54.3104M243.279 46.0047L281.145 24.1426M243.279 46.0047L205.412 24.1426M243.279 46.0047L266.759 32.4483M228.893 54.3104L214.507 46.0047M228.893 54.3104L223.519 51.2077M214.507 46.0047L223.519 51.2077M214.424 56.4584L223.519 51.2077M290.239 116.842L228.893 152.26M290.239 116.842L228.893 81.4232M290.239 116.842L328.106 94.9795M290.239 116.842L252.373 94.9796M228.893 152.26L328.106 94.9795M228.893 81.4232L243.279 89.7288M252.373 94.9796L261.385 89.7766M252.373 94.9796L243.279 89.7288M266.759 86.6739L261.385 89.7766M266.759 86.6739L257.664 81.4232M257.664 81.4232L243.279 89.7288M257.664 81.4232L252.29 84.5259M243.279 89.7288L252.29 84.5259M261.385 89.7766L252.29 84.5259M243.279 2.28054L304.625 -33.1379M243.279 2.28054L304.625 37.699M243.279 2.28054L205.412 24.1426M243.279 2.28054L281.145 24.1426M304.625 -33.1379L205.412 24.1426M304.625 37.699L290.239 29.3933M281.145 24.1426L272.133 29.3456M281.145 24.1426L290.239 29.3933M266.759 32.4483L272.133 29.3456M266.759 32.4483L275.854 37.699M275.854 37.699L290.239 29.3933M275.854 37.699L281.228 34.5963M290.239 29.3933L281.228 34.5963M272.133 29.3456L281.228 34.5963" stroke="url(#paint0_radial)" stroke-opacity="0.18" stroke-linecap="round"/>
<rect x="24.3333" y="28" width="64" height="64" rx="32" fill="url(#paint1_linear)" fill-opacity="0.1"/>
<g filter="url(#filter0_d)">
<path fill-rule="evenodd" clip-rule="evenodd" d="M68.319 50.9184C67.3283 48.3378 64.4522 47.055 61.8927 48.0412L61.8913 48.0417C59.3114 49.0314 58.0254 51.9077 59.0135 54.4832C59.1545 54.8509 59.0666 55.2671 58.789 55.5463L54.6632 59.6971L54.6477 61.6547H56.6114L60.7183 57.5353C61.002 57.2508 61.4284 57.1637 61.8009 57.3141C62.9506 57.7784 64.2498 57.7917 65.4308 57.3467C68.01 56.3557 69.294 53.4794 68.319 50.9184ZM61.175 46.1744C64.7747 44.7883 68.8039 46.5984 70.1868 50.2032L70.1876 50.2054C71.5583 53.8033 69.7501 57.8319 66.1446 59.215L66.1395 59.217C64.7078 59.7572 63.1437 59.8169 61.6922 59.3911L57.7346 63.3607C57.547 63.5489 57.2922 63.6547 57.0265 63.6547H53.6398C53.3732 63.6547 53.1177 63.5483 52.9299 63.359C52.7421 63.1698 52.6377 62.9134 52.6398 62.6468L52.6665 59.2735C52.6686 59.012 52.7729 58.7618 52.9572 58.5764L56.9381 54.5714C55.9752 51.1325 57.7761 47.4783 61.175 46.1744ZM53.4319 47.3328C53.5045 47.3163 53.5787 47.308 53.6531 47.308H53.6665C54.2188 47.308 54.6665 47.7557 54.6665 48.308C54.6665 48.8106 54.2957 49.2266 53.8128 49.2974C47.9194 50.6689 44.2357 56.5403 45.5749 62.4331C46.9194 68.3487 52.8108 72.0635 58.7246 70.7196C62.8427 69.7783 66.0701 66.5513 67.0114 62.4192C67.1341 61.8808 67.6701 61.5437 68.2086 61.6663C68.7471 61.789 69.0842 62.325 68.9615 62.8635C67.8496 67.7444 64.0374 71.5573 59.1692 72.6696L59.1681 72.6698C52.1753 74.2591 45.2135 69.8673 43.6247 62.8763C42.0353 55.883 46.4278 48.9214 53.4319 47.3328ZM62.4998 52.6734C62.4998 51.9947 63.0476 51.5067 63.6665 51.5067C64.2794 51.5067 64.8331 52.0021 64.8331 52.6734C64.8331 52.8632 64.7802 53.0407 64.6884 53.1919C64.634 53.3001 64.5653 53.3957 64.4891 53.4761C64.3495 53.6234 64.1411 53.7639 63.8791 53.8174C63.8106 53.8322 63.7394 53.84 63.6665 53.84H63.6531C63.6148 53.84 63.5769 53.8379 63.5397 53.8337C62.8877 53.7673 62.4998 53.1937 62.4998 52.6734Z" fill="white"/>
</g>
</g>
<defs>
<filter id="filter0_d" x="38.3333" y="43" width="36" height="36" filterUnits="userSpaceOnUse" color-interpolation-filters="sRGB">
<feFlood flood-opacity="0" result="BackgroundImageFix"/>
<feColorMatrix in="SourceAlpha" type="matrix" values="0 0 0 0 0 0 0 0 0 0 0 0 0 0 0 0 0 0 127 0"/>
<feOffset dy="1"/>
<feGaussianBlur stdDeviation="1"/>
<feColorMatrix type="matrix" values="0 0 0 0 0.133698 0 0 0 0 0.155763 0 0 0 0 0.2125 0 0 0 0.1 0"/>
<feBlend mode="normal" in2="BackgroundImageFix" result="effect1_dropShadow"/>
<feBlend mode="normal" in="SourceGraphic" in2="effect1_dropShadow" result="shape"/>
</filter>
<radialGradient id="paint0_radial" cx="0" cy="0" r="1" gradientUnits="userSpaceOnUse" gradientTransform="translate(266.759 59.5611) rotate(0.020075) scale(156.536 74.9486)">
<stop stop-color="#2E374F"/>
<stop offset="1" stop-color="#2E374F" stop-opacity="0"/>
</radialGradient>
<linearGradient id="paint1_linear" x1="24.3333" y1="28" x2="100.333" y2="103.5" gradientUnits="userSpaceOnUse">
<stop stop-color="#13172A"/>
<stop offset="1" stop-color="#13172A" stop-opacity="0"/>
</linearGradient>
<clipPath id="clip0">
<rect width="282.667" height="120" fill="white" transform="translate(0.333252)"/>
</clipPath>
</defs>
</svg>
