<svg width="283" height="120" viewBox="0 0 283 120" fill="none" xmlns="http://www.w3.org/2000/svg">
<g clip-path="url(#clip0)">
<rect width="282.667" height="120" fill="#7E67F3"/>
<path d="M365.639 46.0047L426.985 81.4231M365.639 46.0047L304.292 81.4232M365.639 46.0047L327.772 24.1426M365.639 46.0047L327.772 67.8668M426.985 81.4231L365.639 116.842M426.985 81.4231L464.851 59.5611L365.639 2.28053M426.985 81.4231L327.772 24.1426M365.639 116.842L304.292 81.4232M365.639 116.842L266.426 174.122L228.56 152.26M365.639 116.842L327.772 94.9795M304.292 81.4232L318.678 73.1175M304.292 81.4232L289.906 73.1175M365.639 2.28053L327.772 24.1426M365.639 2.28053L304.292 -33.1379M365.639 2.28053L304.292 37.699M327.772 24.1426L289.906 46.0047M327.772 67.8668L289.906 46.0047M327.772 67.8668L318.761 62.6638M327.772 67.8668L318.678 73.1175M289.906 46.0047L313.386 59.5611M289.906 46.0047L266.426 59.5611M289.906 46.0047L266.426 32.4483M289.906 46.0047L304.292 37.699M289.906 46.0047L275.52 37.699M313.386 59.5611L289.906 73.1175M313.386 59.5611L318.761 62.6638M313.386 59.5611L304.292 64.8118M289.906 73.1175L266.426 59.5611M289.906 73.1175L304.292 64.8118M289.906 73.1175L252.04 94.9796M289.906 73.1175L327.772 94.9795M289.906 73.1175L266.426 86.6739M266.426 59.5611L242.945 46.0047M266.426 59.5611L242.945 73.1175M304.292 64.8118L318.678 73.1175M304.292 64.8118L309.666 67.9145M318.678 73.1175L309.666 67.9145M318.761 62.6638L309.666 67.9145M167.213 73.1175L105.866 37.699M167.213 73.1175L228.56 37.699M167.213 73.1175L205.079 94.9796M167.213 73.1175L205.079 51.2554M105.866 37.699L167.213 2.28055M105.866 37.699L68.0001 59.5611L167.213 116.842M105.866 37.699L205.079 94.9796M167.213 2.28055L228.56 37.699M167.213 2.28055L266.426 -55L304.292 -33.1379M167.213 2.28055L205.079 24.1426M228.56 37.699L214.174 46.0047M228.56 37.699L242.945 46.0047M167.213 116.842L205.079 94.9796M167.213 116.842L228.56 152.26M167.213 116.842L228.56 81.4232M205.079 94.9796L242.945 73.1175M205.079 51.2554L242.945 73.1175M205.079 51.2554L214.091 56.4584M205.079 51.2554L214.174 46.0047M242.945 73.1175L219.465 59.5611M242.945 73.1175L266.426 86.6739M242.945 73.1175L228.56 81.4232M242.945 73.1175L257.331 81.4232M219.465 59.5611L242.945 46.0047M219.465 59.5611L214.091 56.4584M219.465 59.5611L228.56 54.3104M242.945 46.0047L228.56 54.3104M242.945 46.0047L280.812 24.1426M242.945 46.0047L205.079 24.1426M242.945 46.0047L266.426 32.4483M228.56 54.3104L214.174 46.0047M228.56 54.3104L223.186 51.2077M214.174 46.0047L223.186 51.2077M214.091 56.4584L223.186 51.2077M289.906 116.842L228.56 152.26M289.906 116.842L228.56 81.4232M289.906 116.842L327.772 94.9795M289.906 116.842L252.04 94.9796M228.56 152.26L327.772 94.9795M228.56 81.4232L242.945 89.7288M252.04 94.9796L261.052 89.7766M252.04 94.9796L242.945 89.7288M266.426 86.6739L261.052 89.7766M266.426 86.6739L257.331 81.4232M257.331 81.4232L242.945 89.7288M257.331 81.4232L251.957 84.5259M242.945 89.7288L251.957 84.5259M261.052 89.7766L251.957 84.5259M242.945 2.28054L304.292 -33.1379M242.945 2.28054L304.292 37.699M242.945 2.28054L205.079 24.1426M242.945 2.28054L280.812 24.1426M304.292 -33.1379L205.079 24.1426M304.292 37.699L289.906 29.3933M280.812 24.1426L271.8 29.3456M280.812 24.1426L289.906 29.3933M266.426 32.4483L271.8 29.3456M266.426 32.4483L275.52 37.699M275.52 37.699L289.906 29.3933M275.52 37.699L280.894 34.5963M289.906 29.3933L280.894 34.5963M271.8 29.3456L280.894 34.5963" stroke="url(#paint0_radial)" stroke-opacity="0.18" stroke-linecap="round"/>
<rect x="24" y="28" width="64" height="64" rx="32" fill="url(#paint1_linear)" fill-opacity="0.1"/>
<g filter="url(#filter0_d)">
<path fill-rule="evenodd" clip-rule="evenodd" d="M56.0026 46.8533C56.3836 46.8543 56.7311 47.0717 56.8985 47.4141L60.5734 54.9309L68.7982 56.1345C69.1741 56.1895 69.4863 56.4528 69.6041 56.8139C69.7219 57.1751 69.6249 57.5718 69.3537 57.8378L63.3936 63.6851L64.7993 71.951C64.8632 72.3268 64.7079 72.7063 64.3988 72.9294C64.0898 73.1526 63.6807 73.1806 63.3441 73.0017L55.9847 69.0907L48.6255 72.989C48.2889 73.1673 47.8802 73.1389 47.5715 72.9157C47.2628 72.6925 47.1077 72.3132 47.1716 71.9377L48.5774 63.6711L42.6163 57.8104C42.3458 57.5444 42.2491 57.1482 42.3666 56.7875C42.4842 56.4267 42.7958 56.1636 43.1711 56.1081L51.4001 54.8913L55.1039 47.4097C55.273 47.0681 55.6215 46.8524 56.0026 46.8533ZM55.9945 50.1186L52.9603 56.2477C52.8148 56.5414 52.5346 56.7453 52.2104 56.7932L45.4511 57.7927L50.3518 62.6109C50.5851 62.8402 50.6914 63.1692 50.6366 63.4916L49.4837 70.2711L55.5173 67.075C55.8105 66.9197 56.1617 66.9199 56.4547 67.0756L62.4866 70.2811L61.3342 63.505C61.2793 63.1821 61.386 62.8528 61.6198 62.6235L66.5144 57.8216L59.7619 56.8335C59.4353 56.7857 59.1533 56.5798 59.0084 56.2832L55.9945 50.1186Z" fill="white"/>
</g>
</g>
<defs>
<filter id="filter0_d" x="38" y="43" width="36" height="36" filterUnits="userSpaceOnUse" color-interpolation-filters="sRGB">
<feFlood flood-opacity="0" result="BackgroundImageFix"/>
<feColorMatrix in="SourceAlpha" type="matrix" values="0 0 0 0 0 0 0 0 0 0 0 0 0 0 0 0 0 0 127 0"/>
<feOffset dy="1"/>
<feGaussianBlur stdDeviation="1"/>
<feColorMatrix type="matrix" values="0 0 0 0 0.133698 0 0 0 0 0.155763 0 0 0 0 0.2125 0 0 0 0.1 0"/>
<feBlend mode="normal" in2="BackgroundImageFix" result="effect1_dropShadow"/>
<feBlend mode="normal" in="SourceGraphic" in2="effect1_dropShadow" result="shape"/>
</filter>
<radialGradient id="paint0_radial" cx="0" cy="0" r="1" gradientUnits="userSpaceOnUse" gradientTransform="translate(266.426 59.5611) rotate(0.020075) scale(156.536 74.9486)">
<stop stop-color="#2E374F"/>
<stop offset="1" stop-color="#2E374F" stop-opacity="0"/>
</radialGradient>
<linearGradient id="paint1_linear" x1="24" y1="28" x2="100" y2="103.5" gradientUnits="userSpaceOnUse">
<stop stop-color="#13172A"/>
<stop offset="1" stop-color="#13172A" stop-opacity="0"/>
</linearGradient>
<clipPath id="clip0">
<rect width="282.667" height="120" fill="white"/>
</clipPath>
</defs>
</svg>
