<svg width="283" height="120" viewBox="0 0 283 120" fill="none" xmlns="http://www.w3.org/2000/svg">
<g clip-path="url(#clip0)">
<rect width="282.667" height="120" fill="#16C3CC"/>
<path d="M365.639 46.0047L426.985 81.4231M365.639 46.0047L304.292 81.4232M365.639 46.0047L327.772 24.1426M365.639 46.0047L327.772 67.8668M426.985 81.4231L365.639 116.842M426.985 81.4231L464.851 59.5611L365.639 2.28053M426.985 81.4231L327.772 24.1426M365.639 116.842L304.292 81.4232M365.639 116.842L266.426 174.122L228.56 152.26M365.639 116.842L327.772 94.9795M304.292 81.4232L318.678 73.1175M304.292 81.4232L289.906 73.1175M365.639 2.28053L327.772 24.1426M365.639 2.28053L304.292 -33.1379M365.639 2.28053L304.292 37.699M327.772 24.1426L289.906 46.0047M327.772 67.8668L289.906 46.0047M327.772 67.8668L318.761 62.6638M327.772 67.8668L318.678 73.1175M289.906 46.0047L313.386 59.5611M289.906 46.0047L266.426 59.5611M289.906 46.0047L266.426 32.4483M289.906 46.0047L304.292 37.699M289.906 46.0047L275.52 37.699M313.386 59.5611L289.906 73.1175M313.386 59.5611L318.761 62.6638M313.386 59.5611L304.292 64.8118M289.906 73.1175L266.426 59.5611M289.906 73.1175L304.292 64.8118M289.906 73.1175L252.04 94.9796M289.906 73.1175L327.772 94.9795M289.906 73.1175L266.426 86.6739M266.426 59.5611L242.945 46.0047M266.426 59.5611L242.945 73.1175M304.292 64.8118L318.678 73.1175M304.292 64.8118L309.666 67.9145M318.678 73.1175L309.666 67.9145M318.761 62.6638L309.666 67.9145M167.213 73.1175L105.866 37.699M167.213 73.1175L228.56 37.699M167.213 73.1175L205.079 94.9796M167.213 73.1175L205.079 51.2554M105.866 37.699L167.213 2.28055M105.866 37.699L68.0001 59.5611L167.213 116.842M105.866 37.699L205.079 94.9796M167.213 2.28055L228.56 37.699M167.213 2.28055L266.426 -55L304.292 -33.1379M167.213 2.28055L205.079 24.1426M228.56 37.699L214.174 46.0047M228.56 37.699L242.945 46.0047M167.213 116.842L205.079 94.9796M167.213 116.842L228.56 152.26M167.213 116.842L228.56 81.4232M205.079 94.9796L242.945 73.1175M205.079 51.2554L242.945 73.1175M205.079 51.2554L214.091 56.4584M205.079 51.2554L214.174 46.0047M242.945 73.1175L219.465 59.5611M242.945 73.1175L266.426 86.6739M242.945 73.1175L228.56 81.4232M242.945 73.1175L257.331 81.4232M219.465 59.5611L242.945 46.0047M219.465 59.5611L214.091 56.4584M219.465 59.5611L228.56 54.3104M242.945 46.0047L228.56 54.3104M242.945 46.0047L280.812 24.1426M242.945 46.0047L205.079 24.1426M242.945 46.0047L266.426 32.4483M228.56 54.3104L214.174 46.0047M228.56 54.3104L223.186 51.2077M214.174 46.0047L223.186 51.2077M214.091 56.4584L223.186 51.2077M289.906 116.842L228.56 152.26M289.906 116.842L228.56 81.4232M289.906 116.842L327.772 94.9795M289.906 116.842L252.04 94.9796M228.56 152.26L327.772 94.9795M228.56 81.4232L242.945 89.7288M252.04 94.9796L261.052 89.7766M252.04 94.9796L242.945 89.7288M266.426 86.6739L261.052 89.7766M266.426 86.6739L257.331 81.4232M257.331 81.4232L242.945 89.7288M257.331 81.4232L251.957 84.5259M242.945 89.7288L251.957 84.5259M261.052 89.7766L251.957 84.5259M242.945 2.28054L304.292 -33.1379M242.945 2.28054L304.292 37.699M242.945 2.28054L205.079 24.1426M242.945 2.28054L280.812 24.1426M304.292 -33.1379L205.079 24.1426M304.292 37.699L289.906 29.3933M280.812 24.1426L271.8 29.3456M280.812 24.1426L289.906 29.3933M266.426 32.4483L271.8 29.3456M266.426 32.4483L275.52 37.699M275.52 37.699L289.906 29.3933M275.52 37.699L280.894 34.5963M289.906 29.3933L280.894 34.5963M271.8 29.3456L280.894 34.5963" stroke="url(#paint0_radial)" stroke-opacity="0.18" stroke-linecap="round"/>
<rect x="24" y="28" width="64" height="64" rx="32" fill="url(#paint1_linear)" fill-opacity="0.1"/>
<g filter="url(#filter0_d)">
<path fill-rule="evenodd" clip-rule="evenodd" d="M45.7334 48C45.7334 47.4845 46.1513 47.0667 46.6667 47.0667H54.6667C55.1822 47.0667 55.6001 47.4845 55.6001 48V56C55.6001 56.5154 55.1822 56.9333 54.6667 56.9333H46.6667C46.1513 56.9333 45.7334 56.5154 45.7334 56V48ZM47.6001 48.9333V55.0667H53.7334V48.9333H47.6001Z" fill="white"/>
<path fill-rule="evenodd" clip-rule="evenodd" d="M48.3999 66.6667C48.3999 66.1513 48.8178 65.7334 49.3332 65.7334H54.6666C55.182 65.7334 55.5999 66.1513 55.5999 66.6667V72.0001C55.5999 72.5155 55.182 72.9334 54.6666 72.9334H49.3332C48.8178 72.9334 48.3999 72.5155 48.3999 72.0001V66.6667ZM50.2666 67.6001V71.0667H53.7332V67.6001H50.2666Z" fill="white"/>
<path fill-rule="evenodd" clip-rule="evenodd" d="M53.7334 56C53.7334 55.4845 54.1513 55.0667 54.6667 55.0667H65.3334C65.8489 55.0667 66.2667 55.4845 66.2667 56V66.6667C66.2667 67.1821 65.8489 67.6 65.3334 67.6H54.6667C54.1513 67.6 53.7334 67.1821 53.7334 66.6667V56ZM55.6001 56.9333V65.7333H64.4001V56.9333H55.6001Z" fill="white"/>
</g>
</g>
<defs>
<filter id="filter0_d" x="38" y="43" width="36" height="36" filterUnits="userSpaceOnUse" color-interpolation-filters="sRGB">
<feFlood flood-opacity="0" result="BackgroundImageFix"/>
<feColorMatrix in="SourceAlpha" type="matrix" values="0 0 0 0 0 0 0 0 0 0 0 0 0 0 0 0 0 0 127 0"/>
<feOffset dy="1"/>
<feGaussianBlur stdDeviation="1"/>
<feColorMatrix type="matrix" values="0 0 0 0 0.133698 0 0 0 0 0.155763 0 0 0 0 0.2125 0 0 0 0.1 0"/>
<feBlend mode="normal" in2="BackgroundImageFix" result="effect1_dropShadow"/>
<feBlend mode="normal" in="SourceGraphic" in2="effect1_dropShadow" result="shape"/>
</filter>
<radialGradient id="paint0_radial" cx="0" cy="0" r="1" gradientUnits="userSpaceOnUse" gradientTransform="translate(266.426 59.5611) rotate(0.020075) scale(156.536 74.9486)">
<stop stop-color="#2E374F"/>
<stop offset="1" stop-color="#2E374F" stop-opacity="0"/>
</radialGradient>
<linearGradient id="paint1_linear" x1="24" y1="28" x2="100" y2="103.5" gradientUnits="userSpaceOnUse">
<stop stop-color="#13172A"/>
<stop offset="1" stop-color="#13172A" stop-opacity="0"/>
</linearGradient>
<clipPath id="clip0">
<rect width="282.667" height="120" fill="white"/>
</clipPath>
</defs>
</svg>
