<svg width="18" height="19" viewBox="0 0 18 19" fill="none" xmlns="http://www.w3.org/2000/svg"><path fill-rule="evenodd" clip-rule="evenodd" d="M4.16488 3.81633C3.9398 3.81633 3.72395 3.90574 3.56479 4.06489C3.40564 4.22405 3.31623 4.4399 3.31623 4.66498V11.5726C3.31623 11.7976 3.40564 12.0135 3.56479 12.1727C3.72395 12.3318 3.9398 12.4212 4.16488 12.4212H5.01353V7.42802C5.01353 6.37073 5.87063 5.51362 6.92792 5.51362H11.9211V4.66498C11.9211 4.4399 11.8317 4.22405 11.6726 4.06489C11.5134 3.90574 11.2975 3.81633 11.0725 3.81633H4.16488ZM12.9869 5.51362V4.66498C12.9869 4.15725 12.7852 3.67032 12.4262 3.3113C12.0671 2.95228 11.5802 2.75059 11.0725 2.75059H4.16488C3.65715 2.75059 3.17022 2.95228 2.8112 3.3113C2.45218 3.67032 2.25049 4.15725 2.25049 4.66498V11.5726C2.25049 12.0803 2.45218 12.5672 2.8112 12.9263C3.17022 13.2853 3.65715 13.487 4.16488 13.487H5.01353V14.3356C5.01353 15.3929 5.87063 16.25 6.92792 16.25H13.8355C14.8928 16.25 15.7499 15.3929 15.7499 14.3356V7.42802C15.7499 6.37073 14.8928 5.51362 13.8355 5.51362H12.9869ZM12.4533 6.57937C12.4535 6.57937 12.4538 6.57937 12.454 6.57937C12.4542 6.57937 12.4544 6.57937 12.4547 6.57937H13.8355C14.3042 6.57937 14.6842 6.95932 14.6842 7.42802V14.3356C14.6842 14.8043 14.3042 15.1843 13.8355 15.1843H6.92792C6.45922 15.1843 6.07927 14.8043 6.07927 14.3356V12.9548C6.07927 12.9545 6.07927 12.9543 6.07927 12.9541C6.07927 12.9539 6.07927 12.9536 6.07927 12.9534V7.42802C6.07927 6.95932 6.45922 6.57937 6.92792 6.57937H12.4533Z" fill="#2D2F4A"/></svg>