<svg width="283" height="120" viewBox="0 0 283 120" fill="none" xmlns="http://www.w3.org/2000/svg">
<g clip-path="url(#clip0)">
<rect width="282.667" height="120" transform="translate(0.333496)" fill="#16C3CC"/>
<rect x="24.3335" y="28" width="64" height="64" rx="32" fill="url(#paint0_linear)" fill-opacity="0.1"/>
<g filter="url(#filter0_d)">
<path fill-rule="evenodd" clip-rule="evenodd" d="M56.3338 49C53.9394 49 52.0005 50.939 52.0005 53.3333V56.3322H60.6672V53.3333C60.6672 50.9406 58.7165 49 56.3338 49ZM62.6672 56.3322V53.3333C62.6672 49.8328 59.8178 47 56.3338 47C52.8349 47 50.0005 49.8344 50.0005 53.3333V56.3322H49.6672C47.6349 56.3322 46.0005 57.9666 46.0005 59.9989V69.3322C46.0005 71.3479 47.6316 72.9989 49.6672 72.9989H63.0005C65.0194 72.9989 66.6672 71.3512 66.6672 69.3322V59.9989C66.6672 57.9634 65.0162 56.3322 63.0005 56.3322H62.6672ZM61.6199 58.3322C61.6355 58.333 61.6513 58.3333 61.6672 58.3333C61.683 58.3333 61.6988 58.333 61.7144 58.3322H63.0005C63.9181 58.3322 64.6672 59.0744 64.6672 59.9989V69.3322C64.6672 70.2466 63.9149 70.9989 63.0005 70.9989H49.6672C48.7427 70.9989 48.0005 70.2499 48.0005 69.3322V59.9989C48.0005 59.0712 48.7394 58.3322 49.6672 58.3322H50.9532C50.9689 58.333 50.9846 58.3333 51.0005 58.3333C51.0163 58.3333 51.0321 58.333 51.0478 58.3322H61.6199ZM54.0005 62.6678C54.0005 62.1155 54.4482 61.6678 55.0005 61.6678H57.6672C58.2194 61.6678 58.6672 62.1155 58.6672 62.6678V66.6678C58.6672 67.22 58.2194 67.6678 57.6672 67.6678C57.1149 67.6678 56.6672 67.22 56.6672 66.6678V63.6678H55.0005C54.4482 63.6678 54.0005 63.22 54.0005 62.6678Z" fill="white"/>
</g>
<path d="M370.972 46.0047L432.319 81.4232M370.972 46.0047L309.625 81.4232M370.972 46.0047L333.106 24.1426M370.972 46.0047L333.106 67.8668M432.319 81.4232L370.972 116.842M432.319 81.4232L470.185 59.5611L370.972 2.28054M432.319 81.4232L333.106 24.1426M370.972 116.842L309.625 81.4232M370.972 116.842L271.759 174.122L233.893 152.26M370.972 116.842L333.106 94.9796M309.625 81.4232L324.011 73.1175M309.625 81.4232L295.24 73.1175M370.972 2.28054L333.106 24.1426M370.972 2.28054L309.626 -33.1379M370.972 2.28054L309.625 37.699M333.106 24.1426L295.24 46.0047M333.106 67.8668L295.24 46.0047M333.106 67.8668L324.094 62.6638M333.106 67.8668L324.011 73.1175M295.24 46.0047L318.72 59.5611M295.24 46.0047L271.759 59.5611M295.24 46.0047L271.759 32.4483M295.24 46.0047L309.625 37.699M295.24 46.0047L280.854 37.699M318.72 59.5611L295.24 73.1175M318.72 59.5611L324.094 62.6638M318.72 59.5611L309.625 64.8118M295.24 73.1175L271.759 59.5611M295.24 73.1175L309.625 64.8118M295.24 73.1175L257.373 94.9796M295.24 73.1175L333.106 94.9796M295.24 73.1175L271.759 86.6739M271.759 59.5611L248.279 46.0047M271.759 59.5611L248.279 73.1175M309.625 64.8118L324.011 73.1175M309.625 64.8118L315 67.9145M324.011 73.1175L315 67.9145M324.094 62.6638L315 67.9145M172.546 73.1175L111.2 37.699M172.546 73.1175L233.893 37.699M172.546 73.1175L210.413 94.9796M172.546 73.1175L210.413 51.2554M111.2 37.699L172.546 2.28055M111.2 37.699L73.3336 59.5611L172.546 116.842M111.2 37.699L210.413 94.9796M172.546 2.28055L233.893 37.699M172.546 2.28055L271.759 -55L309.626 -33.1379M172.546 2.28055L210.413 24.1426M233.893 37.699L219.507 46.0047M233.893 37.699L248.279 46.0047M172.546 116.842L210.413 94.9796M172.546 116.842L233.893 152.26M172.546 116.842L233.893 81.4232M210.413 94.9796L248.279 73.1175M210.413 51.2554L248.279 73.1175M210.413 51.2554L219.425 56.4584M210.413 51.2554L219.507 46.0047M248.279 73.1175L224.799 59.5611M248.279 73.1175L271.759 86.6739M248.279 73.1175L233.893 81.4232M248.279 73.1175L262.665 81.4232M224.799 59.5611L248.279 46.0047M224.799 59.5611L219.425 56.4584M224.799 59.5611L233.893 54.3104M248.279 46.0047L233.893 54.3104M248.279 46.0047L286.145 24.1426M248.279 46.0047L210.413 24.1426M248.279 46.0047L271.759 32.4483M233.893 54.3104L219.507 46.0047M233.893 54.3104L228.519 51.2077M219.507 46.0047L228.519 51.2077M219.425 56.4584L228.519 51.2077M295.24 116.842L233.893 152.26M295.24 116.842L233.893 81.4232M295.24 116.842L333.106 94.9796M295.24 116.842L257.373 94.9796M233.893 152.26L333.106 94.9796M233.893 81.4232L248.279 89.7288M257.373 94.9796L266.385 89.7766M257.373 94.9796L248.279 89.7288M271.759 86.6739L266.385 89.7766M271.759 86.6739L262.665 81.4232M262.665 81.4232L248.279 89.7288M262.665 81.4232L257.291 84.5259M248.279 89.7288L257.291 84.5259M266.385 89.7766L257.291 84.5259M248.279 2.28055L309.626 -33.1379M248.279 2.28055L309.625 37.699M248.279 2.28055L210.413 24.1426M248.279 2.28055L286.145 24.1426M309.626 -33.1379L210.413 24.1426M309.625 37.699L295.24 29.3933M286.145 24.1426L277.133 29.3456M286.145 24.1426L295.24 29.3933M271.759 32.4483L277.133 29.3456M271.759 32.4483L280.854 37.699M280.854 37.699L295.24 29.3933M280.854 37.699L286.228 34.5963M295.24 29.3933L286.228 34.5963M277.133 29.3456L286.228 34.5963" stroke="url(#paint1_radial)" stroke-opacity="0.18" stroke-linecap="round"/>
</g>
<defs>
<filter id="filter0_d" x="38.3335" y="43" width="36" height="36" filterUnits="userSpaceOnUse" color-interpolation-filters="sRGB">
<feFlood flood-opacity="0" result="BackgroundImageFix"/>
<feColorMatrix in="SourceAlpha" type="matrix" values="0 0 0 0 0 0 0 0 0 0 0 0 0 0 0 0 0 0 127 0" result="hardAlpha"/>
<feOffset dy="1"/>
<feGaussianBlur stdDeviation="1"/>
<feColorMatrix type="matrix" values="0 0 0 0 0.133698 0 0 0 0 0.155763 0 0 0 0 0.2125 0 0 0 0.1 0"/>
<feBlend mode="normal" in2="BackgroundImageFix" result="effect1_dropShadow"/>
<feBlend mode="normal" in="SourceGraphic" in2="effect1_dropShadow" result="shape"/>
</filter>
<linearGradient id="paint0_linear" x1="24.3335" y1="28" x2="100.333" y2="103.5" gradientUnits="userSpaceOnUse">
<stop stop-color="#13172A"/>
<stop offset="1" stop-color="#13172A" stop-opacity="0"/>
</linearGradient>
<radialGradient id="paint1_radial" cx="0" cy="0" r="1" gradientUnits="userSpaceOnUse" gradientTransform="translate(271.759 59.5611) rotate(0.0200761) scale(156.536 74.9486)">
<stop stop-color="#2E374F"/>
<stop offset="1" stop-color="#2E374F" stop-opacity="0"/>
</radialGradient>
<clipPath id="clip0">
<rect width="282.667" height="120" fill="white" transform="translate(0.333496)"/>
</clipPath>
</defs>
</svg>
