<svg width="436" height="120" viewBox="0 0 436 120" fill="none" xmlns="http://www.w3.org/2000/svg">
<g clip-path="url(#clip0)">
<rect width="436" height="120" fill="#8D67F0"/>
<rect x="24" y="28" width="64" height="64" rx="32" fill="url(#paint0_linear)" fill-opacity="0.1"/>
<g filter="url(#filter0_d)">
<path fill-rule="evenodd" clip-rule="evenodd" d="M68.5509 50.9792C68.5509 50.9794 68.5509 50.9791 68.5509 50.9792L67.4846 56.1616C67.4554 56.3033 67.3965 56.4345 67.3141 56.5478C67.1642 57.121 66.9592 57.6752 66.7036 58.2033C66.6827 58.4783 66.5487 58.7424 66.3157 58.921C65.941 59.5458 65.4916 60.1255 64.9765 60.6468L64.9722 60.6511L61.9441 63.6792L61.9198 67.4664C61.9187 68.0946 61.6547 68.6661 61.2591 69.0838L61.2415 69.1018L57.5748 72.7818L57.5735 72.7831C56.6626 73.6941 55.079 73.2901 54.7734 71.9998L54.7728 71.9973L53.8953 68.2492C52.5465 68.4021 51.2004 68.0594 50.0999 67.3141L48.5335 68.8805C48.143 69.271 47.5098 69.271 47.1193 68.8805C46.7288 68.4899 46.7288 67.8568 47.1193 67.4662L48.6701 65.9155C47.881 64.8048 47.5188 63.4404 47.6599 62.0794L44.0016 61.2131C44.0004 61.2128 43.9992 61.2125 43.998 61.2122C42.7197 60.9145 42.2651 59.3246 43.2037 58.4072L46.8571 54.7405C47.2789 54.3008 47.8659 54.0402 48.4876 54.0387L52.2063 54.0027L55.2673 50.9436C55.2674 50.9435 55.2673 50.9437 55.2673 50.9436C56.5098 49.7012 58.0855 48.8439 59.8155 48.4973C59.8164 48.4971 59.8174 48.497 59.8183 48.4968L64.9938 47.4318C67.1154 46.9822 68.9895 48.8641 68.5509 50.9792ZM53.2936 55.7436C53.3207 55.7193 53.3465 55.6935 53.3709 55.6664L56.6813 52.358C57.0237 52.0157 57.3978 51.7114 57.797 51.4495C60.3708 53.2792 62.6292 55.5344 64.4694 58.1026C64.2054 58.51 63.8995 58.891 63.5557 59.2392C63.5551 59.2398 63.5544 59.2405 63.5537 59.2412L59.306 63.4889C57.8434 64.9515 55.9332 65.9182 53.8809 66.22C53.8373 66.2264 53.7941 66.2357 53.7517 66.2478L53.7261 66.2551C52.97 66.3528 52.2113 66.2074 51.5551 65.8589L57.9602 59.4538C58.3507 59.0633 58.3507 58.4301 57.9602 58.0396C57.5697 57.6491 56.9365 57.6491 56.546 58.0396L50.116 64.4696C49.7205 63.7845 49.5568 62.9835 49.6604 62.1903L49.668 62.1641C49.68 62.1218 49.6893 62.0788 49.6957 62.0353C49.7081 61.9511 49.7216 61.8673 49.7362 61.7836C49.771 61.7148 49.7983 61.6408 49.8169 61.5624C49.8406 61.462 49.8484 61.3616 49.8417 61.2638C50.2483 59.508 51.1397 57.8865 52.424 56.6127L53.2936 55.7436ZM50.2582 56.0216C49.2596 57.2287 48.5192 58.6275 48.0754 60.1224L45.0352 59.4025L48.2815 56.1445L48.2991 56.1264C48.3553 56.067 48.4284 56.0387 48.4931 56.0387L50.2582 56.0216ZM44.6006 59.8385L44.6062 59.833C44.6043 59.8349 44.6025 59.8367 44.6006 59.8385ZM55.8495 67.8227C57.3426 67.3695 58.733 66.6193 59.9316 65.6225L59.9198 67.4563L59.9198 67.4627C59.9198 67.5248 59.8922 67.6153 59.8135 67.7015L56.5807 70.946L55.8495 67.8227ZM65.3914 55.9943C63.8035 53.9488 61.9598 52.1077 59.9089 50.5254C60.0087 50.5007 60.1093 50.4782 60.2105 50.4579L65.4 49.3902L65.407 49.3887C66.1102 49.2388 66.74 49.8627 66.5926 50.5728L65.6113 55.342C65.5389 55.4485 65.4867 55.5696 65.4595 55.6997C65.4389 55.7986 65.4162 55.8968 65.3914 55.9943Z" fill="white"/>
</g>
<path d="M523.639 46.0047L584.985 81.4232M523.639 46.0047L462.292 81.4232M523.639 46.0047L485.772 24.1426M523.639 46.0047L485.772 67.8668M584.985 81.4232L523.639 116.842M584.985 81.4232L622.851 59.5611L523.639 2.28055M584.985 81.4232L485.772 24.1426M523.639 116.842L462.292 81.4232M523.639 116.842L424.426 174.122L386.56 152.26M523.639 116.842L485.772 94.9796M462.292 81.4232L476.678 73.1175M462.292 81.4232L447.906 73.1175M523.639 2.28055L485.772 24.1426M523.639 2.28055L462.292 -33.1379M523.639 2.28055L462.292 37.699M485.772 24.1426L447.906 46.0047M485.772 67.8668L447.906 46.0047M485.772 67.8668L476.761 62.6638M485.772 67.8668L476.678 73.1175M447.906 46.0047L471.387 59.5611M447.906 46.0047L424.426 59.5611M447.906 46.0047L424.426 32.4483M447.906 46.0047L462.292 37.699M447.906 46.0047L433.52 37.699M471.387 59.5611L447.906 73.1175M471.387 59.5611L476.761 62.6638M471.387 59.5611L462.292 64.8118M447.906 73.1175L424.426 59.5611M447.906 73.1175L462.292 64.8118M447.906 73.1175L410.04 94.9796M447.906 73.1175L485.772 94.9796M447.906 73.1175L424.426 86.6739M424.426 59.5611L400.945 46.0047M424.426 59.5611L400.945 73.1175M462.292 64.8118L476.678 73.1175M462.292 64.8118L467.666 67.9145M476.678 73.1175L467.666 67.9145M476.761 62.6638L467.666 67.9145M325.213 73.1175L263.866 37.699M325.213 73.1175L386.56 37.699M325.213 73.1175L363.079 94.9796M325.213 73.1175L363.079 51.2554M263.866 37.699L325.213 2.28055M263.866 37.699L226 59.5611L325.213 116.842M263.866 37.699L363.079 94.9796M325.213 2.28055L386.56 37.699M325.213 2.28055L424.426 -55L462.292 -33.1379M325.213 2.28055L363.079 24.1426M386.56 37.699L372.174 46.0047M386.56 37.699L400.945 46.0047M325.213 116.842L363.079 94.9796M325.213 116.842L386.56 152.26M325.213 116.842L386.56 81.4232M363.079 94.9796L400.945 73.1175M363.079 51.2554L400.945 73.1175M363.079 51.2554L372.091 56.4584M363.079 51.2554L372.174 46.0047M400.945 73.1175L377.465 59.5611M400.945 73.1175L424.426 86.6739M400.945 73.1175L386.56 81.4232M400.945 73.1175L415.331 81.4232M377.465 59.5611L400.945 46.0047M377.465 59.5611L372.091 56.4584M377.465 59.5611L386.56 54.3104M400.945 46.0047L386.56 54.3104M400.945 46.0047L438.812 24.1426M400.945 46.0047L363.079 24.1426M400.945 46.0047L424.426 32.4483M386.56 54.3104L372.174 46.0047M386.56 54.3104L381.186 51.2077M372.174 46.0047L381.186 51.2077M372.091 56.4584L381.186 51.2077M447.906 116.842L386.56 152.26M447.906 116.842L386.56 81.4232M447.906 116.842L485.772 94.9796M447.906 116.842L410.04 94.9796M386.56 152.26L485.772 94.9796M386.56 81.4232L400.945 89.7289M410.04 94.9796L419.052 89.7766M410.04 94.9796L400.945 89.7289M424.426 86.6739L419.052 89.7766M424.426 86.6739L415.331 81.4232M415.331 81.4232L400.945 89.7289M415.331 81.4232L409.957 84.5259M400.945 89.7289L409.957 84.5259M419.052 89.7766L409.957 84.5259M400.945 2.28055L462.292 -33.1379M400.945 2.28055L462.292 37.699M400.945 2.28055L363.079 24.1426M400.945 2.28055L438.812 24.1426M462.292 -33.1379L363.079 24.1426M462.292 37.699L447.906 29.3933M438.812 24.1426L429.8 29.3456M438.812 24.1426L447.906 29.3933M424.426 32.4483L429.8 29.3456M424.426 32.4483L433.52 37.699M433.52 37.699L447.906 29.3933M433.52 37.699L438.894 34.5963M447.906 29.3933L438.894 34.5963M429.8 29.3456L438.894 34.5963" stroke="url(#paint1_radial)" stroke-opacity="0.18" stroke-linecap="round"/>
</g>
<defs>
<filter id="filter0_d" x="38" y="43" width="36" height="36" filterUnits="userSpaceOnUse" color-interpolation-filters="sRGB">
<feFlood flood-opacity="0" result="BackgroundImageFix"/>
<feColorMatrix in="SourceAlpha" type="matrix" values="0 0 0 0 0 0 0 0 0 0 0 0 0 0 0 0 0 0 127 0" result="hardAlpha"/>
<feOffset dy="1"/>
<feGaussianBlur stdDeviation="1"/>
<feColorMatrix type="matrix" values="0 0 0 0 0.133698 0 0 0 0 0.155763 0 0 0 0 0.2125 0 0 0 0.1 0"/>
<feBlend mode="normal" in2="BackgroundImageFix" result="effect1_dropShadow"/>
<feBlend mode="normal" in="SourceGraphic" in2="effect1_dropShadow" result="shape"/>
</filter>
<linearGradient id="paint0_linear" x1="24" y1="28" x2="100" y2="103.5" gradientUnits="userSpaceOnUse">
<stop stop-color="#13172A"/>
<stop offset="1" stop-color="#13172A" stop-opacity="0"/>
</linearGradient>
<radialGradient id="paint1_radial" cx="0" cy="0" r="1" gradientUnits="userSpaceOnUse" gradientTransform="translate(424.426 59.5611) rotate(0.0200782) scale(156.536 74.9486)">
<stop stop-color="#2E374F"/>
<stop offset="1" stop-color="#2E374F" stop-opacity="0"/>
</radialGradient>
<clipPath id="clip0">
<rect width="436" height="120" fill="white"/>
</clipPath>
</defs>
</svg>
